<svg width="720" height="1024" viewBox="0 0 720 1024" fill="none" xmlns="http://www.w3.org/2000/svg">
<rect width="720" height="1024" fill="#5138EE"/>
<rect width="295" height="79" transform="matrix(1 0 0 -1 425 79)" fill="#3521B5"/>
<rect width="218" height="79" transform="matrix(1 0 0 -1 502 158)" fill="#3521B5"/>
<rect width="77" height="79" transform="matrix(1 0 0 -1 643 316)" fill="#3521B5"/>
<rect width="142" height="79" transform="matrix(1 0 0 -1 578 237)" fill="#3521B5"/>
<rect width="373" height="79" transform="matrix(-1 0 0 1 373 945)" fill="#3521B5"/>
<rect width="295" height="79" transform="matrix(-1 0 0 1 295 866)" fill="#3521B5"/>
<rect width="218" height="79" transform="matrix(-1 0 0 1 218 787)" fill="#3521B5"/>
<rect width="77" height="79" transform="matrix(-1 0 0 1 77 629)" fill="#3521B5"/>
<rect width="142" height="79" transform="matrix(-1 0 0 1 142 708)" fill="#3521B5"/>
</svg>
