<?xml version="1.0" encoding="utf-8"?>
<!-- Generator: Adobe Illustrator 25.0.0, SVG Export Plug-In . SVG Version: 6.00 Build 0)  -->
<svg version="1.1" id="Layer_1" xmlns="http://www.w3.org/2000/svg" xmlns:xlink="http://www.w3.org/1999/xlink" x="0px" y="0px"
	 viewBox="0 0 3000 3000" style="enable-background:new 0 0 3000 3000;" xml:space="preserve">
<style type="text/css">
	.st0{fill:#748DDB;stroke:#748DDB;stroke-width:35;stroke-miterlimit:10;}
	.st1{fill:#FFFFFF;stroke:#748DDB;stroke-width:140;stroke-miterlimit:10;}
	.st2{fill:none;}
	.st3{fill:#748DDB;}
	.st4{stroke:#000000;stroke-width:35;stroke-miterlimit:10;}
</style>
<g>
	<path class="st0" d="M684.37,589.94c229.52-33.16,414.78,2.9,493.87,21.67c115.74,27.47,208.9,66.31,275.4,98.99
		c3.05,579.71,6.09,1159.42,9.14,1739.13c-162.4-61.33-416.58-135.29-734.58-140.58c-286.86-4.78-521.53,48.05-679.48,96.8
		c0-513.55,0-1027.09,0-1540.64C153.09,783.38,372.39,635.01,684.37,589.94z"/>
	<path class="st1" d="M1407.25,641.04c0.92,566.07,1.84,1132.14,2.77,1698.21c-109.1-72.63-311.18-186.85-590.23-233.82
		c-269.82-45.42-491.36-7.72-617.34,23.43c-1.66-579.41-3.32-1158.82-4.98-1738.24c99.13-32.56,329.77-94.81,617.34-46.86
		c328.12,54.71,533.2,220.01,606.28,285.07c68.58-62.13,304.71-260.43,681.51-296.78c269.39-25.99,480.22,43.37,577.51,82.01
		c-98.19-38.92-308.86-107.9-577.51-82.01C1714.95,369.41,1474.31,578.48,1407.25,641.04z"/>
</g>
<g>
	<rect x="1525.39" y="738.9" class="st2" width="1448.45" height="1728.5"/>
	<path class="st3" d="M1601.39,1456.89v-718h74.75h75.25v591h357v63.25v63.75H1601.39z"/>
	<path class="st3" d="M2345.23,1456.89h-69.75h-70.25v-718h109.8h109.8l130.72,569.08h0.02l129.02-569.08h108.33h108.33v718h-69.75
		h-70.25v-603.7h0.08l-134.34,603.7h-73.73h-73.73L2345.36,840h-0.12V1456.89z"/>
	<path class="st3" d="M1990.24,1853.89c-2.59-34.08-17.55-61.09-44.83-81.06c-27.3-19.95-62.88-29.94-106.72-29.94
		c-38,0-67.73,8.39-89.17,25.16s-32.16,40.12-32.16,70.06c0,21.5,11.22,38.09,33.69,49.81c22.12,11.72,69.16,25.56,141.09,41.5
		c104.47,23.47,174.28,50.53,209.44,81.19c35.2,30.31,52.81,79.06,52.81,146.22c0,67.48-26.53,121.03-79.59,160.64
		s-124.84,59.42-215.34,59.42c-90.84,0-161.81-20.97-212.92-62.94c-51.11-41.95-78.45-101.64-82.03-179.06h145
		c1.62,37.88,15.42,67.02,41.39,87.41c25.97,20.41,62.16,30.59,108.59,30.59c47.72,0,84.98-7.72,111.77-23.19
		s40.17-36.88,40.17-64.22c0-27.02-9.69-46.88-29.05-59.58c-18.84-12.69-59.11-25.86-120.81-39.55
		c-113.69-25.42-189.69-52.97-228-82.64c-38.12-29.34-57.17-75.14-57.17-137.42c0-69.77,25.19-125.11,75.58-166.03
		c50.39-40.91,118.5-61.38,204.34-61.38c80.3,0,145.64,21.17,196.03,63.52s78.36,99.52,83.89,171.48H1990.24z"/>
	<path class="st3" d="M2844.39,2086.58c0.31,102.64-22.25,176.69-67.69,222.14s-119.47,68.17-222.06,68.17
		c-98.39,0-171.28-23.7-218.67-71.11c-47.41-47.41-71.27-120.47-71.58-219.2v-447.69h74.75h75.25v452.56
		c0,51.48,11.64,90.09,34.94,115.83c23.28,25.75,58.39,38.61,105.31,38.61c50.16,0,86-11.8,107.5-35.42s32.25-63.3,32.25-119.02
		v-452.56h74.75h75.25V2086.58z"/>
</g>
<path class="st4" d="M-1109.56,2576.84"/>
<g>
</g>
<g>
</g>
<g>
</g>
<g>
</g>
<g>
</g>
</svg>
