<?xml version="1.0" encoding="utf-8"?>
<!-- Generator: Adobe Illustrator 25.0.0, SVG Export Plug-In . SVG Version: 6.00 Build 0)  -->
<svg version="1.1" id="Layer_1" xmlns="http://www.w3.org/2000/svg" xmlns:xlink="http://www.w3.org/1999/xlink" x="0px" y="0px"
	 viewBox="0 0 1400 550" style="enable-background:new 0 0 1400 550;" xml:space="preserve">
<style type="text/css">
	.st0{fill:#4B49AC;stroke:#4B49AC;stroke-width:35;stroke-miterlimit:10;}
	.st1{fill:#FFFFFF;stroke:#4B49AC;stroke-width:35;stroke-miterlimit:10;}
	.st2{fill:none;}
	.st3{fill:#4B49AC;}
</style>
<g>
	<path class="st0" d="M181.41,85.24c48.31-6.98,89.08-0.75,113.7,4.99c30.91,7.2,53.84,17.45,65.85,23.33
		c-0.12,133.28-0.23,266.56-0.35,399.84c-37.39-14.12-95.9-31.15-169.11-32.36c-66.04-1.1-120.07,11.06-156.43,22.28
		c0-118.23,0-236.46,0-354.69C59.09,129.78,109.58,95.62,181.41,85.24z"/>
	<path class="st1" d="M359.43,108.17c0.21,130.32,0.42,260.64,0.64,390.96c-22.35-15.29-68.75-42.8-135.88-53.83
		c-63.38-10.41-115.15-1.18-142.12,5.39C81.68,317.3,81.3,183.91,80.91,50.52c22.82-7.5,75.92-21.83,142.12-10.79
		c75.54,12.6,122.75,50.65,139.58,65.63c15.79-14.3,70.15-59.96,156.9-68.33c62.02-5.98,110.56,9.99,132.96,18.88
		c-22.6-8.96-71.11-24.84-132.96-18.88C430.27,45.63,374.87,93.76,359.43,108.17z"/>
</g>
<g>
	<rect x="448.35" y="177.88" class="st2" width="967.41" height="388.8"/>
	<path class="st3" d="M474.25,422V177.95h25.4h25.57v200.71h121.36v21.58V422H474.25z"/>
	<path class="st3" d="M727.09,422h-23.74h-23.91V177.95h37.35h37.35l44.45,193.41h0.01l43.86-193.41h36.86h36.86V422h-23.74h-23.91
		V216.8h0.03L822.88,422h-25.07h-25.07l-45.61-209.68h-0.04V422z"/>
	<path class="st3" d="M1097.41,251.17c-0.89-11.62-5.97-20.83-15.27-27.64c-9.29-6.81-21.41-10.21-36.34-10.21
		c-12.94,0-23.07,2.85-30.37,8.55c-7.3,5.7-10.95,13.64-10.95,23.82c0,7.3,3.82,12.95,11.46,16.93c7.52,3.98,23.51,8.69,47.97,14.11
		c35.52,7.97,59.26,17.16,71.21,27.56c11.97,10.29,17.96,26.84,17.96,49.64c0,22.91-9.02,41.09-27.06,54.54
		s-42.43,20.17-73.19,20.17c-30.87,0-55-7.14-72.37-21.42s-26.67-34.59-27.88-60.93h49.14c0.55,12.95,5.26,22.91,14.11,29.88
		s21.19,10.46,37.01,10.46c16.26,0,28.96-2.63,38.08-7.89c9.13-5.26,13.69-12.53,13.69-21.83c0-9.19-3.29-15.94-9.87-20.25
		c-6.42-4.32-20.13-8.8-41.14-13.45c-38.71-8.63-64.59-17.98-77.64-28.06c-12.96-9.96-19.44-25.51-19.44-46.65
		c0-23.68,8.57-42.47,25.72-56.36c17.15-13.89,40.33-20.83,69.54-20.83c27.33,0,49.57,7.2,66.71,21.58
		c17.15,14.39,26.66,33.81,28.55,58.27H1097.41z"/>
	<path class="st3" d="M1387.5,330.03c0.11,34.86-7.55,60.01-22.99,75.45s-40.59,23.16-75.45,23.16c-33.43,0-58.19-8.05-74.29-24.16
		s-24.21-40.92-24.32-74.46V177.95h25.4h25.57v153.73c0,17.49,3.96,30.6,11.87,39.35c7.91,8.74,19.84,13.12,35.78,13.12
		c17.04,0,29.22-4.01,36.52-12.04c7.3-8.02,10.96-21.5,10.96-40.42V177.95h25.4h25.57V330.03z"/>
</g>
<g>
</g>
<g>
</g>
<g>
</g>
<g>
</g>
<g>
</g>
</svg>
