<svg id="Layer_1" data-name="Layer 1" xmlns="http://www.w3.org/2000/svg" viewBox="0 0 2942.61 2582.6"><defs><style>.cls-1,.cls-3{fill:#4b49ac;}.cls-1{stroke:#4b49ac;}.cls-1,.cls-2,.cls-4{stroke-miterlimit:10;}.cls-1,.cls-4{stroke-width:35px;}.cls-2{fill:none;stroke:#424296;stroke-width:140px;}.cls-3{font-size:1000px;font-family:Helvetica-Bold, Helvetica;font-weight:700;}.cls-4{stroke:#000;}</style></defs><path class="cls-1" d="M684.37,589.94c229.52-33.15,414.78,2.9,493.87,21.67a1310.87,1310.87,0,0,1,275.4,99q4.58,869.57,9.14,1739.13a2179,2179,0,0,0-1414-43.79V865.3C153.09,783.38,372.39,635,684.37,589.94Z" transform="translate(-31.23 -256.26)"/><path class="cls-2" d="M1407.25,641q1.39,849.11,2.77,1698.21A1519.72,1519.72,0,0,0,202.45,2128.87l-5-1738.24c99.13-32.56,329.76-94.81,617.34-46.86,328.11,54.71,533.19,220,606.27,285.07,68.59-62.13,304.71-260.43,681.51-296.79,269.39-26,480.22,43.38,577.51,82-98.19-38.92-308.86-107.9-577.51-82C1715,369.41,1474.31,578.48,1407.25,641Z" transform="translate(-31.23 -256.26)"/><text class="cls-3" transform="translate(1494.17 1201.64)">LM<tspan x="0" y="900">SU</tspan></text><path class="cls-4" d="M-1109.56,2576.84" transform="translate(-31.23 -256.26)"/></svg>