<?xml version="1.0" encoding="utf-8"?>
<!-- Generator: Adobe Illustrator 25.0.0, SVG Export Plug-In . SVG Version: 6.00 Build 0)  -->
<svg version="1.1" id="Слой_1" xmlns="http://www.w3.org/2000/svg" x="0px" y="0px"
     viewBox="0 0 3308.11 2000" style="enable-background:new 0 0 3308.11 2000;" xml:space="preserve">
<style type="text/css">
	.st0{display:none;fill:#FFFFFF;}
	.st1{fill:#E3EAFF;}
	.st2{fill:#CDD8FA;}
	.st3{fill:#FFFFFF;}
	.st4{fill:#EDF1FF;}
	.st5{fill:#95A6DB;}
	.st6{fill:#F37A50;}
	.st7{fill:#0E6A41;}
	.st8{fill:#3F964F;}
	.st9{fill:#607EDB;}
	.st10{fill:#E62552;}
	.st11{fill:#C4204A;}
	.st12{fill:#2C2858;}
	.st13{fill:#DE623C;}
	.st14{fill:#7F99EB;}
	.st15{fill:#201D40;}
	.st16{fill:#494C7F;}
	.st17{fill:#F9CD2D;}
	.st18{fill:#F9F93A;}
	.st19{fill:#F7D33C;}
	.st20{fill:#F595AD;}
	.st21{fill:#070635;}
	.st22{fill:#748DDB;}
</style>
<rect x="0" class="st0" width="3308.11" height="2000"/>
<g>
	<path class="st1" d="M231.56,1924.7c-208.24-295.44-273.49-468.01-94.79-782.19c88.02-154.77-121.38-307.42,16.62-424.4
		c114.1-96.72,239.6,33.64,384.35-263.34c230.86-473.65,523.61-39.55,823.98-253.15c458.03-325.72,968.45-69.38,1297.79,321.99
		c63.87,75.9,183.46,68.82,277.6,100.13c281.74,105.25,261.19,294.06,205.19,563.98c-24.53,118.22,47.84,156.85,81.87,217.03
		c104.69,192.35-6.34,375.91-117.4,538.58C3106.77,1943.31,231.56,1924.7,231.56,1924.7z"/>
	<g>
		<g>
			<polygon class="st2" points="2179.4,1497.87 2193.28,1529.54 2025.29,1613.53 			"/>
			<polygon class="st2" points="2204.36,1566.8 2190.49,1599.08 2032.79,1609.62 			"/>
			<polygon class="st3" points="2025.29,1613.53 2296.55,1560.4 2211.17,1516.68 			"/>
			<polygon class="st3" points="2179.4,1497.87 2025.29,1613.53 2126.28,1466.42 			"/>
		</g>
		<g>
			<path class="st2" d="M1968.78,1913.42c-1.93,0-3.81-1.02-4.81-2.83c-1.48-2.65-0.52-6,2.13-7.48c7.73-4.3,16.94-8.83,27.35-13.47
				c2.78-1.24,6.03,0.01,7.26,2.79c1.24,2.78-0.01,6.03-2.79,7.26c-10.12,4.51-19.03,8.89-26.48,13.04
				C1970.6,1913.2,1969.69,1913.42,1968.78,1913.42z M2023.41,1888.67c-2.2,0-4.28-1.33-5.13-3.51c-1.1-2.83,0.3-6.02,3.13-7.12
				c8.83-3.44,18.36-6.96,28.31-10.46c2.86-1.01,6.01,0.5,7.01,3.36c1.01,2.87-0.5,6.01-3.36,7.02
				c-9.84,3.47-19.25,6.95-27.98,10.34C2024.74,1888.55,2024.07,1888.67,2023.41,1888.67z M2079.97,1868.66
				c-2.32,0-4.47-1.48-5.23-3.8c-0.94-2.89,0.64-5.99,3.53-6.93c9.22-3,18.89-6.03,28.74-9.01c2.91-0.88,5.98,0.76,6.86,3.67
				c0.88,2.91-0.76,5.98-3.67,6.86c-9.78,2.96-19.38,5.97-28.53,8.95C2081.11,1868.57,2080.54,1868.66,2079.97,1868.66z
				 M2137.39,1851.23c-2.4,0-4.6-1.58-5.29-4c-0.83-2.92,0.86-5.96,3.79-6.79c9.42-2.68,19.18-5.38,29-8.02
				c2.93-0.79,5.95,0.95,6.74,3.89c0.79,2.93-0.95,5.95-3.89,6.74c-9.77,2.62-19.47,5.3-28.84,7.97
				C2138.4,1851.16,2137.89,1851.23,2137.39,1851.23z M2195.35,1835.66c-2.46,0-4.69-1.66-5.33-4.15c-0.75-2.94,1.03-5.94,3.98-6.68
				c9.56-2.43,19.39-4.86,29.2-7.22c2.96-0.71,5.92,1.11,6.63,4.06s-1.11,5.92-4.06,6.63c-9.76,2.35-19.54,4.77-29.06,7.18
				C2196.25,1835.6,2195.79,1835.66,2195.35,1835.66z M2253.69,1821.61c-2.51,0-4.78-1.73-5.36-4.28c-0.68-2.96,1.18-5.91,4.14-6.59
				c7.96-1.82,16.08-3.63,24.15-5.4c1.71-0.37,3.41-0.76,5.1-1.15c2.96-0.69,5.92,1.15,6.61,4.11c0.69,2.96-1.15,5.91-4.11,6.61
				c-1.74,0.41-3.49,0.8-5.26,1.19c-8.04,1.76-16.13,3.56-24.05,5.37C2254.5,1821.56,2254.09,1821.61,2253.69,1821.61z
				 M2311.86,1807.03c-2.32,0-4.47-1.48-5.23-3.8c-0.94-2.89,0.64-5.99,3.53-6.93c9.47-3.07,18.75-6.57,27.58-10.38
				c2.79-1.2,6.03,0.08,7.23,2.87c1.2,2.79-0.08,6.03-2.87,7.23c-9.15,3.95-18.75,7.56-28.54,10.74
				C2313,1806.94,2312.42,1807.03,2311.86,1807.03z M2366.81,1783.21c-1.93,0-3.79-1.01-4.8-2.81c-1.49-2.65-0.54-6,2.11-7.49
				c8.65-4.85,16.98-10.15,24.75-15.76c2.46-1.78,5.9-1.22,7.68,1.24c1.78,2.46,1.22,5.9-1.24,7.68
				c-8.11,5.86-16.8,11.39-25.81,16.44C2368.65,1782.98,2367.72,1783.21,2366.81,1783.21z M2415.26,1748.09
				c-1.47,0-2.94-0.59-4.02-1.74c-2.07-2.22-1.96-5.7,0.26-7.77c7.21-6.74,13.92-13.93,19.92-21.35c1.91-2.36,5.37-2.73,7.73-0.82
				c2.36,1.91,2.73,5.37,0.82,7.74c-6.33,7.82-13.38,15.38-20.96,22.47C2417.96,1747.6,2416.61,1748.09,2415.26,1748.09z
				 M2452.72,1701.52c-0.94,0-1.89-0.24-2.76-0.74c-2.63-1.53-3.52-4.89-1.99-7.52c4.93-8.5,9.12-17.32,12.45-26.22
				c1.06-2.85,4.23-4.29,7.08-3.23c2.85,1.06,4.29,4.23,3.23,7.08c-3.54,9.49-8,18.87-13.24,27.9
				C2456.46,1700.54,2454.62,1701.52,2452.72,1701.52z M2473.45,1645.56c-0.31,0-0.63-0.03-0.95-0.08c-2.99-0.52-5-3.37-4.48-6.36
				c1.43-8.22,2.15-16.52,2.15-24.68c0-1.36-0.02-2.72-0.06-4.08c-0.09-3.04,2.3-5.57,5.34-5.66c3.03-0.09,5.57,2.3,5.66,5.34
				c0.04,1.46,0.06,2.93,0.06,4.4c0,8.79-0.78,17.72-2.31,26.56C2478.4,1643.68,2476.08,1645.56,2473.45,1645.56z M2471.57,1586.04
				c-2.47,0-4.71-1.67-5.33-4.18c-2.31-9.31-5.65-18.38-9.93-26.96c-1.36-2.72-0.25-6.02,2.47-7.38c2.72-1.35,6.02-0.25,7.38,2.47
				c4.64,9.3,8.26,19.13,10.76,29.22c0.73,2.95-1.07,5.93-4.01,6.66C2472.45,1585.99,2472,1586.04,2471.57,1586.04z
				 M2193.28,1535.04c-2.02,0-3.97-1.12-4.93-3.05c-1.35-2.72-0.25-6.02,2.47-7.37c9.02-4.49,18.29-8.76,27.57-12.68
				c2.8-1.18,6.03,0.12,7.21,2.92c1.18,2.8-0.12,6.03-2.92,7.21c-9.07,3.84-18.13,8.01-26.95,12.4
				C2194.94,1534.86,2194.11,1535.04,2193.28,1535.04z M2444.87,1532.89c-1.56,0-3.11-0.66-4.19-1.94
				c-6.2-7.29-13.33-13.63-21.19-18.82c-2.53-1.68-3.23-5.09-1.55-7.62c1.67-2.53,5.09-3.23,7.62-1.55
				c8.72,5.77,16.63,12.79,23.5,20.87c1.97,2.31,1.69,5.79-0.63,7.75C2447.39,1532.46,2446.12,1532.89,2444.87,1532.89z
				 M2248.53,1511.71c-2.28,0-4.4-1.42-5.19-3.7c-1-2.87,0.52-6,3.39-7c9.81-3.41,19.59-6.42,29.07-8.94
				c2.94-0.78,5.95,0.97,6.73,3.91c0.78,2.94-0.97,5.95-3.9,6.73c-9.22,2.45-18.73,5.37-28.28,8.69
				C2249.74,1511.61,2249.13,1511.71,2248.53,1511.71z M2395.57,1500.1c-0.57,0-1.15-0.09-1.72-0.28
				c-8.68-2.87-18.15-4.87-28.16-5.95c-3.02-0.33-5.2-3.04-4.88-6.06c0.33-3.02,3.04-5.2,6.06-4.88
				c10.78,1.17,21.02,3.33,30.43,6.44c2.88,0.95,4.45,4.06,3.5,6.95C2400.03,1498.63,2397.88,1500.1,2395.57,1500.1z
				 M2306.5,1496.49c-2.63,0-4.96-1.9-5.42-4.58c-0.51-2.99,1.51-5.83,4.5-6.34c10.48-1.77,20.73-2.92,30.45-3.4
				c3.03-0.15,5.62,2.19,5.77,5.22c0.15,3.03-2.19,5.62-5.22,5.77c-9.29,0.46-19.1,1.56-29.16,3.26
				C2307.12,1496.46,2306.81,1496.49,2306.5,1496.49z"/>
		</g>
	</g>
	<g>
		<path class="st2" d="M2971.6,123.6l55.99,152.66c2.13,5.82-0.85,12.25-6.66,14.38l-265.32,97.31c-5.81,2.13-12.25-0.85-14.38-6.67
			l-55.99-152.66c-2.13-5.82,0.85-12.25,6.66-14.38l265.32-97.31C2963.03,114.79,2969.46,117.78,2971.6,123.6z"/>
		<path class="st4" d="M2971.6,123.6l3.1,8.44l-89.04,131.16c-8.52,13.09-24.55,19.12-39.58,14.9l-159.06-44.66l-1.77-4.82
			c-2.13-5.81,0.85-12.26,6.67-14.39l265.3-97.31C2963.02,114.8,2969.46,117.78,2971.6,123.6z"/>
	</g>
	<g>
		<path class="st2" d="M1991.93,577.35l-72.96,134.98c-2.78,5.15-9.19,7.06-14.33,4.28l-234.58-126.8
			c-5.14-2.78-7.05-9.19-4.27-14.33l72.96-134.98c2.78-5.15,9.19-7.06,14.33-4.28l234.58,126.8
			C1992.8,565.8,1994.71,572.21,1991.93,577.35z"/>
		<path class="st3" d="M1991.93,577.35l-4.03,7.46l-148.38,18.99c-14.57,2.16-28.86-5.41-35.27-18.67l-67.81-140.37l2.3-4.26
			c2.78-5.14,9.2-7.06,14.34-4.28l234.57,126.79C1992.79,565.79,1994.71,572.21,1991.93,577.35z"/>
	</g>
	<path class="st5" d="M3121.04,1950.47H182.3c-9.34,0-16.91-7.57-16.91-16.91l0,0c0-9.34,7.57-16.91,16.91-16.91h2938.73
		c9.34,0,16.91,7.57,16.91,16.91l0,0C3137.95,1942.9,3130.38,1950.47,3121.04,1950.47z"/>
	<g>
		<g id="c_3_">
			<path class="st6" d="M2066.32,1082.56l3.07-20.38c0,0-14.28-2.23-13.52-12.26l15.01-0.18c0,0,8.08-7.4-1.2-29.93
				c-2.15-21.19,11.83-10.56,13.73-17.27c2.81-9.9,20.53,9.94,21.08,30.9c0.71,27.12-13.72,49.06-13.72,49.06L2066.32,1082.56z"/>
		</g>
		<g id="c_2_">
			<path class="st6" d="M1682.62,1293.87l-13.59-12.31c0,0,0.88-25.28-13.85-23.52c-3.97,0.47,7.26,14.38-0.88,15.17
				c-1.7,0.17-7.25-5.71-14.95-15.17c-5.71-10.99-17.3-11.12-22.42-9.02c-9.52,3.89-10.73,22.77,3.87,37.82
				c18.9,19.47,44.67,24.49,44.67,24.49L1682.62,1293.87z"/>
		</g>
		<path d="M1833.87,1880.38c-20.12,28.31-69.54,10.94-67.91,49.22c75.15-0.49,106.39,0,106.39,0c-0.1-8.79-1.59-29.66-3.32-37.84
			L1833.87,1880.38z"/>
		<path d="M1946.31,1881.12c-20.12,28.31-69.54,10.94-67.91,49.22c75.15-0.49,106.39,0,106.39,0c-0.1-8.79-1.58-29.67-3.32-37.84
			L1946.31,1881.12z"/>
		<path class="st7" d="M1799.08,1448.23c0,0-12.2,181.43-7.24,221.76c4.96,40.33,22.51,92.05,20.52,225.46
			c24.5,6.25,59.99,0,59.99,0s5.26-150.85-20.64-218.23c10.53-65.45,44.32-215.36,44.32-215.36L1799.08,1448.23z"/>
		<path class="st8" d="M1835.49,1453.19c0,0,24.64,203.68,36.7,242.31c12.06,38.63,32.76,68.51,54.6,199.94
			c25.18,1.28,60.66,2.79,60.66,2.79s-12.62-166.71-51.83-204.62c-1.33-66.37,6.34-239.11,6.34-239.11L1835.49,1453.19z"/>
		<path class="st5" d="M1930.56,1208.55c0,0,1.81,1.4,103.32-16.08c0.03-0.01,0.06,0,0.08,0.02l35.91,30.61
			c0.04,0.04,0.05,0.1,0.01,0.14c-26.77,29.6-142.15,47.7-142.15,47.7L1930.56,1208.55z"/>
		<polygon class="st9" points="1887.42,1186.3 1851.75,1180.55 1816.38,1187.91 1852.81,1230.79 		"/>
		<path class="st6" d="M1874.32,1207.14c-14.11,11.01-29.04,15.73-44.56,4.57l-2.14-54.89l46.53-0.55L1874.32,1207.14z"/>
		<path class="st5" d="M1805.88,1206.53L1805.88,1206.53l10.92-3.5l-0.42-15.12l27.92,25.67l8.24,1.88l8.15-2.25l26.73-26.91
			l0.27,15.12l9.26,2.51l0,0l39.22,5.38v174.35l14.64,80.64c-45.91,11.94-114.3,12.58-163.22,2.47l8.09-73.47l-17.03-176.66
			L1805.88,1206.53z"/>
		<path class="st10" d="M1850.87,1234.89c0,0,4.9,106.62,12.92,161.21c-2.59,3.13-14.28,17.28-14.28,17.28s-14.2-13.45-18.05-15.89
			c-8.74-96.21,7.01-162.1,7.01-162.1L1850.87,1234.89z"/>
		<polygon class="st11" points="1859.83,1216.35 1844.79,1212.47 1833.78,1216.87 1838.48,1235.4 1851.79,1235.36 		"/>
		<path class="st3" d="M1844.79,1212.47c0,0,12.11,16.04,23.14,22.4l28.32-30.03l-8.71-18.55L1844.79,1212.47z"/>
		<path class="st3" d="M1844.79,1212.47c0,0-9.58,13.92-22.06,23.14l-22.06-27.63l15.71-20.06L1844.79,1212.47z"/>
		<path class="st5" d="M2094.51,1079.41c-16.14-3.72-24.6-5.29-36.76-4.13c-20.6,88.43-38.03,122.67-27.13,146.46
			c9.08,19.83,31.48,16.05,41.04-0.37C2084.28,1199.72,2089.82,1121.46,2094.51,1079.41z"/>
		<path class="st5" d="M1780.1,1216.45c-24.06,0.89-52.25,113.62-52.25,113.62l-46.94-50.1l-26.6,36.96c0,0,69.07,85.2,95.57,77.25
			c24.75-7.42,37.38-96.36,37.38-96.36L1780.1,1216.45z"/>
		<g>
			<path class="st12" d="M1888.69,1154.29c22.9,2.72,34.87-26.53,34.87-26.53c14.03-2.32,11.66-16.29,11.66-16.29
				c6.65-2.04,15.52-9.18,12.67-21.88c-2.42-10.75-12.96-10.25-14.32-22.84c-1.09-10.1,6.16-34.87-26.09-36.78
				c0,0-0.8-18.78-20.17-23.27c-23.75-5.5-29.62,8.77-40.03,11.34c-11.63,2.86-36.63-7.83-39.89,19.09c0,0-16.6,0.39-24.23,12.47
				c-7.11,11.26-2.94,25.64,1.84,30.93c0,0-13.31,4.54-16.37,17.15c-2.05,8.45,1.25,19.38,9.67,24.68
				c5.36,3.37,10.45,3.68,10.45,3.68c5.44,0.89,5.78,15.45,10.57,18.26c7.69,4.51,16.04,7.7,24.54,10.22L1888.69,1154.29z"/>
			<path class="st6" d="M1800.66,1098.38c-2.64,39.49,19.04,73.1,48.41,75.06c29.38,1.96,55.34-28.46,57.98-67.95
				c2.64-39.49-20.85-65-50.23-66.96C1827.44,1036.56,1803.3,1058.88,1800.66,1098.38z"/>
			<path d="M1875.21,1118.69c3.12,0.21,5.82-2.15,6.03-5.28c0.21-3.12-2.15-5.82-5.28-6.03c-3.12-0.21-5.82,2.15-6.03,5.28
				C1869.72,1115.78,1872.09,1118.48,1875.21,1118.69z"/>
			<path d="M1830.15,1115.68c3.12,0.21,5.82-2.15,6.03-5.28c0.21-3.12-2.15-5.82-5.28-6.03c-3.12-0.21-5.82,2.15-6.03,5.28
				C1824.67,1112.77,1827.03,1115.47,1830.15,1115.68z"/>
			<g>
				<path class="st12" d="M1820.91,1104.26c0.93,0.06,1.86-0.35,2.43-1.17c1.55-2.26,3.34-3.56,5.31-3.86
					c3.4-0.52,6.57,1.94,6.6,1.97c1.18,0.93,2.89,0.73,3.82-0.44c0.93-1.17,0.75-2.87-0.42-3.81c-0.2-0.16-4.99-3.95-10.76-3.11
					c-3.54,0.52-6.58,2.59-9.04,6.17c-0.85,1.24-0.54,2.93,0.7,3.79C1819.97,1104.08,1820.44,1104.23,1820.91,1104.26z"/>
			</g>
			<g>
				<path class="st12" d="M1886.63,1108.93c0.6,0.04,1.21-0.12,1.74-0.48c1.23-0.86,1.54-2.56,0.68-3.79
					c-3.27-4.69-7.06-7.38-11.26-7.99c-5.42-0.79-9.39,2.32-9.55,2.46c-1.17,0.94-1.37,2.65-0.43,3.82
					c0.93,1.17,2.63,1.36,3.81,0.44c0.08-0.06,2.44-1.8,5.46-1.33c2.63,0.41,5.15,2.33,7.51,5.71
					C1885.07,1108.48,1885.84,1108.88,1886.63,1108.93z"/>
			</g>
			<path class="st13" d="M1847.11,1118.58c-7.67,4.78-10.09,6.8-13.03,8.36c1.51,6.66,11.53,10.58,14.5,10.03
				c-6.9-3.99-7.58-8.82-7.58-8.82L1847.11,1118.58z"/>
			<path class="st6" d="M1897.55,1111.98c-5.49,8.19-5.02,18.13,1.05,22.19c6.07,4.07,15.44,0.72,20.93-7.47
				c5.49-8.19,5.02-18.13-1.05-22.19C1912.41,1100.45,1903.04,1103.79,1897.55,1111.98z"/>
			<g>
				<path class="st13" d="M1902.96,1127.51c0.23,0.02,0.48-0.01,0.71-0.1c0.95-0.33,1.45-1.36,1.12-2.31
					c-1.09-3.15-0.95-5.61,0.4-7.32c2.09-2.64,6.65-3.2,9.91-2.87c1,0.1,1.89-0.63,1.99-1.62c0.1-1-0.63-1.89-1.62-1.99
					c-4.38-0.44-10.12,0.44-13.12,4.23c-1.49,1.89-2.88,5.29-0.98,10.76C1901.62,1127,1902.26,1127.46,1902.96,1127.51z"/>
			</g>
			<path class="st3" d="M1869.32,1146.13c0.9-1.28-0.14-3.01-1.69-2.79c-3.94,0.56-10.46,1.35-16.7,1.49
				c-6.24,0.14-12.78-0.36-16.75-0.74c-1.56-0.15-2.53,1.63-1.57,2.87c2.95,3.8,9.01,9.54,18.57,9.33
				C1860.74,1156.06,1866.54,1150.06,1869.32,1146.13z"/>
			<path class="st12" d="M1925.71,1077.37l-62.86-52.7l-71.17,34.54l7.71,50.99c2.25-23.44,16.49-15.59,24.06-22.31
				c7.67-6.81,11.16-17.61,28.7-7.66c0,0,14.58-9.62,21.69,4.48c5.49,10.9,13.29,8.99,21,9.71c9.1,0.85,6.75,9.65,12.32,9.48
				L1925.71,1077.37z"/>
		</g>
		<g>
			<g>
				<path class="st14" d="M2139.56,957.04c12.17,37.97-8.74,78.61-46.7,90.79c-37.97,12.17-78.61-8.74-90.79-46.7
					c-12.17-37.97,8.74-78.61,46.7-90.79C2086.74,898.16,2127.39,919.07,2139.56,957.04z"/>
			</g>
			<g>
				<g>
					<path class="st3" d="M2033.81,967.11c6.39-2.05,13.23,1.47,15.28,7.86c2.05,6.39-1.47,13.23-7.86,15.28
						c-6.39,2.05-13.23-1.47-15.28-7.86C2023.9,976,2027.42,969.16,2033.81,967.11z"/>
					<path class="st3" d="M2092.71,948.22c6.39-2.05,13.23,1.47,15.28,7.86c2.05,6.39-1.47,13.23-7.86,15.28
						c-6.39,2.05-13.23-1.47-15.28-7.86C2082.8,957.12,2086.32,950.27,2092.71,948.22z"/>
				</g>
			</g>
			<g>
				<path class="st3" d="M2047.19,1006.69c-0.61,0.2-1.21,0.48-1.77,0.85c-2.48,1.65-3.12,4.4-1.44,6.14
					c8.31,8.59,23.55,11.26,37.92,6.66c13.96-4.47,24.46-14.79,26.77-26.29c0.48-2.4-1.53-4.34-4.48-4.34
					c-2.96,0-5.75,1.94-6.23,4.34c-1.61,8-8.92,15.18-18.63,18.29c-10,3.21-20.6,1.34-26.38-4.63
					C2051.66,1006.35,2049.33,1006,2047.19,1006.69z"/>
			</g>
		</g>
		<path class="st6" d="M2074.22,1051.24c-3.63-1.36-5.9-2.01-6.42-7.55c-0.53-5.55-0.1-12.61-4.72-10.3
			c-4.63,2.3-7.88,13.22-7.1,17.69C2061.31,1054.3,2074.22,1051.24,2074.22,1051.24z"/>
	</g>
	<g>
		<g>
			<g>
				<g>
					<g>
						<g>
							<path class="st6" d="M963.54,1053.2c-6.22,4.3-15.03,6.74-16.46,14.04l-19.05-6.14c0.34-24.17,22.5-45.69,25-47.52
								c6.5-4.75,9.26-7.39,10.35-6.79c1.09,0.59,6.47,5.69-2.77,12.91c-11.6,9.06,2.75,14.04,22.36-10.81
								c4.91-6.22,18.74-10.36,17.22-3.1C998.52,1013.78,991.84,1033.65,963.54,1053.2z"/>
						</g>
					</g>
				</g>
			</g>
		</g>
		<path d="M767.29,1869.33c20.42,27.24,70.57,10.52,68.91,47.37c-76.26-0.47-107.96,0-107.96,0c0.1-8.46,1.61-28.55,3.37-36.41
			L767.29,1869.33z"/>
		<path d="M653.19,1870.04c20.42,27.24,70.57,10.53,68.91,47.37c-76.26-0.47-107.96,0-107.96,0c0.1-8.46,1.61-28.55,3.37-36.41
			L653.19,1870.04z"/>
		<path class="st15" d="M802.59,1453.47c0,0,12.38,174.58,7.35,213.4c-5.03,38.81-22.84,88.57-20.82,216.96
			c-24.86,6.02-60.88,0-60.88,0s-5.34-145.17,20.94-210.01c-10.69-62.98-44.98-207.24-44.98-207.24L802.59,1453.47z"/>
		<path class="st12" d="M755.54,1458.24c0,0-25,196-37.24,233.18c-12.24,37.18-26.99,64.35-49.14,190.83
			c-25.55,1.24-60.41,4.25-60.41,4.25s5.4-160.43,45.19-196.91c1.35-63.87-6.43-230.09-6.43-230.09L755.54,1458.24z"/>
		<path class="st15" d="M784.65,1195c0,0,3.81-1.66,100.15-24.96c0.03-0.01,0.06,0,0.08,0.02c0,0,36.5,27.18,36.47,27.22
			c-23.8,30.14-128.83,62.39-128.83,62.39l-7.87-64.65C784.65,1195.01,784.65,1195,784.65,1195z"/>
		<polygon class="st5" points="740.42,1193.82 705.81,1190.59 672.32,1199.93 710.05,1238.76 		"/>
		<path class="st6" d="M728.42,1211.64c-14.11,11.58-29.97,13.72-46.96,4.11l-4.5-46.08l48.79-3.85L728.42,1211.64z"/>
		<path class="st5" d="M663.43,1218.48L663.43,1218.48l10.26-4.06l-1.37-14.49l28.45,22.85l8.04,1.28l7.68-2.69l23.93-27.55
			l1.23,14.5l9.05,1.81l0,0l32.64,5.29l3.89,181.17l12.88,61.64c-43.31,14.4-91.75,18-139.37,11.44l1.6-61.88l-33.82-177.06
			L663.43,1218.48z"/>
		<polygon class="st12" points="715.07,1242.36 735.51,1380.69 724.19,1396.43 709.43,1385.08 704.41,1243.51 		"/>
		<polygon class="st12" points="716.28,1226.03 708.81,1224.06 701.19,1227.38 704.42,1243.79 715.13,1242.82 		"/>
		<g>
			<path class="st12" d="M740.42,1193.82l5.6,168.26l22.12,107.6c0,0,42.46,2.44,63.95-18.01l-26.83-87.22l-20.62-169.44
				L740.42,1193.82z"/>
			<polygon class="st16" points="740.42,1193.82 746,1359.84 771.46,1233.5 			"/>
		</g>
		<g>
			<path class="st12" d="M669.7,1205.67l44.94,270.9c0,0-70.68,6.75-95.72-5.99l16.19-81.74l-8.52-161.4L669.7,1205.67z"/>
			<polygon class="st16" points="669.7,1205.67 696.25,1364.45 648.71,1244.65 			"/>
		</g>
		<g>
			<path class="st5" d="M663.6,1625.83H521.29c-3.07,0-5.55-2.48-5.55-5.55v-81.23c0-3.06,2.48-5.55,5.55-5.55H663.6
				c3.06,0,5.55,2.48,5.55,5.55v81.23C669.15,1623.35,666.67,1625.83,663.6,1625.83z"/>
			<path class="st16" d="M662.82,1547.31c0,4.51-3.66,8.17-8.17,8.17c-4.51,0-8.16-3.65-8.16-8.17c0-4.51,3.66-8.16,8.16-8.16
				C659.16,1539.14,662.82,1542.8,662.82,1547.31z"/>
			<path class="st16" d="M652.2,1562.38c1.37-1.79,3.93-2.13,5.72-0.75c1.79,1.37,2.13,3.93,0.76,5.72
				c-1.37,1.79-3.93,2.13-5.72,0.76C651.17,1566.73,650.83,1564.16,652.2,1562.38z"/>
		</g>
		<path class="st15" d="M956.24,1063.58c-15.12-5.04-23.08-7.31-34.84-7.31c-27.8,82.84-47.61,114.05-39.35,137.83
			c6.89,19.83,28.69,18.24,39.35,3.38C935.47,1177.89,947.92,1103.44,956.24,1063.58z"/>
		<g id="c_1_">
			<path class="st6" d="M582.88,1504.36l-0.46,19.82c0,0,14.15-0.42,14.64,9.24l-13.29,0.41c0,0-8.09,10.44,3.5,30.82
				c4.62,19.96-10.01,11.52-11.01,18.15c-1.48,9.79-20.8-6.99-23.87-26.94c-3.97-25.81,1.3-28.91,1.3-28.91l5.84-19.59
				L582.88,1504.36z"/>
		</g>
		<path class="st15" d="M627.07,1227.44c-23.04,2.4-89.33,137.01-89.33,137.01l13.17,150.93l37.32-6.03l11.06-127.57l36.55-72.21
			L627.07,1227.44z"/>
		<g>
			<g>
				<g>
					<path class="st6" d="M653.71,1137.58c13.55,33.87,46.1,52.69,72.7,42.05c26.6-10.64,37.17-46.73,23.62-80.59
						c-13.55-33.86-46.1-52.69-72.7-42.04C650.73,1067.63,640.15,1103.71,653.71,1137.58z"/>
					<path d="M738.46,1110.15c1.57,2.26,4.68,2.82,6.94,1.25c2.26-1.57,2.82-4.68,1.25-6.93c-1.57-2.26-4.68-2.82-6.93-1.25
						C737.45,1104.79,736.89,1107.89,738.46,1110.15z"/>
					<path d="M701.14,1125.38c1.7,2.45,5.06,3.05,7.51,1.35c2.44-1.7,3.05-5.06,1.35-7.51c-1.7-2.45-5.06-3.05-7.51-1.35
						S699.44,1122.93,701.14,1125.38z"/>
					<path class="st13" d="M729.99,1116.91c6.74,5.31,15.16,11.72,15.16,11.72s0.09,8.12-9.4,11.64c3.43-3.12,6.45-7.26,2.87-12.04
						C735.04,1123.44,729.99,1116.91,729.99,1116.91z"/>
					<g>
						<path class="st12" d="M691.32,1122.13c1.12,0,2.14-0.77,2.42-1.91c0.07-0.27,1.74-6.74,7.29-6.77
							c1.37-0.01,2.48-1.12,2.47-2.5c-0.01-1.37-1.13-2.48-2.5-2.47c-7.58,0.04-11.23,6.94-12.1,10.59
							c-0.32,1.33,0.51,2.67,1.84,2.99C690.94,1122.11,691.13,1122.13,691.32,1122.13z"/>
					</g>
					<g>
						<path class="st12" d="M733.24,1099.61c0.71,0,1.4-0.36,1.78-1.01c0.04-0.06,1.38-2.2,3.6-2.6c1.57-0.28,3.34,0.36,5.26,1.9
							c0.89,0.71,2.2,0.57,2.91-0.32c0.71-0.89,0.57-2.2-0.32-2.91c-2.92-2.33-5.82-3.25-8.63-2.73c-4.11,0.76-6.29,4.41-6.38,4.56
							c-0.58,0.99-0.25,2.26,0.74,2.84C732.53,1099.52,732.89,1099.61,733.24,1099.61z"/>
					</g>
					<path class="st12" d="M661.68,1135.21c-0.01-13.24,11.53-10.44,12.75-27.9c1.22-17.47,2.87-30.71,19.45-27.84
						c16.57,2.87,21.89,0.66,27.22-4.97c5.33-5.63,26.16,18.34,26.16,18.34s17.92-25.69,0.28-39.73
						c-19.55-15.57-23.36-2.92-41.16-13.83c-17.8-10.91-43.39-3.52-48.58,7.35c-5.47,11.45-6.44,19.65-21.94,27.69
						c-15.5,8.04-23.24,21.4-8.77,37.97c14.47,16.57-9.35,28.61,14.94,43.89c9.42,5.92,22.65,7.41,25.25,4.01
						C670.73,1155.65,661.68,1143.74,661.68,1135.21z"/>
					<path class="st12" d="M754.55,1114.92c0,0,1.56,19.62-1.27,25.69c-2.95-7.87-9.27,0.47-15.21,1.26
						c-14.35,1.9-40.24-2.89-42.81,18.64c-17.54,5.55-33.96-31.99-33.96-31.99c-2.19,43.83,29.68,65.75,73.85,58.78
						C764.25,1182.7,766.95,1142.18,754.55,1114.92z"/>
					<path class="st3" d="M746.42,1153.11c0.73-1.19-0.31-2.68-1.68-2.39c-3.48,0.73-9.25,1.83-14.8,2.32
						c-5.55,0.5-11.42,0.44-14.98,0.34c-1.4-0.04-2.16,1.6-1.23,2.65c2.86,3.22,8.6,7.97,17.12,7.21
						C739.36,1162.48,744.17,1156.78,746.42,1153.11z"/>
					<g>
						<path class="st6" d="M662.4,1130.69c8.01,3.81,11.97,12.22,8.85,18.77c-3.12,6.55-12.14,8.77-20.15,4.96
							c-8.01-3.81-11.97-12.22-8.85-18.77C645.37,1129.09,654.4,1126.87,662.4,1130.69z"/>
						<g>
							<path class="st13" d="M662.5,1149.68c0.23-0.18,0.42-0.42,0.55-0.7c1.86-4.07,1.24-8.05-1.65-10.64
								c-2.96-2.66-7.48-3.17-10.75-1.23c-0.92,0.55-1.22,1.74-0.68,2.66c0.55,0.92,1.74,1.22,2.66,0.68
								c1.79-1.07,4.51-0.72,6.18,0.78c1.61,1.44,1.86,3.63,0.71,6.15c-0.44,0.97-0.01,2.12,0.96,2.57
								C661.17,1150.25,661.95,1150.12,662.5,1149.68z"/>
						</g>
					</g>
				</g>
			</g>
		</g>
		<path class="st3" d="M708.81,1224.06c0,0-7.34,12.62-21.43,20.48l-20.36-33.88l5.3-10.72L708.81,1224.06z"/>
		<path class="st3" d="M708.81,1224.06c0,0,12.88,13.01,24.73,16.34l14.13-37.31l-7.25-9.27L708.81,1224.06z"/>
	</g>
	<g>
		<path class="st13" d="M373.5,1216.06c33.18,8.28,89.88,85.8,95.19,143.92c-18.2,3.77-39-10.74-39-10.74l-45.07-64.83
			L373.5,1216.06z"/>
		<path class="st15" d="M341.84,1048.39c-15.23-25.06-55.08-37.59-69.45-9.62c-14.36,27.97-18.27,48.26-53.8,32.81
			c-28.3-12.31-66.27,5.16-78.47,46.62c-15.6,53.04,27.23,43.22,11,66.91c-16.23,23.69-29.54,48.65,8.12,60.67
			c37.66,12.02,76.45-11.06,84.71-55.48c8.25-44.42,31.2-20.47,45.51-39.43C309.81,1123.91,341.84,1048.39,341.84,1048.39z"/>
		<g>
			<path class="st6" d="M405.58,1881.06l17.77-69.99l-44.09-6.07c-1.51,33.1-3.99,65.69-3.77,74.51L405.58,1881.06z"/>
			<path class="st6" d="M300.38,1804.6h-46.03c1.51,11.03,7.55,70.76,7.55,70.76c3.89,8.83,38.19,6.81,38.19,1.85
				C297.5,1866.45,300.17,1805.98,300.38,1804.6z"/>
			<path class="st11" d="M375.65,1831.95l45.4,6.7l31.48-188.24c-6.48-71.44-69.37-223.42-69.37-223.42l-70.88,24.82l-1.73,67.03
				l85.36,144.53C384.78,1691.33,377.17,1781.7,375.65,1831.95z"/>
			<path class="st10" d="M340.57,1432.04c-0.65-4.41-0.87-5.79-4.54-8l-68.07-19.31l-16.21,16c-15.34,55.72-5.84,133.22,6.27,194.73
				c-17.72,53.23-10.79,162.97-3.66,214.55h48.41c2.81-34.48,1.93-98.43,2.14-129.33l0,0c6.27-24.82,12.32-51.3,17.72-79.16
				c6.92-35.58,15.56-70.06,17.94-102.33C342.73,1488.58,343.37,1455.76,340.57,1432.04z"/>
		</g>
		<path class="st6" d="M285.71,1116.76c-8.59,35.99,7.36,70.64,35.63,77.38c28.27,6.75,58.15-16.96,66.74-52.95
			c8.59-35.99-7.36-70.64-35.63-77.38C324.18,1057.07,294.3,1080.77,285.71,1116.76z"/>
		<path class="st6" d="M254.7,1207.57c-15.79,10.36-81.83,96.27-47.84,167.99c0.45,0.96,1.32,0.82,1.81,1.78
			c1.72,0.96,31.24-48.71,31.24-48.71l35.14-69.57L254.7,1207.57z"/>
		<path class="st6" d="M288.56,1161.92l42.26,24c0,0,3.75,17.11,5.62,22.66c3.86,11.46-10.94,16.46-23.45,9.33
			c-12.51-7.13-20.61-16.67-20.61-16.67L288.56,1161.92z"/>
		<path class="st12" d="M392.19,1129.89c-9.61-3.17-14.06-17.9-18.09-29.23c-20.14,40.49-94.4,34.71-97.54,26.73
			c-6.51-47.17,14.13-81.49,64.87-79.95C411.01,1049.55,392.19,1129.89,392.19,1129.89z"/>
		<path d="M372.76,1147.51c0.91,2.64,3.79,4.04,6.43,3.12c2.64-0.91,4.03-3.79,3.12-6.43c-0.91-2.64-3.79-4.03-6.43-3.12
			C373.24,1141.99,371.84,1144.87,372.76,1147.51z"/>
		<path d="M336.26,1137.16c0.99,2.85,4.11,4.37,6.96,3.38c2.85-0.99,4.37-4.11,3.38-6.96c-0.99-2.86-4.11-4.37-6.96-3.38
			C336.78,1131.18,335.27,1134.3,336.26,1137.16z"/>
		<g>
			<path class="st12" d="M386.53,1137.54c0.2-0.04,0.4-0.11,0.58-0.22c0.91-0.53,1.22-1.69,0.7-2.6
				c-4.08-7.06-11.61-6.66-11.93-6.64c-1.05,0.07-1.84,0.97-1.78,2.02c0.07,1.05,0.97,1.84,2.01,1.78c0.25-0.01,5.53-0.22,8.4,4.75
				C384.93,1137.35,385.75,1137.69,386.53,1137.54z"/>
		</g>
		<path class="st13" d="M362.63,1150.63c0.86,3.88,1.38,7.66,2.75,10.48c0.46,0.95,0.08,2.11-0.84,2.62
			c-3.82,2.1-10.77,1.47-14.88,0.84c-0.6-0.09-0.61-0.96-0.01-1.06c5.07-0.85,7.79-2.09,9.11-2.89c0.65-0.4,1.07-1.08,1.13-1.84
			c0.15-1.75,0.49-5.29,0.97-8.1C361.04,1149.7,362.42,1149.67,362.63,1150.63z"/>
		<path class="st6" d="M295.75,1134.19c4.51,7.44,3.22,16.47-2.87,20.16c-6.09,3.69-14.68,0.64-19.19-6.8
			c-4.51-7.44-3.22-16.47,2.87-20.16C282.65,1123.7,291.24,1126.75,295.75,1134.19z"/>
		<g>
			<path class="st13" d="M288.37,1148.02c0.27-0.09,0.52-0.25,0.74-0.47c3.06-3.14,3.82-7.02,2.01-10.37
				c-1.85-3.43-5.85-5.41-9.52-4.71c-1.03,0.2-1.71,1.2-1.51,2.23c0.2,1.03,1.2,1.71,2.23,1.51c2.01-0.39,4.4,0.83,5.45,2.77
				c1.01,1.87,0.51,3.97-1.38,5.91c-0.73,0.75-0.72,1.96,0.03,2.69C286.95,1148.1,287.71,1148.25,288.37,1148.02z"/>
		</g>
		<path class="st8" d="M393.67,1438.12c0,0-17.44,20.65-20.38,22.2l-15.62-17.05l-0.11,0.29l-3.7,9.76l-4.33,11.4
			c-3.62,0-112.53-24.39-112.53-24.39c0.22-9.82,9.45-41.62,24.39-75.47c-3.62-28.68-0.14-58.48-1.27-75.01
			c8.79-44.34,2.52-61.37-5.42-82.26l27.63-8.16l49.74,17.54l3.69-11.99c0,0,31.18,7.48,37.74,11.1l11.78,49.17l-2.55,104.46
			C382.73,1369.7,386.65,1411.76,393.67,1438.12z"/>
		<path class="st7" d="M291.67,1193.88l-19.22,8.28c2.06,23.4,54.42,37.38,54.42,37.38l5.2-22.58L291.67,1193.88z"/>
		<path class="st7" d="M332.06,1216.96l15.42,17.13c0,0,13.33-13.79,8.51-22.31c-4.82-8.52-22.5-14.27-22.5-14.27L332.06,1216.96z"
			/>
		<g>
			<path class="st13" d="M344.02,1183.1c-1.22-0.16-2.41-0.43-3.58-0.82c-8.63-2.85-12.63-10.92-12.8-11.26
				c-0.51-1.06-0.07-2.33,0.98-2.84c1.06-0.51,2.33-0.07,2.84,0.98l0,0c0.03,0.07,3.43,6.83,10.35,9.09
				c4.51,1.47,9.6,0.75,15.14-2.14c1.04-0.55,2.33-0.14,2.87,0.9c0.54,1.04,0.14,2.33-0.9,2.87
				C353.68,1182.63,348.68,1183.71,344.02,1183.1z"/>
		</g>
		<g>
			<path class="st12" d="M394.86,1879.93c4.61-12.1,14.47-13.45,14.47-13.45c19.16,25.55,66.21,9.87,64.65,44.44
				c-71.54-0.44-101.28,0-101.28,0c0.09-7.94,1.51-26.78,3.16-34.16l3.73,0.66L394.86,1879.93z"/>
			<path class="st3" d="M469.83,1920.14h-92.96c-2.31,0-4.18-1.87-4.18-4.18v-6h101.32v6
				C474.01,1918.27,472.14,1920.14,469.83,1920.14z"/>
		</g>
		<g>
			<path class="st7" d="M357.56,1443.55l-3.7,9.76c-3.36-22.45-15.88-116.4-8.82-142.34c6.63-24.36-1.66-50.05-9.69-74.89
				c-1.95-6.07-3.99-12.35-5.73-18.43l2.44-0.7l2.43-0.7c1.72,6,3.73,12.24,5.68,18.27c8.25,25.55,16.77,51.96,9.75,77.78
				C343.83,1334.7,353.17,1411.82,357.56,1443.55z"/>
		</g>
		<g>
			<path class="st12" d="M308.3,1911.25c0,0-5.74-21.43-6.25-24.18c-0.58-3.13-2.26-10.53-2.61-14.32
				c-0.08-0.94-9.95-6.97-17.48-6.95c-10.2,0.02-19.5,5.92-19.68,7.04c-1.2,7.15-1.24,15.56-3.19,22.52
				c-1.45,5.18-5.39,17.25-5.39,17.25L308.3,1911.25z"/>
			<g>
				<g>
					<g>
						<g>
							<path class="st3" d="M308.29,1909.58c-1.34,4.25-17.85-0.65-29.9-0.65c-10.12,0-23.21,3.92-24.7,2.4
								c-2.53,4.47-0.45,13.73-0.45,13.73s10.54,0.54,23.19,0c12.65-0.54,27.26,0.26,32.76-1.37
								C312.68,1917.88,308.29,1909.58,308.29,1909.58z"/>
						</g>
					</g>
				</g>
			</g>
		</g>
		<g>
			<path class="st6" d="M329.43,1305.92c0,0-78.8,79-115.66,73.7c-4.83-0.69-6.35-1.45-7.65-6.28
				c-4.31-15.99,16.98-41.59,37.04-50.76c22.11-10.11,59.23-26.04,59.23-26.04L329.43,1305.92z"/>
			<path class="st17" d="M345.94,1276.24l36.21-27.94c0.79-0.6,1.79-0.85,2.77-0.68l24.67,4.47c0.7,0.12,2.15,4.42,1.58,4.85
				l-24.62,14.8c-0.12,0.09-0.26,0.14-0.4,0.16l-38.72,6.64C346.6,1278.64,345.28,1276.74,345.94,1276.24z"/>
			<path class="st18" d="M347.8,1278.92l34.44-26.29c0.79-0.6,1.79-0.85,2.77-0.68l25.49,4.31c0.7,0.12,0.93,1.02,0.36,1.45
				l-24.22,18.37c-0.12,0.09-0.26,0.15-0.4,0.16l-37.84,4.14C347.57,1280.47,347.15,1279.42,347.8,1278.92z"/>
			<path class="st6" d="M301.45,1297.02l20.35-10.19c0,0,12.9-14.04,16.94-18.24c5.15-1.5,15.18-5.83,17.23-5.68
				c2.05,0.15,5.5,1.36,5.5,1.36l-11.78,9.22c0,0,4.8,2.22,11.53-0.48c6.73-2.7,19.29-10.95,24.12-7.99
				c1.54,1.98,1.54,1.98,1.54,1.98s4.25-3.29,6.8-1.01c7.89,7.04-43.03,37.39-43.03,37.39l-21.21,2.54L301.45,1297.02z"/>
			<path class="st17" d="M385.99,1258.28c-1.43,0.98-3.21,0.88-3.97-0.23c-0.76-1.11-0.21-2.8,1.22-3.78
				c1.43-0.98,3.21-0.88,3.97,0.23C387.97,1255.6,387.43,1257.29,385.99,1258.28z"/>
		</g>
		<path class="st13" d="M468.69,1359.98c0,0-45.18,51.66-76.63,58.96c-1.87-10.35-3.59-18.28-3.59-18.28l42.87-56.44L468.69,1359.98
			z"/>
		<path id="c_4748_" class="st13" d="M386.35,1421.79c0.15-0.44,0.38-0.83,0.65-1.2c-0.08-0.02-0.15-0.04-0.23-0.07
			c-4.46-1.48-7.22-5.28-6.15-8.48c0.17-0.53,0.45-1,0.79-1.42c-2.37-1.83-3.56-4.42-2.8-6.7c0.3-0.91,0.89-1.66,1.66-2.26
			c-2.48-1.68-3.76-4.48-2.9-7.04c1.06-3.2,5.02-4.77,8.83-3.51c3.81,1.26,6.04,4.88,4.97,8.09c-0.27,0.81-0.73,1.52-1.32,2.1
			c3.72,1.72,5.89,5.09,4.93,7.99c-0.17,0.53-0.45,1-0.79,1.42c2.37,1.83,3.56,4.42,2.8,6.71c-0.28,0.84-0.8,1.55-1.49,2.13
			c2.27,1.39,3.46,3.87,2.72,6.12c-0.9,2.71-4.24,4.03-7.45,2.96C387.33,1427.55,385.45,1424.49,386.35,1421.79z"/>
	</g>
	<g id="c_4682_">
		<g>
			<polygon id="v-2_2_" class="st6" points="2957.87,1159.35 2957.84,1159.35 2934.76,1159.44 2929.54,1213.95 2956.48,1228.17 
				2985.21,1214.11 2980.56,1159.44 			"/>
			<g>
				<g>
					<path class="st6" d="M3026.56,1128.52c-15.8,39.48-53.75,61.43-84.76,49.02c-31.01-12.41-43.34-54.48-27.54-93.96
						s53.75-61.43,84.76-49.02C3030.04,1046.97,3042.37,1089.04,3026.56,1128.52z"/>
					<path d="M2927.75,1096.54c-1.83,2.63-5.45,3.28-8.09,1.45c-2.63-1.83-3.28-5.45-1.45-8.09c1.83-2.63,5.45-3.28,8.08-1.45
						C2928.93,1090.29,2929.58,1093.9,2927.75,1096.54z"/>
					<path d="M2971.26,1114.3c-1.98,2.85-5.9,3.55-8.75,1.57c-2.85-1.98-3.55-5.9-1.57-8.75c1.98-2.85,5.9-3.55,8.75-1.57
						C2972.54,1107.53,2973.24,1111.45,2971.26,1114.3z"/>
					<path class="st13" d="M2936.57,1105.81c-7.85,6.19-17.67,13.66-17.67,13.66s-0.1,9.47,10.96,13.57
						c-4-3.63-7.52-8.46-3.35-14.04C2930.68,1113.42,2936.57,1105.81,2936.57,1105.81z"/>
					<g>
						<path class="st15" d="M2982.71,1110.51c0.22,0,0.45-0.03,0.67-0.08c1.56-0.37,2.52-1.93,2.15-3.49
							c-1.01-4.25-5.27-12.3-14.11-12.34c-1.61,0.02-2.9,1.28-2.91,2.88s1.28,2.9,2.88,2.91c6.54,0.03,8.48,7.81,8.5,7.89
							C2980.21,1109.62,2981.39,1110.51,2982.71,1110.51z"/>
					</g>
					<g>
						<path class="st15" d="M2933.83,1084.25c0.42,0,0.84-0.11,1.22-0.33c1.15-0.67,1.54-2.15,0.86-3.3
							c-0.11-0.18-2.65-4.43-7.44-5.32c-3.28-0.61-6.66,0.47-10.07,3.19c-1.04,0.83-1.21,2.35-0.38,3.39
							c0.83,1.04,2.35,1.21,3.4,0.38c2.26-1.81,4.33-2.55,6.17-2.21c2.61,0.48,4.14,2.99,4.15,3.01
							C2932.2,1083.82,2933,1084.25,2933.83,1084.25z"/>
					</g>
					<path class="st15" d="M3061.5,1112.86c9.89-39.1-23.09-69.66-23.09-69.66s4.28-0.43,8.84-2.38c6.15-2.63,4.13-11.83-2.55-11.75
						c-8.1,0.1-17.75-1.38-24.84-6.7c-44.69-33.52-81.02-15.54-81.02,3.03c0,6.61-40.89,10.98-26.01,62
						c-0.88-3.02,16.15-33.6,25.82-35.42c9.71-1.83,0.94,11.11,21.16,13.88c20.4,2.8,35.41-2.15,47.87,9.35
						c23.15,23.8,0.47,81.05-1.01,84.13C3010.07,1152.31,3050.52,1156.28,3061.5,1112.86z"/>
					<g>
						<path class="st6" d="M3010.7,1120.12c-8.72,4.9-12.54,14.65-8.53,21.79c4.01,7.14,14.33,8.95,23.04,4.05
							c8.72-4.9,12.54-14.65,8.53-21.79C3029.74,1117.04,3019.42,1115.22,3010.7,1120.12z"/>
						<g>
							<path class="st13" d="M3012.03,1141.5c-0.27-0.19-0.5-0.44-0.67-0.75c-2.4-4.44-2-8.96,1.05-12.1c3.13-3.21,8.18-4.14,12-2.2
								c1.08,0.55,1.51,1.86,0.96,2.94c-0.54,1.08-1.86,1.51-2.94,0.96c-2.1-1.06-5.13-0.47-6.9,1.35c-1.7,1.75-1.82,4.22-0.34,6.97
								c0.57,1.06,0.18,2.39-0.88,2.96C3013.57,1142.04,3012.69,1141.96,3012.03,1141.5z"/>
						</g>
					</g>
					<g>
						<path class="st13" d="M2944,1153.28c3.35-0.8,6.84-2.17,10.46-4.1c0.94-0.5,1.3-1.67,0.79-2.62c-0.5-0.94-1.67-1.3-2.62-0.79
							c-8.02,4.29-15.21,5.51-21.37,3.63c-7.62-2.32-11.09-8.74-11.13-8.8c-0.5-0.94-1.67-1.3-2.61-0.81
							c-0.94,0.5-1.31,1.66-0.81,2.6c0.17,0.32,4.19,7.86,13.35,10.69C2934.37,1154.4,2939.03,1154.46,2944,1153.28z"/>
					</g>
				</g>
			</g>
		</g>
		<path d="M2915.76,1872.46c-20.41,28.15-70.52,10.88-68.86,48.96c76.2-0.49,107.87,0,107.87,0c-0.1-8.75-1.61-29.5-3.36-37.63
			L2915.76,1872.46z"/>
		<path d="M3035.93,1872.46c-20.41,28.15-70.52,10.88-68.86,48.96c76.2-0.49,107.88,0,107.88,0c-0.1-8.75-1.61-29.5-3.37-37.63
			L3035.93,1872.46z"/>
		<path class="st15" d="M2881.06,1442.04c0,0-22.1,186.95-17.07,227.07c5.03,40.12,32.55,85.05,30.53,217.74
			c24.84,6.22,60.83,0,60.83,0s5.34-150.04-20.92-217.06c10.68-65.1,44.94-214.2,44.94-214.2L2881.06,1442.04z"/>
		<path class="st12" d="M2927.5,1447.58c0,0,24.98,202.58,37.21,241.01s30.8,66.8,52.94,197.52c25.53,1.28,54.58,4.12,54.58,4.12
			s-3.45-165.81-43.21-203.52c-1.35-66.01,6.43-237.82,6.43-237.82L2927.5,1447.58z"/>
		<g id="v_62_">
			<path id="h-5_2_" class="st8" d="M3047.83,1210.71c0,0-49.97-1.67-64.02-0.8c-29.33,26.48-54.26-0.48-54.26-0.48
				c-15.77-3.5-53.02-3.5-53.02-3.5c-4.72,62.93-12.53,264.18-12.53,264.18s47.84,12.54,93.09,12.87
				c45.25-0.29,106.27-10.77,106.27-10.77s-8.89-88.47-10.9-121.16C3053.11,1314.4,3047.83,1259.01,3047.83,1210.71z"/>
		</g>
		<g>
			<g>
				<path class="st18" d="M2690.1,1237.7c0.76-3.79,2.37-7.17,4.54-10.11c16.66-30.61,63.75-18.75,131.73-6.87
					c11.37,1.99,7.54-12.6,9.39-42.58c1.2-19.5,19.3-46.21,39.97-42.09c34.08,6.79-4.04,27.02,12.92,99.21
					c9.06,38.57,48.99,25.93,41.92,61.45l-16.1,80.86c-2.75,13.83-6.76,26.85-26.73,25.14c-19.36-1.65-17.78,12.63-45.09,7.19
					l-136.72-27.23c-13.93-2.77-23.01-16.31-20.25-30.18c1.14-5.75,4.21-10.58,8.32-14.17c-6.87-5.85-10.55-15.04-8.68-24.46
					c1.14-5.73,4.2-10.57,8.3-14.15c-6.9-5.84-10.59-15.04-8.71-24.49c1.37-6.86,5.39-12.52,10.79-16.17
					C2690.88,1253.31,2688.53,1245.59,2690.1,1237.7L2690.1,1237.7z"/>
				<path class="st19" d="M2775.53,1280.86l-65.19-12.98c-8.87-1.77-16.24-8.15-19.26-16.64c-1.24-3.5,0.6-7.35,4.13-8.58
					c3.51-1.24,7.38,0.62,8.62,4.12c1.42,4.04,4.94,7.06,9.15,7.9l66.75,13.3c6.61,1.32,13.06-2.97,14.37-9.55
					c1.31-6.59-3-13.01-9.62-14.33l-44.61-8.88c-3.66-0.73-6.04-4.28-5.32-7.92c0.73-3.64,4.29-6.01,7.94-5.28l44.61,8.88
					c13.93,2.77,23.01,16.31,20.25,30.17c-1.54,7.73-6.5,13.86-12.95,17.37c3.75,5.49,5.39,12.41,4,19.41
					c-1.54,7.75-6.53,13.9-13.01,17.4c3.72,5.48,5.34,12.36,3.95,19.35c-1.68,8.45-7.4,15.06-14.75,18.34
					c3.09,5.23,4.42,11.52,3.14,17.91c-2.76,13.86-16.33,22.89-30.26,20.11l-41.55-8.27c-8.86-1.77-16.25-8.14-19.27-16.64
					c-1.25-3.5,0.6-7.35,4.11-8.58c3.52-1.22,7.39,0.61,8.63,4.11c1.44,4.04,4.96,7.07,9.16,7.91l41.55,8.27
					c6.62,1.32,13.06-2.97,14.37-9.55c1.31-6.59-3-13.01-9.62-14.33l-49.29-9.82c-8.87-1.77-16.26-8.15-19.27-16.64
					c-1.25-3.51,0.6-7.36,4.11-8.58c3.55-1.26,7.39,0.61,8.63,4.11c1.46,4.11,4.89,7.07,9.16,7.92l53.52,10.66
					c6.62,1.32,13.06-2.98,14.37-9.56c1.31-6.58-3-13.01-9.62-14.33l-61.3-12.21c-8.87-1.77-16.25-8.14-19.27-16.64
					c-1.25-3.5,0.6-7.35,4.11-8.58c3.53-1.23,7.39,0.61,8.63,4.11c1.46,4.1,4.89,7.06,9.16,7.91l62.98,12.54
					c6.61,1.32,13.06-2.97,14.37-9.55C2786.46,1288.61,2782.15,1282.17,2775.53,1280.86L2775.53,1280.86z"/>
			</g>
			<path class="st14" d="M2905.37,1412.58l42.57,8.48c5.9,1.17,11.63-2.65,12.8-8.55l25.19-126.5c1.17-5.9-2.65-11.63-8.55-12.8
				l-42.57-8.48c-5.9-1.17-11.63,2.65-12.8,8.55l-25.19,126.5C2895.65,1405.67,2899.47,1411.4,2905.37,1412.58z"/>
		</g>
		<g>
			<g>
				<g>
					<g>
						<g>
							<g>
								<path class="st6" d="M2868.49,1427.79c9.05-0.72,19.1-5.12,25.97,0.58l13.08-20.16c-18.65-22.24-55.59-25.48-59.31-25.29
									c-9.66,0.5-14.23,0.14-14.79,1.52c-0.57,1.38-1.71,10.21,12.37,9.92c17.67-0.36,8.09,15.15-29.02,6.89
									c-9.29-2.07-25.3,4.57-18.38,10.17C2806.03,1417.61,2827.31,1431.04,2868.49,1427.79z"/>
							</g>
						</g>
					</g>
				</g>
			</g>
			<path class="st6" d="M3054.19,1386.63c13.58,5.73,18.57,50.07,14.45,53.16c-61.22,19.6-176.98-12.16-176.98-12.16l-8.57-22.44
				C2883.08,1405.19,2974.33,1403.16,3054.19,1386.63z"/>
			<path class="st6" d="M3084.26,1257.16c6.28,40.13-5.44,172.06-15.63,182.63l-45.37-35.75c0,0-4.61-133.63-4.56-156.33
				C3018.7,1208.4,3074.14,1191.62,3084.26,1257.16z"/>
		</g>
		<path id="c_4_" class="st6" d="M2714.2,1220.25c0.55-0.6,0.95-1.29,1.29-2.01c0.1,0.1,0.19,0.2,0.29,0.29
			c6.05,5.57,14.2,6.57,18.2,2.23c0.66-0.71,1.14-1.54,1.5-2.42c4.81,2.07,9.78,1.7,12.64-1.4c1.13-1.23,1.79-2.77,2.05-4.45
			c4.67,2.38,10.05,1.94,13.24-1.53c4-4.34,3.04-11.73-2.12-16.48c-5.17-4.76-12.6-5.09-16.6-0.75c-1.01,1.1-1.7,2.4-2.09,3.79
			c-5.79-4.24-12.79-4.7-16.41-0.77c-0.66,0.71-1.14,1.53-1.5,2.42c-4.81-2.07-9.78-1.7-12.64,1.4c-1.05,1.14-1.7,2.55-1.99,4.09
			c-4.05-2.3-8.86-2.02-11.67,1.04c-3.38,3.67-2.57,9.9,1.79,13.92C2704.55,1223.64,2710.83,1223.92,2714.2,1220.25z"/>
		<path class="st7" d="M3054.19,1386.63c13.58,5.73,18.57,50.07,14.45,53.16c-61.22,19.6-170.58-10.29-170.58-10.29l7.85-31.22
			C2905.91,1398.28,2974.33,1403.16,3054.19,1386.63z"/>
		<path class="st7" d="M3085.28,1256.29c6.67,41.02,1.35,174.25-16.64,183.5l-45.74-34.91c0,0-5.37-136.28-5.42-159.42
			C3017.3,1205.39,3074.52,1189.31,3085.28,1256.29z"/>
	</g>
	<g>
		<polygon class="st2" points="222.6,384.38 197.86,424.91 410.88,570.24 		"/>
		<polygon class="st2" points="175.89,473.55 188.79,520.03 401.4,563.54 		"/>
		<polygon class="st1" points="410.88,570.24 51.64,447.8 175.89,404.1 		"/>
		<polygon class="st1" points="222.6,384.38 410.88,570.24 300.68,351.41 		"/>
	</g>
	<g>
		<g>
			<path class="st12" d="M1461,1240.24c24.43-8.51,76.33-34.72,51.74-70.06c-24.59-35.34-35.04-20.53-25.58-63.03
				c9.46-42.49-20.46-76.33-49.43-68.17c-28.97,8.16-36.59,31.45-71.92,25.14c-35.33-6.3-65.11,26.48-52.1,55.33
				c13.01,28.85,18.55,42.73,5.91,58.49c-12.63,15.75-68.95,32.25-45.96,70.57c22.99,38.32,33.75,36.1,25.4,55.53
				c-8.35,19.42,10.17,41.84,42.74,39.17c32.57-2.68,62.16-14.66,74.5-50.86C1428.64,1256.14,1461,1240.24,1461,1240.24z"/>
			<polygon class="st6" points="1405.94,1859.65 1403.92,1880.41 1421.29,1885.68 1435.24,1870.79 1437.53,1862.22 			"/>
			<path class="st6" d="M1460.74,1440.92c0,0,26.07,168.76,19.04,241.09c-7.03,72.33-42.39,180.53-42.39,180.53h-31.72
				c0,0,0.54-13.09,1.78-56.21c1.58-55,0-100.15,24.02-128.51c-12.44-53.66-44.26-236.9-44.26-236.9H1460.74z"/>
			<path class="st6" d="M1428.53,1469.77c0,0-8.43,155.34-34.04,223.35c-65.6,44.72-125.25,66.39-164.94,82.01
				c-1.87,0.74-9.75-28.8-9.75-28.8c44.08-28.83,82.78-80.82,127.75-74.13c-7.69-49.75-15.14-177.6-15.14-177.6L1428.53,1469.77z"/>
			<path class="st6" d="M1393.34,1193.64v63.82c0,0,21.27,11.35,39.71,0c-2.84-14.18-4.52-59.36-4.52-59.36L1393.34,1193.64z"/>
			<path class="st20" d="M1355.28,1228.08h105.88c0,0,19.01,42.68,16.43,79.23c-2.58,36.55-7.22,135.98-7.22,135.98
				s-64.94-14.74-106.4-27.53c-3.3-74.99-25.56-109.18-24.03-133.54C1341.47,1257.85,1355.28,1228.08,1355.28,1228.08z"/>
			<g>
				<ellipse class="st6" cx="1412.14" cy="1137.78" rx="48.16" ry="64.74"/>
				<path class="st12" d="M1360.78,1137.78c26.59-3.4,51.31-18.21,65.27-37.36c9.02,22.38,34.26,37.36,34.26,37.36
					s18.91-42.8-15.48-65.89C1412,1049.87,1333.71,1064.92,1360.78,1137.78z"/>
				<path d="M1391.88,1151.6c-2.83,0-5.12-2.29-5.12-5.12c0-2.83,2.29-5.12,5.12-5.12c2.83,0,5.12,2.29,5.12,5.12
					C1397,1149.3,1394.71,1151.6,1391.88,1151.6z"/>
				<path d="M1432.68,1151.6c-2.83,0-5.12-2.29-5.12-5.12c0-2.83,2.29-5.12,5.12-5.12c2.83,0,5.12,2.29,5.12,5.12
					C1437.79,1149.3,1435.5,1151.6,1432.68,1151.6z"/>
				<g>
					<path class="st12" d="M1441.69,1141.87c-0.84,0-1.66-0.43-2.12-1.21c-1.26-2.13-2.8-3.41-4.55-3.8
						c-3.03-0.67-6.04,1.35-6.07,1.38c-1.12,0.76-2.65,0.49-3.41-0.63c-0.77-1.11-0.5-2.63,0.61-3.41c0.19-0.13,4.74-3.26,9.89-2.15
						c3.16,0.68,5.78,2.73,7.77,6.1c0.69,1.17,0.31,2.67-0.86,3.37C1442.55,1141.76,1442.12,1141.87,1441.69,1141.87z"/>
				</g>
				<g>
					<path class="st12" d="M1382.17,1142.11c-0.54,0-1.08-0.18-1.54-0.54c-1.06-0.85-1.23-2.4-0.38-3.46
						c3.23-4.03,6.81-6.23,10.63-6.52c4.93-0.38,8.32,2.66,8.46,2.79c1,0.92,1.07,2.47,0.16,3.47c-0.91,1-2.46,1.07-3.46,0.17
						c-0.07-0.06-2.09-1.77-4.84-1.52c-2.39,0.21-4.78,1.79-7.11,4.69C1383.61,1141.8,1382.89,1142.11,1382.17,1142.11z"/>
				</g>
				<path class="st13" d="M1417.22,1153.2c6.62,4.77,8.68,6.73,11.24,8.32c-1.76,5.91-11.03,8.85-13.67,8.16
					c6.46-3.18,7.37-7.49,7.37-7.49L1417.22,1153.2z"/>
				<path class="st6" d="M1371.18,1142.78c5.52,6.99,5.79,15.97,0.61,20.06c-5.18,4.09-13.85,1.74-19.37-5.25
					c-5.52-6.99-5.79-15.97-0.61-20.06C1356.99,1133.44,1365.66,1135.79,1371.18,1142.78z"/>
				<g>
					<path class="st13" d="M1366.33,1157.88c-0.21,0-0.43-0.04-0.64-0.13c-0.83-0.35-1.22-1.31-0.87-2.15c1.17-2.77,1.2-5,0.08-6.62
						c-1.73-2.51-5.8-3.29-8.76-3.19c-0.9,0.03-1.66-0.68-1.69-1.58c-0.03-0.9,0.68-1.66,1.58-1.69c3.97-0.13,9.09,1.01,11.57,4.6
						c1.23,1.79,2.27,4.94,0.24,9.76C1367.58,1157.5,1366.97,1157.88,1366.33,1157.88z"/>
				</g>
				<path class="st3" d="M1399.37,1178.42c-0.69-1.12,0.29-2.52,1.57-2.24c3.27,0.69,8.68,1.71,13.9,2.18
					c5.21,0.47,10.73,0.42,14.07,0.32c1.31-0.04,2.02,1.51,1.15,2.49c-2.69,3.02-8.08,7.48-16.07,6.77
					C1405.99,1187.22,1401.47,1181.87,1399.37,1178.42z"/>
			</g>
			<g>
				<path class="st12" d="M1421.71,1883.38c4.31-11.33,13.53-12.58,13.53-12.58c17.92,23.91,61.94,9.24,60.48,41.57
					c-66.94-0.42-94.75,0-94.75,0c0.09-7.43,1.41-25.05,2.96-31.96l3.49,0.62L1421.71,1883.38z"/>
				<path class="st15" d="M1491.85,1921h-86.97c-2.16,0-3.91-1.75-3.91-3.91v-5.62h94.79v5.62
					C1495.76,1919.25,1494.01,1921,1491.85,1921z"/>
			</g>
			<g>
				<polygon class="st6" points="1222.89,1744.29 1199.23,1756.34 1202.57,1773.63 1221.67,1778.87 1230.65,1774.7 				"/>
				<path class="st12" d="M1204.74,1772.95c11.68-1.43,16.94,5.92,16.94,5.92c-12.41,26.22,20.12,57.37-8.3,70.76
					c-29.96-57.66-42.92-81.36-42.92-81.36c6.42-3.29,22.15-10.13,28.78-11.94l1.05,3.28L1204.74,1772.95z"/>
				<path class="st15" d="M1204.21,1850.21l-39.39-74.67c-0.98-1.85-0.27-4.15,1.59-5.12l4.82-2.54l42.93,81.38l-4.82,2.54
					C1207.48,1852.78,1205.18,1852.07,1204.21,1850.21z"/>
			</g>
			<g>
				<g>
					<g>
						<g>
							<path class="st21" d="M1357.96,1626.86c-19.52-3.53-38.24-3.51-49.22-3.27c6.95-23.25,4.94-166.76,48.99-216.11h110.86
								c39.24,67.33,24.44,167.1,48.69,207.97c-9.47,4.58-36.03,16.05-70.8,19.55C1408.01,1638.88,1390.94,1632.82,1357.96,1626.86z
								"/>
						</g>
					</g>
				</g>
			</g>
			<path class="st10" d="M1393.34,1228.08l-26.63-2.22c0,0-33.4-70.51-46.23-93.31c-8.74-36.6,3.68-133.19,3.68-133.19l-38.81-9.22
				c0,0-17.78,117.88-11.77,151.14c1.58,8.77,49.98,111.99,49.98,111.99s16.37,28.96-5.98,174.32c31.56,7.83,53.58,8.3,53.58,8.3
				L1393.34,1228.08z"/>
			<path class="st10" d="M1430.08,1228.08l20.67,207.8c0,0,9.44,3.2,44.9-7.35c-17.17-86.79-12.17-140.04-9.74-156.72
				c0.5-3.45,1.59-6.78,3.22-9.87c7.44-14.02,31.99-61.89,54.6-124.16c-1.42-29-22.39-147.65-22.39-147.65l-36.72-1.96l11.2,139.52
				c0,0-39.3,85.68-43.93,99.88L1430.08,1228.08z"/>
		</g>
		<path class="st14" d="M1670.86,1005.64h-525.39c-30.35,0-54.96-24.6-54.96-54.96V843.52c0-30.35,24.6-54.96,54.96-54.96h525.39
			c30.35,0,54.96,24.6,54.96,54.96v107.17C1725.81,981.04,1701.21,1005.64,1670.86,1005.64z"/>
		<g>
			<path class="st18" d="M1198.15,946.64l-28.24-16.95l-28.31,16.84c-2.76,1.64-6.13-0.82-5.41-3.95l7.4-32.1l-24.76-21.72
				c-2.41-2.11-1.11-6.09,2.08-6.37l32.81-2.88l13.01-30.26c1.27-2.95,5.45-2.94,6.7,0.01l12.88,30.31l32.8,3.02
				c3.19,0.29,4.48,4.27,2.06,6.38l-24.85,21.62l7.26,32.13C1204.29,945.84,1200.9,948.29,1198.15,946.64z"/>
			<path class="st18" d="M1317.23,946.64l-28.24-16.95l-28.31,16.84c-2.76,1.64-6.13-0.82-5.41-3.95l7.4-32.1l-24.76-21.72
				c-2.41-2.11-1.11-6.09,2.08-6.37l32.81-2.88l13.01-30.26c1.27-2.95,5.45-2.94,6.7,0.01l12.88,30.31l32.8,3.02
				c3.19,0.29,4.48,4.27,2.06,6.38l-24.85,21.62l7.26,32.13C1323.36,945.84,1319.98,948.29,1317.23,946.64z"/>
			<path class="st18" d="M1436.31,946.64l-28.24-16.95l-28.31,16.84c-2.76,1.64-6.13-0.82-5.41-3.95l7.4-32.1l-24.76-21.72
				c-2.41-2.11-1.11-6.09,2.08-6.37l32.81-2.88l13.01-30.26c1.27-2.95,5.45-2.94,6.7,0.01l12.88,30.31l32.8,3.02
				c3.19,0.29,4.48,4.27,2.06,6.38l-24.85,21.62l7.26,32.13C1442.45,945.84,1439.06,948.29,1436.31,946.64z"/>
			<path class="st18" d="M1555.39,946.64l-28.24-16.95l-28.31,16.84c-2.76,1.64-6.13-0.82-5.41-3.95l7.4-32.1l-24.76-21.72
				c-2.41-2.11-1.11-6.09,2.08-6.37l32.81-2.88l13.01-30.26c1.27-2.95,5.45-2.94,6.7,0.01l12.88,30.31l32.8,3.02
				c3.19,0.29,4.48,4.27,2.06,6.38l-24.85,21.62l7.26,32.13C1561.53,945.84,1558.14,948.29,1555.39,946.64z"/>
			<path class="st18" d="M1674.47,946.64l-28.24-16.95l-28.31,16.84c-2.76,1.64-6.13-0.82-5.41-3.95l7.4-32.1l-24.76-21.72
				c-2.41-2.11-1.11-6.09,2.08-6.37l32.81-2.88l13.01-30.26c1.27-2.95,5.45-2.94,6.7,0.01l12.88,30.31l32.8,3.02
				c3.19,0.29,4.48,4.27,2.06,6.38l-24.85,21.62l7.26,32.13C1680.6,945.84,1677.22,948.29,1674.47,946.64z"/>
		</g>
	</g>
	<g>
		<path class="st14" d="M521.69,746.48H265.66c-30.21,0-54.7,24.49-54.7,54.7v102.98c0,30.21,24.49,54.7,54.7,54.7h176.6
			l-6.2,114.98c-0.48,8.82,11.59,11.8,15.27,3.77l54.43-118.74h15.94c30.21,0,54.7-24.49,54.7-54.7V801.18
			C576.39,770.97,551.9,746.48,521.69,746.48z"/>
		<path class="st3" d="M528.67,819.94H262.5c-10.33,0-18.71-8.38-18.71-18.71l0,0c0-10.33,8.38-18.71,18.71-18.71h266.17
			c10.33,0,18.71,8.37,18.71,18.71l0,0C547.37,811.57,539,819.94,528.67,819.94z"/>
		<path class="st3" d="M528.67,875.38H262.5c-10.33,0-18.71-8.37-18.71-18.71l0,0c0-10.33,8.38-18.71,18.71-18.71h266.17
			c10.33,0,18.71,8.38,18.71,18.71l0,0C547.37,867.01,539,875.38,528.67,875.38z"/>
		<path class="st3" d="M531.62,930.82h-183.8c-8.7,0-15.75-7.05-15.75-15.75v-5.9c0-8.7,7.05-15.75,15.75-15.75h183.8
			c8.7,0,15.75,7.05,15.75,15.75v5.9C547.37,923.77,540.32,930.82,531.62,930.82z"/>
	</g>
	<g>
		<g>
			<path class="st12" d="M2521.14,1061.46c-40.36-15.33-125.98,10.86-115.19,163.52s120.88,141.31,120.88,141.31
				s51.05-11.24,63.94-106.48C2603.65,1164.56,2589.02,1087.24,2521.14,1061.46z"/>
			<g>
				<path class="st6" d="M2365.19,1204.84c-3.37,9.61-33.75,14.94-36.06,12.22c-16.12-41.4,0.87-122.6,0.87-122.6l15.12-6.87
					C2345.11,1087.59,2350.39,1150.45,2365.19,1204.84z"/>
				<path class="st6" d="M2440.81,1285.54c-28.33-9.04-108.55-59.79-112.13-69.93l33.55-17.97c0,0,91.4,40.6,106.25,48.08
					C2494.21,1258.61,2487.03,1300.39,2440.81,1285.54z"/>
				<g>
					<g>
						<g>
							<g>
								<g>
									<path class="st6" d="M2311.7,1093.4c6.91,1.45,15.37,0.37,19.25,6.14l14.18-12.17c-9.03-20.69-35.88-31.21-38.7-31.88
										c-7.32-1.74-10.65-3.01-11.37-2.11c-0.72,0.91-3.51,7.24,7.05,10.12c13.26,3.61,2.71,13.08-23.16-1.23
										c-6.48-3.58-19.88-2.15-15.95,3.55C2267.33,1072.1,2280.27,1086.79,2311.7,1093.4z"/>
								</g>
							</g>
						</g>
					</g>
				</g>
			</g>
			<g>
				<g>
					<g>
						<polygon class="st6" points="2463.5,1226.18 2501.65,1219.14 2515.95,1238.17 2485.55,1300.49 2440.84,1262.54 						"/>
					</g>
				</g>
			</g>
			<g>
				<g>
					<g>
						<path class="st10" d="M2416.78,1373.43c0-24.28-21.04-60.65-10.96-85.16c7.35-19.72,19.62-52.81,34.65-58.34
							c7.09-2.61,15.23-4.67,24.07-7.11l-1.04,3.36c-0.22,4.73,0.33,13.28,7.83,13.88c19.99,1.6,30.5-24.03,30.5-24.03
							c10.78-1.03,60.23,15.22,60.21,19.28c-0.12,31.8-25.96,78.21-34.41,112.59c-3.32,37.14,4.61,56.96,4.66,61.19
							c0,0-70.21,23.46-117.36-2.5C2414.93,1406.59,2416.78,1389.83,2416.78,1373.43z"/>
					</g>
				</g>
			</g>
			<g>
				<g>
					<g>
						<path class="st6" d="M2473.14,1195.03l30.97-4.64l-2.47,28.75c0,0-13.24,18.11-20.12,18.99l-18.03-11.95L2473.14,1195.03z"/>
					</g>
				</g>
			</g>
			<g>
				<path class="st6" d="M2532.77,1153.46c-8,33.39-35.74,55.37-61.96,49.09c-26.23-6.28-41-38.44-33.01-71.83
					c8-33.39,35.74-55.37,61.96-49.09C2525.99,1087.91,2540.76,1120.07,2532.77,1153.46z"/>
				<path d="M2450.09,1139.49c-1.15,2.32-3.97,3.26-6.29,2.11c-2.32-1.16-3.26-3.97-2.11-6.29c1.16-2.32,3.97-3.26,6.29-2.11
					S2451.24,1137.17,2450.09,1139.49z"/>
				<path d="M2486.92,1148.58c-1.25,2.51-4.3,3.53-6.81,2.28c-2.51-1.25-3.53-4.3-2.28-6.81c1.25-2.51,4.3-3.53,6.81-2.28
					S2488.17,1146.07,2486.92,1148.58z"/>
				<g>
					<path class="st12" d="M2492.54,1144.38c-0.35-0.17-0.64-0.46-0.81-0.84c-2.54-5.49-9.42-6.56-9.49-6.57
						c-0.96-0.14-1.63-1.04-1.49-2s1.03-1.63,1.99-1.5c0.36,0.05,8.83,1.33,12.19,8.58c0.41,0.88,0.03,1.94-0.86,2.34
						C2493.56,1144.63,2493,1144.61,2492.54,1144.38z"/>
				</g>
				<g>
					<path class="st12" d="M2439.86,1132.7c-0.17-0.08-0.33-0.2-0.47-0.34c-0.68-0.69-0.68-1.81,0.02-2.5
						c5.38-5.32,12.02-3.11,12.3-3.02c0.92,0.32,1.41,1.32,1.09,2.24c-0.32,0.92-1.32,1.41-2.24,1.1c-0.22-0.07-4.89-1.55-8.68,2.19
						C2441.34,1132.92,2440.52,1133.02,2439.86,1132.7z"/>
				</g>
				<path class="st13" d="M2453.1,1149.69c-2.57,2.65-4.83,5.38-7.29,6.92c-0.83,0.52-1.09,1.62-0.61,2.48
					c1.98,3.52,7.78,6.42,11.33,7.93c0.52,0.22,0.94-0.46,0.52-0.83c-3.59-3.14-5.13-5.46-5.77-6.73c-0.32-0.63-0.31-1.38,0.01-2.01
					c0.73-1.45,2.2-4.41,3.19-6.87C2454.82,1149.73,2453.74,1149.04,2453.1,1149.69z"/>
				<path class="st6" d="M2520.15,1153.67c-6.37,4.96-8.25,13.21-4.19,18.42c4.06,5.21,12.51,5.42,18.89,0.46
					c6.37-4.96,8.25-13.21,4.19-18.42C2534.98,1148.92,2526.52,1148.72,2520.15,1153.67z"/>
				<g>
					<path class="st13" d="M2523.78,1170.58c-0.24-0.12-0.45-0.29-0.62-0.52c-2.45-3.26-2.68-6.91-0.62-9.79
						c2.11-2.94,6.03-4.29,9.32-3.2c0.93,0.31,1.43,1.3,1.12,2.23s-1.3,1.43-2.23,1.12c-1.8-0.6-4.15,0.24-5.34,1.91
						c-1.15,1.6-0.95,3.59,0.57,5.6c0.59,0.78,0.43,1.88-0.35,2.47C2525.07,1170.83,2524.36,1170.87,2523.78,1170.58z"/>
				</g>
				<path class="st3" d="M2482.1,1176.31c0.74-1-0.06-2.39-1.29-2.24c-3.13,0.37-8.31,0.88-13.25,0.88
					c-4.94,0-10.12-0.51-13.25-0.88c-1.23-0.15-2.03,1.24-1.29,2.24c2.27,3.07,6.97,7.72,14.54,7.72S2479.82,1179.38,2482.1,1176.31
					z"/>
			</g>
			<path class="st12" d="M2533.42,1150.51c-31.3-4.19-75.1-36.08-78.69-52.45c6.05-19.66,38.31-29.54,56.53-20.43
				C2529.47,1086.73,2546.68,1125.77,2533.42,1150.51z"/>
			<g>
				<path class="st6" d="M2444.15,1845.96c2.07-20.68-8.6-178.1-8.6-178.1c-30.18-138.39-18.33-237.45-18.33-237.45l51.87,3.64
					l20.45,78.2l-9.7,130.6c0,0,3.64,10.05,5.56,18.09c10.42,43.59,0.04,95.69-6.37,130.42c-2.97,16.09-7.59,49.91-7.71,57.6
					l13.03,16.85c0,0-47.17,52.2-54.42,52.53c-14.1,0.64-9.95-13.33-9.95-13.33C2439.37,1885.11,2443.55,1851.88,2444.15,1845.96z"
					/>
				<path class="st15" d="M2485.16,1884.31l-2.59,33.54l-6.03,0.27l-3.05-31.14c-16.04,4.1-27.54,33.21-27.54,33.21
					c-11.05,3.96-39.14,6.68-49.14,1.53c-2.41-9.8,23.22-16.67,23.22-16.67c2.32,2.74,16,4.84,20.86,1.91
					c17.89-15.24,26.62-37.39,30.43-57.99C2471.32,1848.97,2499.59,1850.94,2485.16,1884.31z"/>
			</g>
			<g>
				<path class="st6" d="M2461.69,1440.48l73.08-10.07c27.96,63.25,37.07,173.37,44.66,212.6c30.46,51.08,40.13,205.96,40.13,205.96
					l13.03,16.85c0,0-47.17,52.2-54.42,52.53c-14.1,0.64-9.95-13.33-9.95-13.33c19.39-19.91,23.17-46.35,24.42-52.17
					c1.89-8.75-59.15-180.57-59.15-180.57l-6.52-16.3c-74.55-123.13-86.78-216.22-86.78-216.22L2461.69,1440.48z"/>
				<path class="st15" d="M2633.4,1884.31l-2.6,33.54l-6.03,0.27l-3.05-31.14c-16.04,4.1-27.54,33.21-27.54,33.21
					c-11.05,3.96-39.14,6.68-49.14,1.53c-2.41-9.8,23.22-16.67,23.22-16.67c2.32,2.74,16,4.84,20.86,1.91
					c17.89-15.24,26.62-37.39,30.43-57.99C2619.56,1848.97,2647.83,1850.94,2633.4,1884.31z"/>
			</g>
			<g>
				<g>
					<g>
						<g>
							<path class="st10" d="M2597.55,1635.82c-7.3-24.42-4.28-196.52-68.7-244.05l-110.71,9.01
								c-25.62,41.47-16.22,149.38-7.59,238.19C2462.67,1657.58,2504.11,1665.05,2597.55,1635.82z"/>
						</g>
					</g>
				</g>
			</g>
			<g>
				<g>
					<g>
						<g>
							<g>
								<g>
									<path class="st6" d="M2279.18,1242.18c7.05,0.43,15.26-1.87,19.94,3.26l12.26-14.1c-11.95-19.15-40.05-25.64-42.93-25.9
										c-7.49-0.66-10.97-1.43-11.56-0.43c-0.58,1-2.42,7.67,8.45,8.98c13.64,1.64,4.59,12.55-23.1,2.16
										c-6.93-2.6-19.97,0.78-15.26,5.84C2232.18,1227.57,2247.11,1240.22,2279.18,1242.18z"/>
								</g>
							</g>
						</g>
					</g>
				</g>
				<g>
					<path class="st6" d="M2421.6,1283.91c6.58,9.38-8.45,40.66-12.44,40.99c-48.43-12.37-111.59-81.11-111.59-81.11l3.62-18.33
						C2301.19,1225.47,2362.15,1261.81,2421.6,1283.91z"/>
					<path class="st6" d="M2551.81,1285.16c-29.11,16.49-132.32,43.98-143.43,39.19l10.79-41.45c0,0,103.38-44.48,120.89-51.03
						C2570.36,1220.47,2599.39,1258.33,2551.81,1285.16z"/>
				</g>
			</g>
		</g>
		<g>
			<path class="st20" d="M2174.48,694.11c11.85-60.68,65.97-40.91,74.75-7.98c12.2,35.36-17.27,108.67-20.63,105.06
				C2065.14,772.05,2115.55,664.05,2174.48,694.11z"/>
		</g>
		<g>
			<path class="st20" d="M2368.12,841.21c39.88-10.93,44.11,27.38,26.99,42.42c-17.57,17.81-70.25,21.93-69.08,18.84
				C2288.94,798.84,2368.63,796.96,2368.12,841.21z"/>
		</g>
		<g>
			<path class="st12" d="M2290.46,1206.33c-0.73,0-1.46-0.16-2.16-0.49c-5.85-2.81-14.99-7.57-25.33-14.26
				c-2.32-1.5-2.98-4.6-1.48-6.91c1.5-2.32,4.59-2.98,6.91-1.48c9.91,6.41,18.65,10.95,24.24,13.64c2.49,1.2,3.54,4.18,2.34,6.67
				C2294.11,1205.28,2292.33,1206.33,2290.46,1206.33z M2242.87,1175.43c-1.15,0-2.31-0.39-3.25-1.2
				c-7.7-6.58-14.63-13.56-20.61-20.72c-1.77-2.12-1.48-5.27,0.64-7.04c2.12-1.77,5.27-1.49,7.04,0.64
				c5.62,6.74,12.16,13.31,19.43,19.53c2.1,1.79,2.34,4.95,0.55,7.05C2245.69,1174.84,2244.28,1175.43,2242.87,1175.43z
				 M2207.05,1131.78c-1.81,0-3.55-0.98-4.44-2.69c-4.01-7.71-7.12-15.73-9.25-23.82c-0.38-1.43-0.68-2.88-0.9-4.29
				c-0.43-2.73,1.43-5.29,4.15-5.72c2.73-0.43,5.29,1.43,5.72,4.15c0.17,1.09,0.41,2.21,0.7,3.32c1.94,7.38,4.78,14.69,8.45,21.75
				c1.28,2.45,0.32,5.47-2.13,6.74C2208.61,1131.6,2207.83,1131.78,2207.05,1131.78z M2204.15,1078.47c-0.99,0-1.99-0.29-2.86-0.9
				c-2.26-1.58-2.81-4.7-1.23-6.96c4.79-6.85,11.82-13.65,21.49-20.78c2.22-1.64,5.35-1.17,6.99,1.06c1.64,2.22,1.17,5.35-1.06,6.99
				c-8.78,6.48-15.07,12.51-19.23,18.46C2207.28,1077.73,2205.73,1078.47,2204.15,1078.47z M2248.36,1043.35
				c-1.7,0-3.35-0.87-4.29-2.43c-1.42-2.37-0.65-5.44,1.72-6.86c3.26-1.95,6.56-3.9,9.87-5.85c4.8-2.83,9.77-5.76,14.54-8.68
				c2.35-1.44,5.43-0.7,6.87,1.66c1.44,2.36,0.7,5.43-1.66,6.87c-4.84,2.96-9.84,5.91-14.67,8.76c-3.29,1.94-6.57,3.88-9.8,5.82
				C2250.12,1043.12,2249.23,1043.35,2248.36,1043.35z M2296.34,1012.88c-1.49,0-2.96-0.66-3.95-1.93c-1.7-2.18-1.31-5.32,0.87-7.02
				c8.42-6.56,14.49-12.8,18.57-19.07c1.51-2.31,4.6-2.97,6.92-1.46c2.31,1.51,2.97,4.6,1.46,6.92c-4.69,7.21-11.5,14.24-20.8,21.5
				C2298.5,1012.53,2297.42,1012.88,2296.34,1012.88z M2322.95,965.77c-2.53,0-4.71-1.92-4.97-4.49c-0.59-5.85-2.68-12.12-6.2-18.62
				c-1.03-1.91-2.11-3.78-3.2-5.55c-1.44-2.35-0.7-5.43,1.65-6.88c2.36-1.44,5.43-0.7,6.88,1.65c1.18,1.93,2.35,3.95,3.46,6.02
				c4.15,7.67,6.62,15.19,7.35,22.36c0.28,2.75-1.72,5.2-4.47,5.48C2323.29,965.76,2323.12,965.77,2322.95,965.77z M2230.33,961.92
				c-1.44,0-2.92-0.07-4.42-0.22c-17.27-1.65-21.91-10.75-23.13-16.03c-0.63-2.69,1.05-5.38,3.74-6c2.69-0.63,5.38,1.05,6,3.74
				c1.37,5.89,8.56,7.79,14.35,8.34c1.18,0.11,2.35,0.17,3.47,0.17l0.41,0c2.77-0.03,5.03,2.18,5.06,4.94
				c0.04,2.76-2.18,5.03-4.94,5.06L2230.33,961.92z M2254.87,949.23c-0.98,0-1.98-0.29-2.85-0.9c-2.27-1.58-2.83-4.69-1.25-6.96
				c4.09-5.89,6.86-14.11,8.21-24.43c0.36-2.74,2.87-4.67,5.61-4.31c2.74,0.36,4.67,2.87,4.31,5.61
				c-1.56,11.93-4.9,21.63-9.92,28.84C2258.01,948.48,2256.45,949.23,2254.87,949.23z M2217.97,924.2c-1.23,0-2.46-0.45-3.42-1.36
				c-2.01-1.89-2.11-5.06-0.22-7.07c6.85-7.29,15.86-13.27,25.36-16.84c2.59-0.97,5.47,0.34,6.44,2.92
				c0.97,2.59-0.34,5.47-2.92,6.44c-8.1,3.04-15.76,8.12-21.59,14.32C2220.63,923.67,2219.3,924.2,2217.97,924.2z M2294.68,917.84
				c-1.12,0-2.26-0.38-3.19-1.15c-7.09-5.89-14.83-9.59-22.99-11.02c-2.72-0.47-4.54-3.06-4.07-5.78s3.06-4.54,5.79-4.07
				c9.9,1.73,19.21,6.16,27.66,13.17c2.12,1.76,2.42,4.92,0.65,7.04C2297.54,917.23,2296.11,917.84,2294.68,917.84z M2264.41,894.23
				c-2.59,0-4.78-1.99-4.98-4.62c-0.69-8.94-2.07-18.15-4.13-27.37c-0.6-2.7,1.1-5.37,3.79-5.97c2.7-0.6,5.37,1.1,5.97,3.79
				c2.16,9.68,3.62,19.37,4.34,28.78c0.21,2.75-1.85,5.16-4.6,5.37C2264.67,894.23,2264.54,894.23,2264.41,894.23z M2251.99,838.98
				c-1.99,0-3.88-1.2-4.65-3.17c-4.05-10.26-8.68-18.35-13.05-22.77c-1.94-1.96-1.92-5.13,0.04-7.07c1.96-1.94,5.13-1.92,7.07,0.04
				c5.37,5.44,10.64,14.47,15.24,26.13c1.01,2.57-0.25,5.47-2.82,6.49C2253.22,838.86,2252.6,838.98,2251.99,838.98z"/>
		</g>
	</g>
	<g>
		<g>
			
				<ellipse transform="matrix(0.4894 -0.8721 0.8721 0.4894 -57.0736 1238.9215)" class="st14" cx="1029.44" cy="668.2" rx="91.76" ry="91.76"/>
		</g>
		<g>
			<g>
				<path class="st3" d="M995.75,632.02c8.36,1.68,13.79,9.82,12.11,18.18c-1.68,8.36-9.82,13.79-18.18,12.11
					c-8.36-1.68-13.78-9.82-12.11-18.18C979.25,635.76,987.39,630.34,995.75,632.02z"/>
				<path class="st3" d="M1072.84,647.48c8.36,1.68,13.79,9.82,12.11,18.18c-1.68,8.36-9.82,13.79-18.18,12.11
					c-8.36-1.68-13.79-9.82-12.11-18.18C1056.33,651.22,1064.47,645.8,1072.84,647.48z"/>
			</g>
		</g>
		<g>
			<path class="st3" d="M986.13,684.24c-0.8-0.16-1.64-0.22-2.49-0.15c-3.77,0.3-6.19,2.95-5.39,5.93
				c3.92,14.68,19.19,27.08,37.99,30.85c18.26,3.66,36.32-1.29,45.99-12.63c2.02-2.36,0.99-5.77-2.29-7.6
				c-3.28-1.83-7.58-1.4-9.6,0.97c-6.73,7.89-19.29,11.34-32,8.79c-13.08-2.62-23.71-11.25-26.43-21.46
				C991.29,686.63,988.92,684.8,986.13,684.24z"/>
		</g>
	</g>
	<g>
		<path class="st12" d="M975.19,1000.73c-1.77,0-3.48-0.94-4.39-2.6c-1.32-2.42-0.43-5.46,1.99-6.78c4.68-2.56,7.48-5.22,7.48-7.12
			c0-0.83-0.55-3.17-5.69-7.09c-2.19-1.68-2.61-4.81-0.94-7.01c1.68-2.19,4.81-2.61,7.01-0.94c6.47,4.94,9.62,9.86,9.62,15.04
			c0,6.03-4.15,11.23-12.68,15.9C976.82,1000.53,976,1000.73,975.19,1000.73z M951.16,964.12c-0.65,0-1.31-0.13-1.95-0.4
			c-7.47-3.17-16.29-6.59-27.74-10.74c-2.6-0.94-3.94-3.81-2.99-6.41c0.94-2.6,3.81-3.94,6.41-2.99
			c11.62,4.22,20.59,7.69,28.24,10.94c2.54,1.08,3.73,4.02,2.65,6.56C954.95,962.98,953.1,964.12,951.16,964.12z M894.87,943.29
			c-0.55,0-1.1-0.09-1.64-0.28l-2.22-0.77c-6.33-2.2-12.74-4.43-19.17-6.7c-2.42-0.85-4.82-1.78-7.14-2.74
			c-2.55-1.06-3.75-3.99-2.69-6.54c1.06-2.55,3.99-3.75,6.54-2.69c2.15,0.9,4.38,1.75,6.62,2.54c6.42,2.26,12.82,4.49,19.13,6.69
			l2.22,0.77c2.61,0.91,3.99,3.76,3.08,6.37C898.87,942,896.93,943.29,894.87,943.29z M840.7,918.24c-1.08,0-2.16-0.35-3.08-1.06
			c-9.09-7.12-16.17-15.12-21.04-23.79c-1.35-2.41-0.5-5.46,1.91-6.81c2.41-1.35,5.46-0.5,6.81,1.91
			c4.17,7.41,10.56,14.61,18.49,20.82c2.17,1.7,2.56,4.85,0.85,7.02C843.65,917.58,842.19,918.24,840.7,918.24z M815.22,867.12
			c-0.31,0-0.63-0.03-0.95-0.09c-2.71-0.52-4.49-3.15-3.96-5.86c2.11-10.93,8.82-20.2,19.41-26.82c2.34-1.46,5.43-0.75,6.89,1.59
			c1.46,2.34,0.75,5.43-1.59,6.89c-8.17,5.11-13.32,12.1-14.89,20.23C819.66,865.46,817.57,867.12,815.22,867.12z M860.58,834.1
			c-2.44,0-4.58-1.79-4.94-4.28c-0.4-2.73,1.49-5.27,4.23-5.67c1.02-0.15,2.06-0.29,3.12-0.41c8.23-0.98,17.19-1.56,27.4-1.8
			c2.75-0.06,5.05,2.12,5.11,4.89c0.06,2.76-2.12,5.05-4.88,5.11c-9.89,0.23-18.54,0.79-26.45,1.73c-0.97,0.12-1.92,0.24-2.85,0.38
			C861.06,834.08,860.82,834.1,860.58,834.1z M950.49,832.74c-0.02,0-0.04,0-0.05,0c-6.7-0.07-13.46-0.24-20.63-0.43
			c-3.12-0.08-6.27-0.16-9.43-0.23c-2.76-0.06-4.95-2.35-4.88-5.11c0.06-2.76,2.35-4.95,5.11-4.88c3.17,0.07,6.33,0.15,9.46,0.23
			c7.12,0.18,13.85,0.36,20.47,0.43c2.76,0.03,4.98,2.29,4.95,5.05C955.46,830.54,953.22,832.74,950.49,832.74z M980.46,831.81
			c-2.55,0-4.72-1.94-4.97-4.52c-0.26-2.75,1.75-5.19,4.5-5.45c11.74-1.12,20.56-3.35,26.98-6.81c2.43-1.31,5.46-0.4,6.77,2.03
			c1.31,2.43,0.4,5.46-2.03,6.77c-7.62,4.1-17.68,6.7-30.77,7.96C980.78,831.81,980.62,831.81,980.46,831.81z M1025.69,800.8
			c-0.23,0-0.46-0.02-0.69-0.05c-2.74-0.38-4.65-2.9-4.27-5.64c0.25-1.82,0.38-3.79,0.38-5.83c0-0.88-0.02-1.79-0.07-2.71
			c-0.14-2.76,1.98-5.11,4.74-5.25c2.76-0.14,5.11,1.98,5.25,4.74c0.06,1.09,0.08,2.17,0.08,3.22c0,2.5-0.16,4.93-0.47,7.2
			C1030.29,798.99,1028.15,800.8,1025.69,800.8z"/>
	</g>
	<path class="st2" d="M2752.39,982.79l-23.95-33.72l-41.05,5.11c-4,0.5-6.64-4.04-4.24-7.27l24.67-33.2l-17.54-37.46
		c-1.71-3.65,1.79-7.56,5.6-6.28l39.2,13.21l30.2-28.26c2.94-2.75,7.74-0.64,7.7,3.39l-0.45,41.36l36.21,19.99
		c3.53,1.95,3,7.17-0.84,8.37l-39.47,12.35l-7.82,40.62C2759.85,984.96,2754.72,986.07,2752.39,982.79z"/>
	<path class="st2" d="M138.2,1549.74l-18.92-26.65l-32.43,4.04c-3.16,0.39-5.24-3.19-3.35-5.74l19.5-26.23l-13.86-29.6
		c-1.35-2.88,1.41-5.97,4.43-4.96l30.97,10.44l23.86-22.33c2.32-2.17,6.12-0.5,6.08,2.68l-0.35,32.68l28.61,15.8
		c2.79,1.54,2.37,5.66-0.67,6.61l-31.19,9.76l-6.18,32.09C144.09,1551.45,140.04,1552.33,138.2,1549.74z"/>
	<path class="st2" d="M766.14,710.86l-41.18-3.91l-22.96,34.41c-2.23,3.35-7.39,2.39-8.27-1.54l-9-40.37l-39.82-11.2
		c-3.88-1.09-4.55-6.29-1.09-8.34l35.61-21.04l-1.65-41.33c-0.16-4.02,4.58-6.28,7.6-3.61l31.01,27.37l38.8-14.34
		c3.78-1.4,7.38,2.42,5.78,6.11L744.54,671l25.63,32.47C772.66,706.63,770.15,711.24,766.14,710.86z"/>
	<path class="st1" d="M982.88,167.61l-24.38-24.86l-33.44,9.69c-3.26,0.94-6.05-2.48-4.49-5.48l16.11-30.87l-19.55-28.81
		c-1.9-2.8,0.48-6.52,3.83-5.96l34.33,5.78l21.36-27.5c2.08-2.68,6.35-1.56,6.85,1.8l5.11,34.44l32.75,11.82
		c3.19,1.15,3.44,5.56,0.41,7.07l-31.18,15.5l-1.12,34.8C989.37,168.42,985.26,170.03,982.88,167.61z"/>
	<path class="st2" d="M2408.01,676.69l-34.73-2.48l-18.64,29.4c-1.81,2.86-6.18,2.15-6.99-1.14l-8.37-33.8l-33.73-8.64
		c-3.28-0.84-3.96-5.21-1.08-7l29.56-18.4l-2.2-34.75c-0.21-3.38,3.73-5.37,6.32-3.19l26.63,22.42l32.37-12.83
		c3.15-1.25,6.26,1.89,4.99,5.03l-13.1,32.26l22.21,26.82C2413.41,673,2411.39,676.93,2408.01,676.69z"/>
	<g>
		<path class="st1" d="M2381.06,120.87c41.91-23.19,57.13,18.78,41.97,40.38c-14.91,24.85-73.09,43.87-72.62,40.08
			C2280.34,94.79,2369.55,70.92,2381.06,120.87z"/>
	</g>
	<g>
		<path class="st2" d="M1170.34,1302.8c41.91-23.19,57.14,18.78,41.97,40.38c-14.91,24.85-73.09,43.87-72.62,40.08
			C1069.63,1276.72,1158.83,1252.84,1170.34,1302.8z"/>
	</g>
	<g>
		<path class="st2" d="M1509.75,657.58c8.41-42.83,46.6-28.82,52.77-5.58c8.58,24.97-12.28,76.7-14.65,74.14
			C1432.5,712.5,1468.17,636.3,1509.75,657.58z"/>
	</g>
	<g>
		<g>
			<path class="st2" d="M1042.17,1638.21l-84.09,27.02c-10.97,3.52-22.76-2.53-26.28-13.5l-27.02-84.09
				c-3.52-10.97,2.53-22.76,13.5-26.28l20.07-6.45c4.71-1.51,9.76,1.08,11.27,5.79c1.51,4.71-1.08,9.76-5.79,11.27l-20.07,6.45
				c-1.56,0.5-2.42,2.18-1.92,3.74l27.02,84.09c0.5,1.56,2.18,2.42,3.73,1.92l84.09-27.02c1.56-0.5,2.42-2.18,1.92-3.73
				l-27.02-84.09c-0.5-1.56-2.18-2.42-3.73-1.92l-19.14,6.15c-4.71,1.51-9.76-1.08-11.27-5.79c-1.51-4.71,1.08-9.76,5.79-11.27
				l19.14-6.15c10.97-3.52,22.76,2.53,26.28,13.5l27.02,84.09C1059.2,1622.89,1053.14,1634.68,1042.17,1638.21z"/>
		</g>
		<path class="st2" d="M976.86,1486.7l-32.71-21.72c-2.35-1.56-5.29-1.92-7.94-0.98c-2.65,0.94-4.71,3.07-5.56,5.75l-11.32,35.87
			c-1.49,4.72,1.13,9.75,5.85,11.24c1.84,0.58,3.73,0.54,5.43-0.01c2.67-0.86,4.9-2.96,5.81-5.84l3.57-11.3l31.71,98.69
			c1.51,4.71,6.56,7.31,11.27,5.79c4.71-1.51,7.31-6.56,5.79-11.27l-31.37-97.63l9.56,6.35c4.12,2.74,9.69,1.62,12.42-2.51
			C982.11,1495,980.99,1489.44,976.86,1486.7z"/>
	</g>
	<path class="st3" d="M1627.71,1750.95c0,23.19-18.8,41.99-41.99,41.99c-23.19,0-41.99-18.8-41.99-41.99
		c0-23.19,18.8-41.99,41.99-41.99C1608.91,1708.97,1627.71,1727.77,1627.71,1750.95z"/>
	<path class="st3" d="M2018.24,144.39c0,18.9-15.32,34.23-34.23,34.23c-18.9,0-34.23-15.32-34.23-34.23
		c0-18.9,15.32-34.23,34.23-34.23C2002.91,110.16,2018.24,125.49,2018.24,144.39z"/>
	<g>
		<path class="st3" d="M1647.38,1708.48c-17.07,0-30.95-13.89-30.95-30.95c0-17.07,13.89-30.95,30.95-30.95
			c17.07,0,30.95,13.89,30.95,30.95C1678.33,1694.59,1664.44,1708.48,1647.38,1708.48z M1647.38,1658.42
			c-10.53,0-19.1,8.57-19.1,19.1c0,10.53,8.57,19.1,19.1,19.1c10.53,0,19.1-8.57,19.1-19.1
			C1666.48,1666.99,1657.91,1658.42,1647.38,1658.42z"/>
	</g>
	<g>
		<path class="st2" d="M2872.47,751.61c-27.85,0-50.51-22.66-50.51-50.51c0-27.85,22.66-50.51,50.51-50.51
			c27.85,0,50.51,22.66,50.51,50.51C2922.98,728.95,2900.32,751.61,2872.47,751.61z M2872.47,669.93
			c-17.19,0-31.17,13.98-31.17,31.17c0,17.19,13.98,31.17,31.17,31.17s31.17-13.98,31.17-31.17
			C2903.64,683.91,2889.66,669.93,2872.47,669.93z"/>
	</g>
	<g>
		<path class="st3" d="M546.09,625.57c-26.83,0-50.05-17.52-56.46-42.62l-68.8-269.18c-3.76-14.71-1.52-30.08,6.31-43.29
			c7.83-13.21,20.24-22.55,34.95-26.31l122.57-31.33c4.57-1.17,9.28-1.76,14-1.76c26.26,0,49.12,17.69,55.6,43.02
			c3.76,14.71,1.52,30.08-6.31,43.29c-7.83,13.21-20.24,22.55-34.95,26.31l-62.34,15.93l8.28,32.39l47.92-12.25
			c4.57-1.17,9.28-1.76,14-1.76c26.26,0,49.12,17.69,55.6,43.02c7.81,30.56-10.7,61.78-41.26,69.59l-47.92,12.25l18.02,70.51
			c3.83,14.97,1.31,30.55-7.07,43.87c-8.22,13.06-21.22,22.41-36.59,26.34C556.52,624.91,551.29,625.57,546.09,625.57z"/>
		<path class="st22" d="M562.94,468.46l22.97,89.89c5.04,19.71-7.61,40.35-29.24,45.88c-21.63,5.53-42.63-6.51-47.67-26.22
			l-68.8-269.18c-5.04-19.71,7.13-40.23,26.84-45.26l122.57-31.33c19.71-5.04,40.23,7.13,45.26,26.84
			c5.04,19.71-7.13,40.23-26.84,45.26l-81.71,20.89l18.18,71.14l67.29-17.2c19.71-5.04,40.23,7.13,45.26,26.84
			c5.04,19.71-7.13,40.23-26.84,45.26L562.94,468.46z"/>
		<path class="st3" d="M798.35,566.3c-28.32,0-52.71-21.1-56.72-49.07l-38.79-270.1c-4.48-31.22,17.27-60.28,48.5-64.76
			l130.14-18.69c2.66-0.38,5.36-0.58,8.04-0.58c28.32,0,52.7,21.1,56.72,49.07c2.16,15.03-1.72,30.07-10.92,42.36
			c-9.2,12.29-22.55,20.24-37.57,22.4l-68.6,9.85l2.99,20.81l53.87-7.73c2.66-0.38,5.36-0.58,8.04-0.58
			c28.32,0,52.7,21.1,56.72,49.07c4.48,31.23-17.27,60.28-48.5,64.76l-53.87,7.74l3.27,22.77l73.51-10.56
			c2.66-0.38,5.36-0.58,8.04-0.58c28.32,0,52.7,21.1,56.72,49.07c4.48,31.22-17.27,60.28-48.5,64.76l-135.05,19.39
			C803.73,566.1,801.03,566.3,798.35,566.3z"/>
		<path class="st22" d="M834.71,466.27l93.31-13.4c20.14-2.89,39.23,11.41,42.12,31.54c2.89,20.13-11.41,39.23-31.54,42.12
			l-135.05,19.39c-20.13,2.89-39.23-11.41-42.12-31.54l-38.79-270.1c-2.89-20.14,11.41-39.23,31.54-42.12l130.14-18.69
			c20.13-2.89,39.23,11.41,42.12,31.54c2.89,20.13-11.41,39.23-31.54,42.12l-88.4,12.69l8.67,60.4l73.66-10.58
			c20.13-2.89,39.23,11.41,42.12,31.54c2.89,20.13-11.41,39.23-31.54,42.12l-73.66,10.58L834.71,466.27z"/>
		<path class="st3" d="M1078.28,532.05c-29.75,0-54.83-23.22-57.09-52.86l-20.72-272.08c-2.39-31.45,21.25-58.99,52.7-61.39
			l131.09-9.98c1.43-0.11,2.87-0.16,4.3-0.16c29.76,0,54.83,23.22,57.09,52.86c1.15,15.14-3.72,29.89-13.72,41.54
			c-10,11.65-23.84,18.7-38.98,19.85l-69.1,5.26l1.6,20.96l54.26-4.13c1.43-0.11,2.87-0.16,4.3-0.16
			c29.75,0,54.83,23.22,57.09,52.86c2.4,31.45-21.25,58.99-52.7,61.39l-54.26,4.13l1.75,22.94l74.05-5.64
			c1.43-0.11,2.87-0.16,4.3-0.16c29.75,0,54.83,23.22,57.09,52.86c2.39,31.45-21.25,58.99-52.7,61.39l-136.04,10.36
			C1081.16,532,1079.71,532.05,1078.28,532.05z"/>
		<path class="st22" d="M1117.46,434.54l93.99-7.16c20.28-1.54,38.38,13.99,39.93,34.28c1.54,20.28-13.99,38.38-34.28,39.93
			l-136.04,10.36c-20.28,1.54-38.38-13.99-39.93-34.28l-20.72-272.08c-1.54-20.28,13.99-38.38,34.28-39.93l131.09-9.98
			c20.28-1.54,38.38,13.99,39.93,34.28c1.54,20.28-13.99,38.38-34.28,39.93l-89.04,6.78l4.63,60.85l74.2-5.65
			c20.28-1.54,38.38,13.99,39.93,34.28c1.54,20.28-13.99,38.38-34.28,39.93l-74.2,5.65L1117.46,434.54z"/>
		<path class="st3" d="M1360.16,514.4c-31.02,0-56.68-25.23-57.21-56.24l-4.61-272.83c-0.53-31.61,23.96-57.37,55.76-58.65
			c0.06,0,0.12,0,0.19-0.01c13.11-0.4,24.69-0.78,34.69-1.11c17.41-0.57,29.99-0.98,37.99-1.11c2.29-0.04,4.56-0.06,6.81-0.06
			c67.34,0,119.52,17.43,155.08,51.81c36.42,35.21,55.36,81.22,56.3,136.74c0.96,56.63-17.64,104.51-55.27,142.31
			c-37.79,37.97-91.73,57.81-160.31,58.97c-3.14,0.05-9.36,0.06-19.68,0.06c-11.78,0.01-27.89,0.02-48.93,0.1
			C1360.71,514.39,1360.43,514.4,1360.16,514.4z M1422.97,399.84c2.27,0,4.65-0.02,7.17-0.06c34.4-0.58,91.93-12.36,90.7-84.74
			c-0.82-48.43-33.67-76.2-90.13-76.2c-0.93,0-1.86,0.01-2.8,0.02c-3.47,0.06-6.55,0.15-9.27,0.26l2.71,160.71
			C1421.9,399.84,1422.43,399.84,1422.97,399.84z"/>
		<path class="st22" d="M1318.34,184.99c-0.34-20.34,15.25-37.47,36.57-38.33c35.71-1.1,60-2.01,72.41-2.22
			c65.48-1.11,114.86,14.43,147.65,46.13c32.79,31.7,49.36,72.6,50.2,122.7c0.86,51.09-15.78,94.05-49.44,127.86
			c-34.15,34.32-82.98,52.01-146.47,53.08c-6.45,0.11-29.28,0-68.47,0.16c-20.34,0.34-37.49-16.24-37.83-36.58L1318.34,184.99z
			 M1401.69,419.27c6.95,0.38,16.39,0.72,28.79,0.51c69.45-1.17,111.47-39.59,110.36-105.07c-1.05-62.01-46.29-96.97-113.26-95.84
			c-12.9,0.22-22.81,0.88-29.24,1.98L1401.69,419.27z"/>
		<path class="st3" d="M1797.26,518.21c-3.46,0-7.03-0.07-10.59-0.21c-10.96-0.44-25.32-1.29-43.5-2.36
			c-6.02-0.36-12.45-0.74-19.29-1.13c-0.04,0-0.09,0-0.14-0.01c-14.59-0.95-28.87-8.13-39.19-19.71
			c-10.21-11.46-15.74-26.29-15.16-40.69l10.84-272.16c1.23-30.82,27.3-55.9,58.12-55.9c0.21,0,0.42,0,0.63,0
			c2.8-0.02,5.62-0.03,8.46-0.03c19.21,0,38.92,0.41,60.24,1.26c42.72,1.7,76.04,12.48,99.02,32.05
			c23.03,19.6,34.52,47.13,33.22,79.63c-1.19,29.91-10.95,54.61-29.08,73.76c6.87,6.18,12.82,13.32,17.66,21.27
			c10.94,17.96,16,39.16,15.05,63.01c-1.65,41.43-17.78,73.06-47.94,94C1869.62,509.05,1836.52,518.21,1797.26,518.21z
			 M1790.89,403.48c2.15,0.2,4.41,0.35,6.78,0.44c1.18,0.05,2.34,0.07,3.45,0.07c0,0,0,0,0.01,0c22.7,0,23.03-8.36,23.33-15.73
			c0.22-5.59-1.36-6.87-2.12-7.48c-1.52-1.22-6.46-4.12-19.59-4.65l-10.75-0.43L1790.89,403.48z M1802.64,266.59
			c0.72,0.03,1.43,0.04,2.12,0.04c5.72,0,10.13-1.04,12.1-2.85c2.37-2.18,2.92-7.36,3.03-10.26c0.13-3.27-0.79-5.48-3.06-7.39
			c-3.17-2.67-8.53-4.34-14.68-4.58c-0.77-0.03-1.74-0.05-2.81-0.05c-0.55,0-1.21,0-2,0.02l-0.99,24.81L1802.64,266.59z"/>
		<path class="st22" d="M1919.96,238.15c-1.36,34.21-15.77,59.45-42.76,76.25c27.8,12.53,48.05,40.15,46.39,81.79
			c-1.4,35.2-14.35,61-39.37,78.37c-25.02,17.37-57.6,25.01-96.76,23.45c-14.38-0.57-35.18-1.9-62.42-3.48
			c-19.81-1.29-36.43-20.32-35.66-39.65l10.84-272.15c0.81-20.33,18.36-37,38.7-36.69c21.36-0.14,43.68,0.25,67.97,1.22
			C1885.72,150.39,1922.01,186.59,1919.96,238.15z M1772.81,354.93l-2.59,64.94c7.36,2.28,16.24,3.63,26.65,4.04
			c30.73,1.22,46.6-10.56,47.56-34.85c0.83-20.82-12.64-31.78-40.89-32.91L1772.81,354.93z M1775.57,285.52l26.27,1.05
			c24.29,0.97,37.14-9.94,38.03-32.25c0.79-19.83-15.61-31.9-36.93-32.75c-4.46-0.18-12.91-0.02-24.87,0.99L1775.57,285.52z"/>
		<path class="st3" d="M2246.98,557.56c-2.07,0-4.16-0.11-6.23-0.33c-26.49-2.79-44.8-18.35-51.58-43.81l-11.12-41.12l-109.52-11.54
			l-19.88,37.98c-10.66,20.89-29.04,32.39-51.75,32.39c-2.52,0-5.14-0.14-7.77-0.42c-30.01-3.16-51.85-30.15-48.69-60.16
			c0.82-7.77,3.05-15.25,6.28-21.08l139.94-258.53c18.7-34.85,45.21-42.17,64.14-42.17c2.69,0,5.46,0.15,8.23,0.44
			c20.77,2.19,48.23,13.51,61.08,55.04c0.02,0.07,83.05,278.5,83.08,278.59c2.14,7.58,2.83,15.2,2.05,22.65
			c-1.49,14.15-8.23,27.27-18.97,36.94C2275.43,552.19,2261.48,557.56,2246.98,557.56z M2144.84,353.75l-6.88-24.82l-12.02,22.83
			L2144.84,353.75z"/>
		<path class="st22" d="M2193.77,453.85l-136.67-14.4l-26.23,50.12c-8.18,16.1-21.4,23.19-39.66,21.26
			c-19.73-2.08-32.82-19.92-30.9-38.18c0.57-5.43,2.08-10.26,3.92-13.56l139.99-258.63c12.42-23.14,30-33.76,52.69-31.37
			c21.71,2.29,36.25,15.79,44.06,41.06l82.94,278.13c1.45,5.14,1.92,10.18,1.4,15.11c-2.13,20.23-20.78,36.22-42.49,33.94
			c-18.26-1.92-29.71-11.61-34.35-29.06L2193.77,453.85z M2171.96,376.72l-28.19-101.75l-49.27,93.59L2171.96,376.72z"/>
		<path class="st3" d="M2512.47,604.63c-14.05,0-28.87-1.57-44.05-4.66c-58.05-11.81-102.29-39.81-131.5-83.21
			c-29.54-43.25-38.52-94.62-26.71-152.67c11.42-56.13,38.49-99.61,80.45-129.25c29.79-21.04,64.98-31.71,104.58-31.71
			c16.53,0,34.13,1.88,52.3,5.57c31.71,6.45,55.91,16.79,73.98,31.59c0.06,0.05,0.12,0.1,0.18,0.15
			c26.48,22.22,28.58,43.86,25.68,58.1c-1.97,9.68-6.17,18.28-12.85,26.3c-0.15,0.17-0.29,0.35-0.45,0.52
			c-11.08,12.41-25.03,18.97-40.34,18.97c-3.83,0-7.8-0.41-11.78-1.22c-7.14-1.45-14.82-4.64-24.16-10.01
			c-0.14-0.08-0.27-0.16-0.41-0.24c-9.06-5.51-19.44-9.33-32.66-12.02c-6.27-1.28-12.37-1.92-18.15-1.92
			c-14.62,0-27.84,4.05-40.42,12.38c-17.4,11.52-28.55,30.36-34.1,57.61c-5.08,24.96-1.57,46.13,10.73,64.71
			c0.05,0.07,0.09,0.14,0.14,0.21c12.07,18.75,30.26,30.37,55.62,35.53c6.52,1.33,12.8,1.97,19.19,1.97c4.5,0,8.96-0.32,13.63-0.97
			c5.3-1.09,10.67-1.64,15.99-1.64c5.15,0,10.3,0.52,15.31,1.53c20.12,4.09,34.31,17.17,39.97,36.82c0.03,0.11,0.06,0.22,0.09,0.33
			c2.5,9.29,2.92,18.66,1.2,27.09c-3.08,15.15-13.36,35.08-44.82,43.96C2544.32,602.55,2528.66,604.63,2512.47,604.63z"/>
		<path class="st22" d="M2567.77,315.75c-11.26-6.85-23.99-11.46-39.06-14.53c-27.71-5.64-51.95-0.95-73.6,13.37
			c-21.65,14.33-36.03,37.73-42.66,70.3c-6.13,30.14-1.46,56.91,13.64,79.73c15,23.3,37.82,38.07,68.45,44.31
			c14.1,2.87,27.23,3.01,40.28,1.11c8.47-1.82,16.54-1.7,23.84-0.21c13.13,2.67,21.18,10.38,24.73,22.75
			c1.73,6.43,2,12.56,0.91,17.91c-2.87,14.1-12.92,23.7-30.65,28.7c-24.15,6.73-51.11,7.32-81.25,1.19
			c-52.99-10.78-92.51-35.53-118.94-74.83c-26.53-38.81-34.45-84.47-23.67-137.46c10.39-51.05,34.55-90.18,72.39-116.9
			c37.84-26.73,84.96-34.35,141.35-22.88c27.71,5.64,49.67,14.66,65.29,27.46c15.14,12.7,21.61,25.66,18.94,38.79
			c-1.29,6.32-3.93,11.86-8.62,17.48c-9.18,10.28-20.09,14.14-33.22,11.47C2580.59,322.41,2574.57,319.67,2567.77,315.75z"/>
		<path class="st3" d="M2826.25,728.35c-8.64,0-17.11-2-25.17-5.94c-26.59-13-34.17-37.04-38.4-61.08
			c-0.01-0.04-18.46-109.17-18.46-109.17l-31.08,63.57c-9.51,19.45-29.27,31.53-51.58,31.53c-9.4,0-18.55-2.14-27.17-6.36
			c-29.57-14.46-42.35-49.27-28.5-77.61l124.21-254.05c9.51-19.45,29.27-31.53,51.58-31.53c9.4,0,18.55,2.14,27.17,6.36
			c29.57,14.46,42.35,49.27,28.49,77.61l-25.79,52.74c0,0,94.95-48.96,95.03-49c12.31-6.13,24.33-9.24,35.71-9.24
			c9.32,0,18.26,2.06,26.55,6.11c28.95,14.15,39.73,43.34,26.22,70.98c-6.38,13.04-16.24,22.76-30.15,29.71
			c-0.15,0.08-0.31,0.15-0.47,0.23l-108.32,50.64l27.24,142.58c2.98,12.42,1.33,25.17-4.91,37.93
			C2868.22,715.32,2848.21,728.35,2826.25,728.35z"/>
		<path class="st22" d="M2753.58,487.5l-58.4,119.45c-8.93,18.27-31.94,25.8-52,15.99c-20.06-9.81-28.25-32.59-19.31-50.86
			l124.21-254.05c8.93-18.27,31.94-25.8,52-15.99c20.06,9.81,28.25,32.59,19.31,50.86l-52.3,106.97l148.42-76.54
			c16.79-8.36,31.64-9.38,44.57-3.06c20.06,9.81,25.1,27.73,17.03,44.23c-4.58,9.36-11.62,15.86-21.12,20.6l-122.41,57.22
			l30.25,158.38c2.07,8.19,0.81,16.41-3.33,24.88c-9.37,19.17-30.59,28.67-50.64,18.87c-15.6-7.63-22.81-19.99-27.48-46.57
			L2753.58,487.5z"/>
	</g>
</g>
<g>
</g>
<g>
</g>
<g>
</g>
<g>
</g>
<g>
</g>
</svg>
