<?xml version="1.0" encoding="utf-8"?>
<!-- Generator: Adobe Illustrator 25.0.0, SVG Export Plug-In . SVG Version: 6.00 Build 0)  -->
<svg version="1.1" id="Слой_1" xmlns="http://www.w3.org/2000/svg" x="0px" y="0px"
     viewBox="0 0 3100 2000" style="enable-background:new 0 0 3100 2000;" xml:space="preserve">
<style type="text/css">
	.st0{display:none;fill:#FFFFFF;}
	.st1{fill:#E3EAFF;}
	.st2{fill:#95A6DB;}
	.st3{fill:#494C7F;}
	.st4{fill:#FFFFFF;}
	.st5{fill:#C2D1FF;}
	.st6{fill:#CFDBFF;}
	.st7{fill:#4361BF;}
	.st8{fill:#748DDB;}
	.st9{fill:#5A79DB;}
	.st10{fill:#0E6A41;}
	.st11{fill:#201D40;}
	.st12{fill:#3F964F;}
	.st13{fill:#F37A50;}
	.st14{fill:#E62552;}
	.st15{fill:#2C2858;}
	.st16{fill:#DE623C;}
	.st17{fill:#8A284C;}
	.st18{fill:#F5A3B7;}
	.st19{fill:#F57191;}
	.st20{fill:#C4204A;}
	.st21{fill:#37326E;}
	.st22{fill:#F3DAD1;}
	.st23{fill:#E9EDF2;}
</style>
    <rect x="0" class="st0" width="3100" height="2000"/>
    <g>
	<path class="st1" d="M203.84,1820.49c-280.12-467.59,84.1-548.25,46.16-719.62c-53.4-241.19,73.9-510.71,179.54-578.93
		c227.02-146.59,413.2,0,598.96-130.9c240.65-169.58,444.68-322.09,717.35-203.87c95.4,41.36,185.05,104.11,288.01,116.96
		c259.42,32.35,564.18-88.74,652.85,251.11c62.74,240.46-31.13,372.83,145.23,595.94c162.18,205.16,53.29,585.19-90.51,657.62
		C2741.45,1808.79,203.84,1820.49,203.84,1820.49z"/>
        <g>
		<path class="st2" d="M102.49,1605.76c25.59-1.1,52.93,19.6,52.93,19.6s-25.27,27.62-50.85,28.72
			c-25.59,1.1-46.79-8.83-47.37-22.17C56.62,1618.57,76.9,1606.86,102.49,1605.76z"/>
            <path class="st2" d="M157.8,1652.44c14.39-21.18,47.32-30.76,47.32-30.76s7.08,36.76-7.31,57.94
			c-14.39,21.18-35.02,32.27-46.06,24.76C140.69,1696.88,143.4,1673.63,157.8,1652.44z"/>
            <path class="st2" d="M279.3,1603.84c4.1-1.73,7.02-2.7,7.77-2.94c0.09-0.03,0.16-0.06,0.19-0.06l0.01-0.01c0,0,0.01,0.01,0,0.03
			l0.03,0.12c0.08,0.4,0.31,1.59,0.59,3.4c1.52,9.7,4.5,37.1-6.84,54.53c-13.99,21.45-34.41,32.92-45.59,25.62
			c-11.19-7.29-8.92-30.6,5.06-52.05c6.26-9.6,16.29-16.95,25.45-22.13C270.91,1607.55,275.59,1605.39,279.3,1603.84z"/>
            <path class="st2" d="M186.45,1568.42c17.17,19,18.67,53.26,18.67,53.26s-37.39-1.83-54.56-20.83
			c-17.17-19-23.06-41.66-13.15-50.62C147.32,1541.28,169.28,1549.42,186.45,1568.42z"/>
            <path class="st2" d="M263.48,1552.83c19.06,17.11,24.12,51.03,24.12,51.03s-37.38,2.08-56.44-15.03
			c-19.06-17.11-27.27-39.03-18.35-48.97C221.74,1529.91,244.42,1535.72,263.48,1552.83z"/>
            <g>
			<path class="st2" d="M144.35,1623.3c0.38,0.03,36.54,2.09,122.29-20.53c6.28-1.66,12.83-3.45,19.65-5.38l0.12,0.41l0.86,3.04
				l-0.01,0.01l0.01,0.02l0.03,0.12c0.08,0.4,0.31,1.59,0.59,3.4c-7.65,2.16-14.95,4.15-21.92,5.97
				c-85.25,22.32-120.55,20.21-122.13,20.11L144.35,1623.3z"/>
		</g>
	</g>
        <g>
		<path class="st2" d="M190.97,1252.04c6.98,25.48-7.56,57.73-7.56,57.73s-33.58-19.07-40.56-44.55
			c-6.98-25.48-1.86-49.09,11.43-52.73C167.55,1208.86,183.99,1226.56,190.97,1252.04z"/>
            <path class="st2" d="M159.91,1329.93c24.03,4.21,45.23,29.07,45.23,29.07s-29.16,20.53-53.19,16.32
			c-24.03-4.21-41.73-17.79-39.53-30.32C114.62,1332.46,135.88,1325.72,159.91,1329.93z"/>
            <path class="st2" d="M246.05,1424.99c3.36,3.13,5.51,5.46,6.06,6.06c0.07,0.07,0.12,0.12,0.13,0.15l0.01,0.01
			c0,0-0.01,0.01-0.03,0.01l-0.1,0.08c-0.35,0.24-1.37,0.96-2.95,2c-8.48,5.54-32.99,19.96-54.19,16.66
			c-26.1-4.08-45.55-18.42-43.42-32.03c2.12-13.62,25.01-21.35,51.1-17.29c11.68,1.82,22.85,8.14,31.6,14.56
			C239.01,1418.67,243.03,1422.15,246.05,1424.99z"/>
            <path class="st2" d="M289.06,1458.33c4.54,0.71,7.63,1.43,8.42,1.62c0.1,0.02,0.17,0.04,0.19,0.05l0.01,0c0,0,0,0.01-0.01,0.02
			l-0.03,0.12c-0.15,0.4-0.59,1.56-1.32,3.31c-3.91,9.34-16.12,35.03-35.52,44.19c-23.9,11.26-48.04,10.29-53.91-2.17
			c-5.88-12.46,8.73-31.71,32.61-42.97c10.7-5.04,23.48-6.08,34.33-5.67C279.68,1457.05,284.96,1457.68,289.06,1458.33z"/>
            <path class="st2" d="M241.04,1331c-10.77,18.76-37.88,28.93-37.88,28.93s-8.31-30.5,2.45-49.26
			c10.77-18.76,27.42-29.41,37.21-23.8C252.6,1292.49,251.81,1312.24,241.04,1331z"/>
            <path class="st2" d="M287.04,1385.44c-8.02,25.17-37.78,44.31-37.78,44.31s-17.79-34.28-9.77-59.45
			c8.02-25.17,25.16-42.19,38.29-38.01C290.91,1336.47,295.06,1360.27,287.04,1385.44z"/>
            <path class="st2" d="M345.81,1414.78c-8.02,25.17-37.78,44.31-37.78,44.31s-17.79-34.28-9.77-59.45
			c8.02-25.17,25.16-42.19,38.29-38.01C349.68,1365.81,353.83,1389.6,345.81,1414.78z"/>
            <path class="st2" d="M184.62,1303.02c1.18,2.88,2.07,5.62,3.02,8.39l2.81,8.22c1.9,5.45,3.87,10.86,5.98,16.21
			c4.2,10.71,8.96,21.19,14.44,31.27c10.84,20.21,24.49,38.96,41.03,54.75c16.55,15.79,35.85,28.48,57,37.29
			c10.53,4.52,21.38,8.3,32.42,11.09c5.52,1.39,11.07,2.62,16.67,3.39c2.79,0.41,5.59,0.71,8.37,0.94c1.38,0.08,2.78,0.21,4.14,0.22
			c0.69,0.02,1.37,0.03,2.04,0.02c0.33,0,0.68,0,0.99-0.01c0.3-0.01,0.68-0.02,0.87-0.04c2.67-0.27,5.06,1.68,5.33,4.35
			c0.27,2.67-1.68,5.06-4.35,5.33c-0.17,0.02-0.33,0.03-0.5,0.03h-0.18c-0.54,0-0.89-0.03-1.31-0.05c-0.42-0.02-0.79-0.05-1.18-0.08
			c-0.79-0.05-1.55-0.13-2.31-0.21c-1.53-0.15-3.02-0.35-4.52-0.54c-2.98-0.43-5.93-0.95-8.85-1.56c-2.92-0.6-5.81-1.28-8.7-1.98
			l-4.29-1.15c-1.43-0.37-2.85-0.79-4.26-1.23c-11.31-3.43-22.32-7.62-33.04-12.43c-10.7-4.77-21.23-10.32-31.02-16.88
			c-9.82-6.54-19.02-13.98-27.49-22.17c-8.49-8.18-16.13-17.18-23.16-26.59c-3.54-4.69-6.8-9.59-9.99-14.51
			c-3.09-4.99-6.12-10.02-8.88-15.2c-1.43-2.56-2.72-5.19-4.08-7.79c-1.27-2.64-2.6-5.25-3.81-7.92c-2.49-5.3-4.82-10.68-7.01-16.1
			c-2.2-5.42-4.25-10.9-6.22-16.39l-2.92-8.21c-0.98-2.7-1.94-5.46-3-7.94l-0.01-0.03c-0.71-1.64,0.06-3.55,1.7-4.25
			c1.64-0.71,3.55,0.05,4.25,1.7C184.61,1302.98,184.62,1303,184.62,1303.02z"/>
	</g>
        <path class="st2" d="M2531.67,1095.57c-4.98,0.05-9.84,0.56-14.56,1.49l7.55,718.13c0,0,287.25,7,325.62,6.6
		c64.57-0.68,116.28-62.86,115.48-138.88c-0.8-76.01-53.8-137.09-118.38-136.41c-8.82,0.09-17.39,1.33-25.62,3.6
		c0.47-5.47,0.7-11.02,0.64-16.65c-0.66-63.07-35.75-116.28-83.95-135.13c4.18-8.29,6.54-18.01,6.43-28.36
		c-0.32-30.1-21.3-54.28-46.87-54.01c-3.93,0.04-7.74,0.67-11.37,1.79c0.65-5.62,0.97-11.37,0.9-17.22
		c-0.58-54.75-33.46-100.25-77.04-111.6c0.87-4.84,1.31-9.83,1.26-14.94C2611.3,1130.23,2575.44,1095.11,2531.67,1095.57z"/>
        <path class="st3" d="M2998.47,1865.72H147.08c-14.19,0-25.69-11.5-25.69-25.69l0,0c0-14.19,11.5-25.69,25.69-25.69h2851.39
		c14.19,0,25.69,11.5,25.69,25.69l0,0C3024.16,1854.22,3012.66,1865.72,2998.47,1865.72z"/>
        <g>
		<path class="st4" d="M1593.9,1628.27H970.79V364.81c0-41.01,33.24-74.25,74.25-74.25h474.62c41.01,0,74.25,33.24,74.25,74.25
			V1628.27z"/>
            <path class="st1" d="M1533.81,521.93h-505.3V391.04c0-18.88,15.3-34.18,34.18-34.18h436.94c18.88,0,34.18,15.3,34.18,34.18V521.93
			z"/>
            <rect x="1028.51" y="604.86" class="st1" width="505.3" height="165.07"/>
            <rect x="1028.51" y="852.86" class="st1" width="505.3" height="165.07"/>
            <rect x="1028.51" y="1100.87" class="st1" width="505.3" height="165.07"/>
            <g>
			<rect x="1038.51" y="381.38" class="st5" width="36.53" height="140.56"/>
                <rect x="1074.43" y="392.6" class="st5" width="26.43" height="129.34"/>

                <rect x="1237.77" y="381.38" transform="matrix(-1 -1.224647e-16 1.224647e-16 -1 2512.0615 903.3158)"
                      class="st5" width="36.53" height="140.56"/>

                <rect x="1406.37" y="381.38" transform="matrix(-1 -1.224647e-16 1.224647e-16 -1 2849.2686 903.3158)"
                      class="st5" width="36.53" height="140.56"/>

                <rect x="1486.03" y="381.46" transform="matrix(-0.9411 -0.3383 0.3383 -0.9411 2754.9478 1383.5856)"
                      class="st5" width="24.01" height="140.56"/>

                <rect x="1343" y="413.9" transform="matrix(-1 -1.224647e-16 1.224647e-16 -1 2712.8394 935.8368)"
                      class="st5" width="26.83" height="108.04"/>

                <rect x="1326.23" y="387.47" transform="matrix(-1 -1.224647e-16 1.224647e-16 -1 2669.376 909.4047)"
                      class="st6" width="16.92" height="134.47"/>

                <rect x="1211.95" y="392.6" transform="matrix(-1 -1.224647e-16 1.224647e-16 -1 2450.3198 914.5414)"
                      class="st6" width="26.43" height="129.34"/>

                <rect x="1274.25" y="407.06" transform="matrix(-1 -1.224647e-16 1.224647e-16 -1 2574.9263 928.9989)"
                      class="st6" width="26.43" height="114.88"/>

                <rect x="1299.99" y="397.22" transform="matrix(-1 -1.224647e-16 1.224647e-16 -1 2626.4116 919.1566)"
                      class="st6" width="26.43" height="124.72"/>

                <rect x="1369.8" y="366.42" transform="matrix(-1 -1.224647e-16 1.224647e-16 -1 2776.3291 888.3612)"
                      class="st6" width="36.74" height="155.52"/>

                <rect x="1117.67" y="392.19" transform="matrix(0.9601 -0.2795 0.2795 0.9601 -82.7241 333.5984)"
                      class="st5" width="21.37" height="129.34"/>
		</g>
            <g>
			<rect x="1049.74" y="617.09" class="st6" width="43.18" height="152.1"/>
                <rect x="1092.65" y="632.94" class="st5" width="33.14" height="136.25"/>
                <rect x="1125.12" y="623.66" class="st5" width="33.14" height="145.53"/>
                <rect x="1157.98" y="660.39" class="st6" width="33.14" height="108.81"/>
                <rect x="1191.23" y="634.88" class="st5" width="33.14" height="134.32"/>
                <rect x="1256.94" y="613.61" class="st5" width="33.14" height="155.58"/>
                <rect x="1290.19" y="622.12" class="st5" width="33.14" height="147.08"/>

                <rect x="1342.85" y="621.7" transform="matrix(0.9633 -0.2683 0.2683 0.9633 -136.8395 389.0852)"
                      class="st5" width="24.79" height="147.08"/>
                <rect x="1224.08" y="649.56" class="st6" width="33.14" height="119.63"/>
                <rect x="1432.84" y="649.56" class="st6" width="33.14" height="119.63"/>
                <rect x="1465.7" y="626.76" class="st6" width="28.5" height="142.44"/>
                <rect x="1493.53" y="615.93" class="st5" width="28.5" height="153.26"/>
		</g>
            <rect x="1055.38" y="889.82" class="st5" width="27.87" height="127.71"/>
            <rect x="1121.59" y="864.88" class="st5" width="27.86" height="152.66"/>
            <rect x="1148.46" y="875.43" class="st5" width="20.8" height="142.1"/>
            <rect x="1169.09" y="896.55" class="st5" width="20.8" height="120.99"/>
            <rect x="1188.77" y="884.55" class="st5" width="20.8" height="132.98"/>
            <rect x="1082.73" y="878.31" class="st6" width="19.84" height="139.22"/>
            <rect x="1028.87" y="1137.62" class="st5" width="27.86" height="127.71"/>
            <rect x="1056.22" y="1126.11" class="st6" width="19.84" height="139.22"/>
            <rect x="1101.92" y="899.91" class="st6" width="19.84" height="117.63"/>
            <rect x="1209.4" y="899.91" class="st6" width="19.84" height="117.63"/>
            <rect x="1369.77" y="869.41" class="st5" width="20.8" height="148.13"/>
            <rect x="1415.6" y="861.18" class="st5" width="35.82" height="156.35"/>
            <rect x="1390.4" y="886.51" class="st6" width="25.76" height="131.02"/>

            <rect x="1247.08" y="900.66" transform="matrix(0.9499 -0.3126 0.3126 0.9499 -237.0893 440.1231)" class="st6"
                  width="14.01" height="117.63"/>

            <rect x="1341.96" y="926.46" transform="matrix(-0.9499 -0.3126 0.3126 -0.9499 2326.4626 2317.0684)"
                  class="st5" width="14.01" height="91.18"/>

            <rect x="1296.8" y="1124.37" transform="matrix(-1 -1.224647e-16 1.224647e-16 -1 2630.1338 2389.3047)"
                  class="st5" width="36.53" height="140.56"/>

            <rect x="1270.98" y="1135.6" transform="matrix(-1 -1.224647e-16 1.224647e-16 -1 2568.3921 2400.5312)"
                  class="st6" width="26.43" height="129.34"/>

            <rect x="1333.29" y="1150.05" transform="matrix(-1 -1.224647e-16 1.224647e-16 -1 2692.9976 2414.9883)"
                  class="st6" width="26.43" height="114.88"/>

            <rect x="1359.03" y="1140.21" transform="matrix(-1 -1.224647e-16 1.224647e-16 -1 2744.4839 2405.1465)"
                  class="st6" width="26.43" height="124.72"/>
	</g>
        <g>
		<path class="st4" d="M2541.98,1733.81h-859.8V502.86c0-47.8,38.75-86.56,86.56-86.56h686.69c47.8,0,86.56,38.75,86.56,86.56
			V1733.81z"/>
            <path class="st1" d="M2459.06,644.18h-697.24V521.44c0-22.01,17.84-39.85,39.85-39.85h617.54c22.01,0,39.85,17.84,39.85,39.85
			V644.18z"/>
            <rect x="1761.82" y="725.85" class="st1" width="697.24" height="162.58"/>
            <rect x="1761.82" y="970.11" class="st1" width="697.24" height="162.58"/>
            <rect x="1761.82" y="1215.4" class="st1" width="688.37" height="160.51"/>
            <g>
			
				<rect x="2205.51" y="996.74" transform="matrix(-1 -1.224647e-16 1.224647e-16 -1 4446.3135 2129.2808)"
                      class="st5" width="35.29" height="135.81"/>

                <rect x="2180.56" y="1007.58" transform="matrix(-1 -1.224647e-16 1.224647e-16 -1 4386.6602 2140.127)"
                      class="st5" width="25.53" height="124.96"/>
                <rect x="2012.99" y="996.74" class="st5" width="35.29" height="135.81"/>
                <rect x="1850.09" y="996.74" class="st5" width="35.29" height="135.81"/>

                <rect x="1785.22" y="996.82" transform="matrix(0.941 -0.3383 0.3383 0.941 -254.2379 670.5729)"
                      class="st5" width="23.2" height="135.81"/>
                <rect x="1920.68" y="1028.16" class="st5" width="25.93" height="104.39"/>
                <rect x="1946.47" y="1002.62" class="st6" width="16.34" height="129.93"/>
                <rect x="2047.7" y="1007.58" class="st6" width="25.53" height="124.96"/>
                <rect x="1987.5" y="1021.55" class="st6" width="25.53" height="110.99"/>
                <rect x="1962.63" y="1012.04" class="st6" width="25.53" height="120.5"/>
                <rect x="1885.22" y="982.29" class="st6" width="35.5" height="150.26"/>

                <rect x="2143.67" y="1007.19" transform="matrix(-0.9601 -0.2795 0.2795 -0.9601 3923.1802 2698.729)"
                      class="st5" width="20.65" height="124.96"/>
		</g>

            <rect x="2179.19" y="509.49" transform="matrix(-1 -1.224647e-16 1.224647e-16 -1 4399.1602 1153.5927)"
                  class="st6" width="40.78" height="134.61"/>

            <rect x="2302.96" y="493.59" transform="matrix(-1 -1.224647e-16 1.224647e-16 -1 4634.1992 1137.688)"
                  class="st6" width="28.27" height="150.51"/>

            <rect x="2330.54" y="516.03" transform="matrix(-1 -1.224647e-16 1.224647e-16 -1 4681.6562 1160.1338)"
                  class="st6" width="20.57" height="128.07"/>

            <rect x="2350.42" y="509.23" transform="matrix(-1 -1.224647e-16 1.224647e-16 -1 4721.417 1153.3335)"
                  class="st5" width="20.58" height="134.87"/>

            <rect x="2406.52" y="516.93" transform="matrix(-1 -1.224647e-16 1.224647e-16 -1 4838.625 1161.0312)"
                  class="st5" width="25.59" height="127.17"/>

            <rect x="2391.11" y="527.59" transform="matrix(-1 -1.224647e-16 1.224647e-16 -1 4798.1846 1171.6938)"
                  class="st6" width="15.97" height="116.51"/>

            <rect x="2370.27" y="502.95" transform="matrix(-1 -1.224647e-16 1.224647e-16 -1 4761.1133 1147.0488)"
                  class="st6" width="20.57" height="141.15"/>

            <rect x="2148.16" y="523.52" transform="matrix(-1 -1.224647e-16 1.224647e-16 -1 4327.6084 1167.6201)"
                  class="st5" width="31.29" height="120.58"/>

            <rect x="2117.5" y="515.31" transform="matrix(-1 -1.224647e-16 1.224647e-16 -1 4266.2852 1159.4087)"
                  class="st5" width="31.29" height="128.79"/>

            <rect x="2086.47" y="547.81" transform="matrix(-1 -1.224647e-16 1.224647e-16 -1 4204.2305 1191.9106)"
                  class="st6" width="31.29" height="96.29"/>

            <rect x="2055.08" y="525.23" transform="matrix(-1 -1.224647e-16 1.224647e-16 -1 4141.4473 1169.33)"
                  class="st5" width="31.29" height="118.87"/>

            <rect x="1993.02" y="506.41" transform="matrix(-1 -1.224647e-16 1.224647e-16 -1 4017.3398 1150.5146)"
                  class="st5" width="31.29" height="137.69"/>

            <rect x="1961.63" y="513.94" transform="matrix(-1 -1.224647e-16 1.224647e-16 -1 3954.5557 1158.041)"
                  class="st5" width="31.29" height="130.16"/>
            <polygon class="st5" points="1901.6,638.4 1924.15,644.29 1961.4,518.9 1938.86,513.01 		"/>
            <polygon class="st5" points="2268.76,641.39 2256,644.55 2219.69,518.9 2232.45,515.74 		"/>

            <rect x="2011.6" y="752.18" transform="matrix(-1 -1.224647e-16 1.224647e-16 -1 4063.9824 1638.976)"
                  class="st6" width="40.78" height="134.61"/>

            <rect x="2140.95" y="738.01" transform="matrix(-1 -1.224647e-16 1.224647e-16 -1 4312.2842 1624.8008)"
                  class="st6" width="30.39" height="148.78"/>

            <rect x="2170.85" y="748.44" transform="matrix(-1 -1.224647e-16 1.224647e-16 -1 4368.6104 1635.231)"
                  class="st5" width="26.92" height="138.35"/>

            <rect x="2274.46" y="748.44" transform="matrix(-1 -1.224647e-16 1.224647e-16 -1 4575.8369 1635.231)"
                  class="st5" width="26.92" height="138.35"/>

            <rect x="2301.58" y="767.22" transform="matrix(-1 -1.224647e-16 1.224647e-16 -1 4622.4287 1654.0073)"
                  class="st5" width="19.26" height="119.58"/>

            <rect x="2375.99" y="757.48" transform="matrix(-1 -1.224647e-16 1.224647e-16 -1 4769.1562 1644.271)"
                  class="st5" width="17.18" height="129.31"/>

            <rect x="2321.05" y="735.23" transform="matrix(-1 -1.224647e-16 1.224647e-16 -1 4656.502 1622.019)"
                  class="st6" width="14.4" height="151.57"/>

            <rect x="2334.96" y="744.96" transform="matrix(-1 -1.224647e-16 1.224647e-16 -1 4689.8818 1631.7539)"
                  class="st6" width="19.96" height="141.83"/>

            <rect x="2354.43" y="788.08" transform="matrix(-1 -1.224647e-16 1.224647e-16 -1 4730.9102 1674.868)"
                  class="st6" width="22.05" height="98.72"/>

            <rect x="2197.27" y="731.75" transform="matrix(-1 -1.224647e-16 1.224647e-16 -1 4414.5068 1618.5415)"
                  class="st6" width="19.96" height="155.04"/>

            <rect x="2252" y="758.17" transform="matrix(-1 -1.224647e-16 1.224647e-16 -1 4526.9541 1644.9663)"
                  class="st6" width="22.95" height="128.62"/>

            <rect x="1980.57" y="766.21" transform="matrix(-1 -1.224647e-16 1.224647e-16 -1 3992.4297 1653.0029)"
                  class="st5" width="31.29" height="120.58"/>

            <rect x="1949.91" y="758" transform="matrix(-1 -1.224647e-16 1.224647e-16 -1 3931.1055 1644.792)"
                  class="st5" width="31.29" height="128.79"/>
            <polygon class="st5" points="2101.17,884.08 2088.41,887.24 2052.1,761.59 2064.86,758.43 		"/>
            <polygon class="st6" points="1949.83,882.27 1931.13,887.08 1894.24,761.59 1912.95,756.77 		"/>

            <rect x="2024.05" y="538.23" transform="matrix(-1 -1.224647e-16 1.224647e-16 -1 4079.3936 1182.33)"
                  class="st6" width="31.29" height="105.87"/>

            <rect x="2252" y="1255.16" transform="matrix(-1 -1.224647e-16 1.224647e-16 -1 4535.2979 2630.8904)"
                  class="st5" width="31.29" height="120.58"/>

            <rect x="2221.34" y="1246.94" transform="matrix(-1 -1.224647e-16 1.224647e-16 -1 4473.9756 2622.6797)"
                  class="st5" width="31.29" height="128.79"/>

            <rect x="2190.31" y="1279.45" transform="matrix(-1 -1.224647e-16 1.224647e-16 -1 4411.9219 2655.1807)"
                  class="st6" width="31.29" height="96.29"/>

            <rect x="2158.92" y="1256.87" transform="matrix(-1 -1.224647e-16 1.224647e-16 -1 4349.1367 2632.6006)"
                  class="st5" width="31.29" height="118.87"/>

            <rect x="2096.87" y="1238.05" transform="matrix(-1 -1.224647e-16 1.224647e-16 -1 4225.0303 2613.7842)"
                  class="st5" width="31.29" height="137.69"/>

            <rect x="2127.9" y="1269.87" transform="matrix(-1 -1.224647e-16 1.224647e-16 -1 4287.083 2645.6016)"
                  class="st6" width="31.29" height="105.87"/>

            <rect x="1826.94" y="538.23" transform="matrix(-1 -1.224647e-16 1.224647e-16 -1 3685.1699 1182.33)"
                  class="st6" width="31.29" height="105.87"/>

            <rect x="1800.29" y="518.04" transform="matrix(-1 -1.224647e-16 1.224647e-16 -1 3627.4961 1162.145)"
                  class="st6" width="26.91" height="126.06"/>

            <rect x="1774.01" y="508.47" transform="matrix(-1 -1.224647e-16 1.224647e-16 -1 3574.9336 1152.5664)"
                  class="st5" width="26.91" height="135.63"/>
            <rect x="1762.45" y="772.08" class="st6" width="20.17" height="114.74"/>
            <rect x="1781.92" y="751.92" class="st5" width="22.25" height="134.91"/>
            <rect x="1802.78" y="759.56" class="st5" width="26.42" height="127.26"/>
            <rect x="1852.15" y="733.14" class="st5" width="26.43" height="153.68"/>
            <rect x="1877.88" y="746.35" class="st5" width="18.78" height="140.47"/>
            <rect x="1829.21" y="775.56" class="st6" width="22.95" height="111.26"/>
	</g>
        <g>
		<polygon class="st7" points="232.76,1814.71 1193.25,1814.71 713,830.95 		"/>
            <path class="st8"
                  d="M2393.83,1814.71H1157.96L699.83,736.09h1187.61c29.26,0,55.69,17.49,67.13,44.42L2393.83,1814.71z"/>
            <path class="st9" d="M1096.67,1797.51l-399.6-928.76L258.49,1798.4c-4.7,9.96-14.72,16.31-25.73,16.31h-23.44
			c-12.66,0-21.07-13.09-15.81-24.61l471.28-1032c6.24-13.67,20.02-22.32,35.04-22.01c15.03,0.31,28.43,9.53,34.1,23.45
			l429.87,1031.1c4.77,11.45-3.64,24.08-16.05,24.08h-24.95C1111.44,1814.71,1101.16,1807.95,1096.67,1797.51z"/>
            <path class="st1" d="M697.08,868.75c0,0-27.59,402.9-132.3,693.93c-53.5,148.68-115.66,252.04-115.66,252.04
			s-24.53,1.91-32.7,1.58c-16.96-0.68-19.5-6.75-25.44-3.79c-5.71,2.86-25.62,1.51-25.62,1.51s7.29-7.37,14.16-29.25
			c-11.96,21.39-23.15,29.96-34.59,29.96c-8.13,0-20.88-1.76-22.68-2.21c-1.98-0.49-11.95,0.63-18.66,1.46l-13.42-0.27
			c-4.38-0.98-9.14-2.75-9.14-5.77c-2.66,1.97-9.78,3.92-16.67,5.24l-31.59,1.55L697.08,868.75z"/>
            <path class="st1" d="M1109.47,1814.71c-25.13,0-51.57-5.63-51.57-5.63s-8.95,3.27-23.73,4.65c-14.79,1.38-18.58-1.72-24.42-9.28
			c-1.04,5.16-8.6,10.26-20.3,8.94c-11.7-1.33-25.46-2.75-37.15,0.34c-11.69,3.1-28.54-4.12-31.57-12.39
			c-4.06,7.95-10.91,11.13-20.42,13.37h-7.51c-5.71,0-10.86-3.43-13.05-8.71c-11.29-27.21-47.08-116.35-85.1-241.23
			c-90.08-295.89-97.57-699.66-97.57-699.66L1109.47,1814.71z"/>
            <path class="st9" d="M1380.99,1645.45h-155.18L907.75,869.39c-2.77-6.76,2.2-14.17,9.5-14.17h128.88
			c6.65,0,12.64,4.02,15.16,10.17L1380.99,1645.45z"/>
            <path class="st2"
                  d="M471.91,1582.22c0,0,131.84-285.09,180.05-504.82C612.18,1297.13,546.02,1451.04,471.91,1582.22z"/>
            <path class="st2"
                  d="M570.06,1196.12c0,0-53,154.47-105.15,247.17C499.29,1400.04,554.32,1270.3,570.06,1196.12z"/>
            <path class="st2"
                  d="M884.95,1445.19c0,0,65.33,204.12,130.58,303.84C969.46,1716.31,892.55,1554.08,884.95,1445.19z"/>
            <path class="st2"
                  d="M297.24,1777.29c0,0,61.9-104.23,103.64-180.49C383.6,1670.25,314.51,1766.29,297.24,1777.29z"/>
	</g>
        <g>
		<polygon class="st10" points="732.39,1436.69 783.84,1489.26 727.21,1463.8 		"/>
            <path class="st11" d="M664,1685.7c20.98-3.39,54.46,5.84,73.18-4.23c36.37,18.36,82.25,43.15,82.25,43.15
			c-22.73,24.52-95.11,66.64-95.11,66.64c-38.39-18.17-76.38-37.47-118.51-42.88c4.05-21.04,11.75-41.46,21.85-60.35
			C639.82,1688.43,652,1687.64,664,1685.7z"/>
            <path class="st12" d="M690.99,1410.43c18.34,8.92,25.12,14.31,41.4,26.26c-1.89,29.81,3.42,66.01-5.39,94.56
			c-14.38,46.61-3.43,117.14,25.24,156.61c-21.99,68.54-128.22,65.29-174.49,57.77c-23.1-50.5-22.62-112.58-39.98-202.68
			l6.05-114.76c26.82-18.71,68.02-24.43,68.02-24.43S668.33,1399.41,690.99,1410.43z"/>
            <path class="st13" d="M854.2,1756.15c-33.75,26.54-72.96,51.55-111.29,70.88c-16.73-13.69-18.64-18.47-23.12-39.62
			c28.94-26.1,58.69-49.01,88.62-73.97C826.17,1729.14,854.2,1756.15,854.2,1756.15z"/>
            <path class="st13" d="M864.52,1825.48c-3.63,15.72-8.21,30.73-13.02,46.13c-36.45-5.12-73.3-13.58-107.4-27.43
			c2.6-22.17,4.6-44.37,7.2-66.54C785.41,1800.82,824.12,1817.18,864.52,1825.48z"/>
            <path class="st11" d="M592.1,1693.04l161.12,91.76l-20.33,45.19c-21.74,10.92-96.25,21.56-132.47,0.89
			C558.72,1807.09,563.97,1704.89,592.1,1693.04z"/>
            <g>
			<g>
				<g>
					<g>
						<path class="st4"
                              d="M669.15,1867.88l-28.12-54.89c0,0,17.02,0.27,26.55,18.86C673.98,1844.35,672.73,1859.9,669.15,1867.88z"
                        />
					</g>
				</g>
			</g>
                <path class="st14" d="M719.9,1810.07c4.53,8.8,1.62,24.81,0.31,25.6c-5.33,3.24-15.11,10.74-19.33,13.75
				c-3.71,2.65-24.37,21.69-24.37,21.69l-10.79,2.07l-19.27-35.36l-5.39-29.04c0,0,13.61-1.16,22.03-3.34
				c11.32-2.93,23.61-9.17,34.76-13.11C699.6,1791.74,713.78,1798.17,719.9,1810.07z"/>
                <g>
				<g>
					<g>
						<path class="st4" d="M659.66,1835.67c7.21,14.07,9.27,37.35,16.85,35.44c0,0-7.11,14.39-20.9,14.87
							c-5.9-5.09-14.92-19.07-23.35-33.39c-8.43-14.32-13.35-33.11-13.35-33.11s13.52-10,22.15-10.69
							C639.53,1811.78,653.61,1823.86,659.66,1835.67z"/>
					</g>
				</g>
			</g>
		</g>
            <g>
			<path class="st15" d="M592.1,1693.05c34.1-21.59,93.47,53.28,228.88,113.39c-8.89,16.54-18.26,40.99-26.09,58.89
				c0,0-114.64-22.67-181.09-69.5c-37.67,7.12-42.35-20.04-42.61-21.81C566.82,1738.7,576.84,1702.71,592.1,1693.05z"/>
		</g>
            <path class="st15" d="M917.96,1726.55c-18.52,25.04-121.69,74.79-121.69,74.79l-37.25-54.29c17.1-12.81,105.5-80.6,134.03-80.59
			C909.26,1670.16,941.98,1694.07,917.96,1726.55z"/>
            <g>
			<g>
				<g>
					<g>
						<path class="st4"
                              d="M913.92,1833.55l-20.88,64.75c0,0-13.07-13.49-6-35.41C891.8,1848.13,904.9,1836.97,913.92,1833.55z"/>
					</g>
				</g>
			</g>
                <path class="st14" d="M829.24,1839.04c3.33-10.39,18.08-20.61,19.73-20.21c6.68,1.63,20.16,3.41,25.8,4.36
				c4.96,0.83,35.93,2.08,35.93,2.08l10.03,6.8l-12.55,42.61l-18.44,26.85c0,0-11.52-9.71-19.79-14.58
				c-11.12-6.55-25.56-11.26-37.33-16.89C830.78,1869.18,824.74,1853.11,829.24,1839.04z"/>
                <g>
				<g>
					<g>
						<path class="st4" d="M896.2,1866.06c5.34-16.6,21.9-36.37,14.5-40.79c0,0,16.77-5.68,27.9,4.7
							c0.63,8.57-3.24,26.51-7.83,44.26c-4.59,17.75-15.41,36.24-15.41,36.24s-18.34-2.75-25.62-8.94
							C893.27,1900.41,891.71,1880,896.2,1866.06z"/>
					</g>
				</g>
			</g>
		</g>
            <path class="st4" d="M635.86,1316.12c3.06,0.11,6.08,0.66,8.98,1.62c0.8,0.26,1.23,1.12,0.96,1.92c-0.21,0.64-0.8,1.04-1.44,1.04
			c-0.16,0-0.32-0.03-0.48-0.08c-2.63-0.87-5.36-1.37-8.13-1.47c-0.84-0.03-1.49-0.74-1.46-1.57
			C634.32,1316.74,635.04,1316.08,635.86,1316.12z"/>
            <g>
			<path id="v-2_3_" class="st13" d="M640.21,1354.18h0.03l25.21,0.09l5.71,59.55c0,0-8.73,16.31-29.43,15.54
				c-20.7-0.77-31.39-15.37-31.39-15.37l1.35-62.5L640.21,1354.18z"/>
                <g>
				<path class="st13" d="M602.44,1315.12c-1.85,41.73,23.22,76.73,55.99,78.18c32.77,1.45,60.84-31.2,62.69-72.93
					c1.85-41.73-23.22-76.73-55.99-78.18C632.35,1240.75,604.29,1273.4,602.44,1315.12z"/>
                    <path d="M703.81,1326.51c0.57,3.1,3.55,5.15,6.65,4.57c3.1-0.57,5.15-3.55,4.57-6.65c-0.57-3.1-3.55-5.15-6.65-4.57
					C705.28,1320.44,703.24,1323.42,703.81,1326.51z"/>
                    <path d="M657.69,1324.79c0.62,3.35,3.84,5.57,7.2,4.95c3.35-0.62,5.57-3.84,4.95-7.2c-0.62-3.36-3.84-5.57-7.19-4.95
					C659.28,1318.21,657.07,1321.43,657.69,1324.79z"/>
                    <path class="st16" d="M692.16,1331.24c4.52,8.72,10.28,19.38,10.28,19.38s-3.74,8.51-15.3,7.71c5.05-1.63,10.15-4.53,8.68-11.21
					C694.36,1340.44,692.16,1331.24,692.16,1331.24z"/>
                    <g>
					<path class="st11" d="M648.98,1316.77c-0.2-0.09-0.39-0.2-0.57-0.34c-1.24-0.96-1.47-2.75-0.51-3.99
						c2.63-3.39,9.69-8.88,17.62-5.33c1.44,0.67,2.08,2.33,1.44,3.76c-0.64,1.44-2.32,2.08-3.76,1.44
						c-5.87-2.62-10.75,3.56-10.8,3.62C651.58,1316.98,650.15,1317.3,648.98,1316.77z"/>
				</g>
                    <g>
					<path class="st11" d="M703.34,1313.06c-0.37-0.17-0.7-0.43-0.96-0.79c-0.76-1.07-0.5-2.55,0.57-3.31
						c0.17-0.12,4.16-2.89,8.81-1.74c3.18,0.78,5.77,3.12,7.72,6.93c0.59,1.17,0.13,2.6-1.04,3.19c-1.17,0.59-2.6,0.13-3.19-1.04
						c-1.29-2.53-2.85-4.04-4.62-4.48c-2.53-0.62-4.91,1-4.94,1.01C704.98,1313.34,704.08,1313.39,703.34,1313.06z"/>
				</g>
                    <path class="st11" d="M595.07,1280c3.45-39.46,41.43-45.85,41.43-45.85s-7.5-4.24-3.47-15.63c5.02,4.47,11.64,7.31,18.35,7.83
					c45.19,3.51,71.84,15.79,64.32,32.41c-2.68,5.91,25.54,13.7,5.39,52.5c-0.54-3.1-1.08-23.47-9-29.02
					c-7.95-5.57-5.34,9.56-24.56,3.86c-19.39-5.75-30.81-16.26-46.62-11.01c-12.79,5.03-40.02,55.08-37.67,57.47
					C595.97,1325.12,593.56,1297.34,595.07,1280z"/>
                    <path class="st11" d="M717.47,1342.69c0,0-7.73,21.48-13.62,26.54c0.65-9.72-10.01-3.93-16.66-5.94
					c-16.07-4.85-41.13-22.28-54.13-0.77c-21.18-2.52-24.9-48.67-24.9-48.67c-21.11,43.82-0.06,76.6,50.2,89.3
					C694.32,1412.23,717.54,1377.41,717.47,1342.69z"/>
                    <g>
					<path class="st16" d="M666.3,1370.7c-2.67-2.07-5.24-4.71-7.7-7.9c-0.64-0.83-0.48-2.02,0.35-2.66
						c0.83-0.64,2.02-0.48,2.66,0.35c5.44,7.08,11.38,11.09,17.65,11.9c7.76,1,13.46-3.33,13.52-3.37c0.83-0.64,2.02-0.49,2.66,0.33
						c0.64,0.83,0.5,2.01-0.32,2.66c-0.28,0.22-6.93,5.33-16.27,4.15C674.46,1375.61,670.27,1373.78,666.3,1370.7z"/>
				</g>
                    <g>
					<path class="st13" d="M616.99,1310.07c5.82,7.91,5.29,18.19-1.19,22.95c-6.48,4.76-16.44,2.21-22.26-5.7
						c-5.82-7.91-5.29-18.19,1.19-22.95C601.21,1299.6,611.18,1302.15,616.99,1310.07z"/>
				</g>
			</g>
                <g>
				<path class="st16" d="M610.34,1330.13c-0.27,0-0.54-0.05-0.8-0.16c-1.07-0.44-1.58-1.67-1.13-2.73c1.82-4.39,1.97-7.76,0.45-10
					c-2.47-3.66-8.76-3.66-8.83-3.66c-1.14,0.02-2.1-0.92-2.11-2.07c-0.01-1.15,0.91-2.1,2.06-2.11c0.35-0.01,8.58-0.04,12.33,5.48
					c2.36,3.48,2.35,8.18-0.04,13.96C611.94,1329.64,611.16,1330.13,610.34,1330.13z"/>
			</g>
		</g>
            <g id="c_3_">
			<g id="c_7_">
				<g id="c_9_">
					<path id="c_11_" class="st14" d="M793.72,1619.29c0.31,0.09,0.61,0.15,0.92,0.19h1.01c1.85-0.2,3.49-1.46,4.08-3.35
						l47.25-152.32c0.1-0.31,0.16-0.62,0.19-0.92c0.02-0.2,0.01-0.4,0.01-0.6c0-0.12,0.01-0.24,0-0.36
						c-0.01-0.11-0.04-0.21-0.06-0.31c-0.29-1.73-1.5-3.24-3.29-3.8c-0.29-0.09-0.59-0.16-0.9-0.19c-0.35-0.04-0.69-0.03-1.03,0
						H722.96l-47.66,161.86h118.5L793.72,1619.29z"/>
                    <path id="c_10_" class="st17" d="M724.05,1457.8c-2.53-0.79-5.22,0.63-6.01,3.16l-46.95,151.94l-0.11,0.36
						c-0.78,2.52,0.63,5.19,3.14,5.99l0,0.01c2.53,0.79,5.22-0.63,6.01-3.16l47.07-152.29
						C727.99,1461.27,726.58,1458.59,724.05,1457.8z"/>
				</g>
                <path class="st17" d="M815.31,1473.67c-1.57,4.89,0.46,9.91,4.54,11.22c4.08,1.31,8.65-1.59,10.22-6.48
					c1.57-4.89-0.46-9.91-4.54-11.22C821.45,1465.88,816.87,1468.78,815.31,1473.67z"/>
                <path class="st17" d="M800.24,1474.43c-1.06,3.32,0.31,6.73,3.08,7.61c2.77,0.89,5.87-1.08,6.94-4.4
					c1.06-3.32-0.31-6.72-3.08-7.61C804.41,1469.14,801.3,1471.11,800.24,1474.43z"/>
			</g>
                <path id="c_6_" class="st13" d="M813.9,1554.44c0.44-0.3,0.93-0.48,1.42-0.62c-0.05-0.07-0.11-0.14-0.16-0.22
				c-2.96-4.46-2.76-9.8,0.44-11.92c0.53-0.35,1.1-0.58,1.71-0.71c-0.83-3.3-0.09-6.46,2.2-7.97c0.91-0.6,1.96-0.87,3.07-0.86
				c-1.05-3.25-0.22-6.66,2.34-8.35c3.2-2.12,7.85-0.75,10.37,3.06c2.53,3.81,1.98,8.62-1.23,10.74c-0.81,0.54-1.71,0.85-2.65,0.96
				c2.13,4.15,1.7,8.7-1.19,10.62c-0.53,0.35-1.1,0.58-1.71,0.72c0.83,3.3,0.09,6.46-2.2,7.97c-0.84,0.56-1.81,0.83-2.83,0.86
				c1.06,2.84,0.39,5.9-1.86,7.39c-2.71,1.79-6.63,0.63-8.76-2.58C810.73,1560.29,811.2,1556.23,813.9,1554.44z"/>
                <path class="st13" d="M667.68,1544.81l10.84-6.28c0,0,3-15.38,20.41-15.75c-1.99,6.45-4.87,15.75-4.87,15.75
				s8.57,6.65,28.89-4.73c19.87-4.46,11.38,10.02,17.97,11.06c9.72,1.54-7.08,20.63-26.92,23.55c-25.67,3.78-28.72-1.47-28.72-1.47
				l-14.53,5.08L667.68,1544.81z"/>
                <path id="c_4_" class="st10" d="M556.8,1562.7c36.24-2.53,108.61-21.89,108.61-21.89c9.89,15.17,7.16,35.33,7.16,35.33
				c-56.28,49.34-140.97,65.29-166.96,53.41c-23.72-10.84-21.36-168.28,38.2-201.36L556.8,1562.7z"/>
		</g>
	</g>
        <g>
		<g>
			<path class="st12" d="M2304.85,1626.5H1205.11c-15.85,0-28.7,11.07-28.7,24.71v150.18c0,13.65,12.85,24.71,28.7,24.71h1099.75
				V1626.5z"/>
		</g>
            <path class="st10" d="M2335.92,1665.41v121.3c0,4.42,3.78,8.03,8.39,8.03h320.55c9.02,0,16.33,7,16.33,15.63l0,0
			c0,8.63-7.31,15.63-16.33,15.63h-354.84c-9.7,0-17.57-7.87-17.57-17.57v-164.75c0-9.7,7.87-17.57,17.57-17.57h354.84
			c9.02,0,16.33,7,16.33,15.63v0.08c0,8.63-7.31,15.63-16.33,15.63h-320.63C2339.66,1657.45,2335.92,1661.04,2335.92,1665.41z"/>
            <path class="st4"
                  d="M2650.05,1794.75h-305.43c-8.78,0-15.9-7.12-15.9-15.9v-105.52c0-8.78,7.12-15.9,15.9-15.9h305.43V1794.75z"
            />
            <path class="st10" d="M1489.75,1626.5c0,0-37.21,85.78-0.62,199.61c-16.68,0-48.43-0.11-48.43-0.11s-39.53-87.96,0-199.5
			C1459.53,1626.5,1489.75,1626.5,1489.75,1626.5z"/>
            <path class="st10" d="M2116.39,1626.5c0,0-37.21,85.78-0.62,199.61c-16.68,0-48.43-0.11-48.43-0.11s-39.53-87.96,0-199.5
			C2086.17,1626.5,2116.39,1626.5,2116.39,1626.5z"/>
            <rect x="2357.26" y="1680.89" class="st1" width="237.48" height="12.35"/>
            <rect x="2488.08" y="1712.01" class="st1" width="148.33" height="12.35"/>
            <rect x="2341.06" y="1771.09" class="st1" width="191.8" height="12.35"/>
            <rect x="2383.54" y="1742.85" class="st1" width="89.92" height="12.35"/>
	</g>
        <g>
		<g>
			<path class="st18" d="M1770.7,1254.17h929.95c15.12,0,27.38,12.26,27.38,27.38v140.1c0,15.12-12.26,27.38-27.38,27.38H1770.7
				V1254.17z"/>
		</g>
            <path class="st19" d="M1740.37,1292.16v118.42c0,4.31-3.69,7.84-8.19,7.84h-312.94c-8.8,0-15.94,6.83-15.94,15.26l0,0
			c0,8.43,7.14,15.26,15.94,15.26h346.41c9.47,0,17.15-7.68,17.15-17.15v-160.84c0-9.47-7.68-17.15-17.15-17.15h-346.41
			c-8.8,0-15.94,6.83-15.94,15.26v0.08c0,8.43,7.14,15.26,15.94,15.26h313.02C1736.72,1284.39,1740.37,1287.89,1740.37,1292.16z"/>
            <path class="st4" d="M1433.7,1418.43h303.41c8.64,0,15.65-7.01,15.65-15.65v-102.75c0-8.65-7.01-15.65-15.65-15.65H1433.7V1418.43
			z"/>
            <path class="st19" d="M1994.23,1254.17c0,0,37.21,83.74,0.62,194.87c16.68,0,48.43-0.11,48.43-0.11s39.53-85.88,0-194.77
			C2024.45,1254.17,1994.23,1254.17,1994.23,1254.17z"/>
            <path class="st19" d="M1911.66,1254.17c0,0,37.21,83.74,0.62,194.87c16.68,0,48.43-0.11,48.43-0.11s39.53-85.88,0-194.77
			C1941.88,1254.17,1911.66,1254.17,1911.66,1254.17z"/>
            <rect x="1552.95" y="1303.6" class="st1" width="167.41" height="12.32"/>
            <rect x="1519.05" y="1387.73" class="st1" width="167.41" height="12.32"/>
            <rect x="1579.33" y="1362.15" class="st1" width="167.41" height="12.32"/>
	</g>
        <g>
		<path class="st20" d="M1027.83,1625.15l866.98,4.44l0.94-183.43l-866.98-4.44c-14.23-0.07-25.81,11.4-25.89,25.62l-0.68,131.92
			C1002.13,1613.48,1013.6,1625.08,1027.83,1625.15z"/>
            <g>
			<path class="st4" d="M1879.75,1596.8l681.91-0.7l-0.25-113.82l-673.71-6.27c-3.34-0.02-14.05,9.45-14.06,11.96l0,0l0.3,103.77
				C1873.92,1594.26,1876.41,1596.79,1879.75,1596.8L1879.75,1596.8z"/>
                <path class="st14" d="M2578.16,1631.34c10.01,0.89,18.39-5.76,20.11-15.8c0.89-10.04-5.75-18.44-15.75-20.16
				c-1.67-0.01-2.5-0.01-4.17-0.02l-676.06,0.72c-7.51-0.04-15.02-0.08-22.53-0.95c-2.46-7.54-4.09-15.92-3.21-24.29l-0.51-63.61
				c0.04-7.53,0.08-15.06,1.79-22.59c8.36-2.47,16.71-3.26,25.05-2.38l676.06-0.73c10.01,0.89,18.39-5.76,20.11-15.8
				c0.89-10.04-5.75-18.44-15.76-20.17c-1.67-0.01-2.5-0.01-4.17-0.02l-726.97-0.37c-10.85-0.06-20.08,9.1-20.13,19.98l0.09,144.78
				c-0.06,10.88,9.08,20.13,19.93,20.19L2578.16,1631.34z"/>
		</g>
            <rect x="1087.77" y="1492.35" class="st14" width="639.28" height="89.87"/>
            <rect x="1915.05" y="1550.7" class="st1" width="365.1" height="11.1"/>
            <rect x="1978.29" y="1519.33" class="st1" width="365.1" height="11.1"/>
            <rect x="1931.34" y="1495.95" class="st1" width="156.72" height="11.1"/>
            <rect x="2160.83" y="1571.12" class="st1" width="365.1" height="11.1"/>
            <polygon class="st20"
                     points="2067.77,1712.35 2001.58,1681.66 1941.74,1712.35 1941.74,1550.49 2067.77,1550.49 		"/>
	</g>
        <g>
		<path d="M2371.87,893.77c9.3-32.1,5.98-62.9-16.91-83.08c-23.2-20.45-59.3-12.86-59.3-12.86l0,0c0,0-25.84-15.86-57.07,6.67
			c-31.23,22.53-17.28,51.13-31.95,69.28c-8.69,10.75-40.41,6.62-40.66,47.57c-0.07,11.81,11.92,22.31,23.29,25.51
			c19.97,5.62,40.5,1.79,47.05,11.36c21.59,31.54,83.53,34.91,96.92,13.08c4.15-6.77,55.09,18.82,60.27-32.16
			C2396.12,913.3,2363.55,922.45,2371.87,893.77z"/>
            <path class="st15" d="M2362.48,1089.11c-7.81-23.81-38.42-105.73-62.88-113.1c-29.46-8.89-28.11,18.58-24.6,34.61
			c3.51,16.04,45.81,97.83,45.81,97.83L2362.48,1089.11z"/>
            <path class="st13" d="M2518.57,1373.61l17.04,23.83c0,0,15.21,19.39,33.35,10.29c18.14-9.11,10.1-38.24,10.1-38.24l-20.84-27.44
			L2518.57,1373.61z"/>
            <g>
			<g>
				<g>
					<path class="st15" d="M2578.34,1366.33c0,0,18.32-0.17,38.21-6.95c11.13-3.79,40.23-14.83,46.76,5.08
						c0.97,2.97,0.52,7.13-4.94,13.46c-8.07,9.35-20.38,19.63-49.25,28.58c-34.64,10.73-37.43,16.86-50.66,20.13
						c-13.71,3.39-18.25-15.74-23.55-31.28l0,0c2.42,3.28,9.63,11.36,35.39,6.65C2577.99,1400.6,2556.04,1376.42,2578.34,1366.33z"
                    />
				</g>
			</g>
		</g>
            <path class="st13" d="M2391.25,1456.26v16.16c0,0,1.1,24.62,21.15,27.77c20.05,3.14,30.45-25.23,30.45-25.23l-0.74-25.45
			L2391.25,1456.26z"/>
            <path class="st13"
                  d="M2290.84,928.65c0,0-3.58,32.77-4.72,44.86l-44.12,1.3c13.48-20.87,7.4-80.37,7.4-80.37L2290.84,928.65z"/>
            <g>
			<path class="st13" d="M2245.98,879.4c-7.44,38.7,11.16,74.8,41.55,80.65c30.39,5.84,61.06-20.79,68.5-59.48
				c7.44-38.69-11.16-74.8-41.55-80.65C2284.09,814.07,2253.42,840.7,2245.98,879.4z"/>
                <path d="M2339.04,903.92c0.11,2.97,2.61,5.29,5.58,5.18c2.97-0.11,5.29-2.61,5.18-5.58c-0.11-2.97-2.61-5.29-5.58-5.18
				C2341.24,898.45,2338.93,900.95,2339.04,903.92z"/>
                <path d="M2296.22,895.99c0.12,3.21,2.82,5.72,6.04,5.61c3.21-0.12,5.73-2.82,5.61-6.04c-0.12-3.21-2.82-5.73-6.04-5.61
				C2298.61,890.07,2296.1,892.77,2296.22,895.99z"/>
                <g>
				<path d="M2292.34,888.94c0.44-0.02,0.88-0.18,1.25-0.49c5.26-4.54,12.95-2.4,13.03-2.38c1.07,0.31,2.2-0.31,2.51-1.38
					c0.31-1.07-0.3-2.19-1.37-2.51c-0.4-0.12-9.86-2.79-16.81,3.2c-0.85,0.73-0.94,2.01-0.21,2.86
					C2291.15,888.72,2291.75,888.96,2292.34,888.94z"/>
			</g>
                <g>
				<path d="M2352.95,901.65c0.22-0.01,0.44-0.05,0.65-0.13c1.04-0.4,1.57-1.57,1.17-2.62c-3.11-8.11-11.1-8.95-11.43-8.98
					c-1.11-0.1-2.1,0.71-2.21,1.83c-0.1,1.11,0.71,2.1,1.82,2.21c0.26,0.03,5.85,0.69,8.04,6.39
					C2351.3,901.18,2352.1,901.68,2352.95,901.65z"/>
			</g>
                <path class="st16" d="M2331.06,913.15c1.44,3.99,2.51,7.91,4.34,10.69c0.62,0.94,0.38,2.21-0.53,2.88
				c-3.74,2.74-11.17,3.03-15.6,2.92c-0.65-0.02-0.77-0.93-0.15-1.11c5.24-1.59,7.95-3.28,9.22-4.31c0.63-0.51,0.98-1.29,0.94-2.1
				c-0.08-1.87-0.21-5.66-0.08-8.69C2329.24,912.38,2330.7,912.17,2331.06,913.15z"/>
                <path class="st13" d="M2259.07,885.59c4.32,8.2,2.38,17.71-4.33,21.24c-6.71,3.53-15.65-0.25-19.96-8.45
				c-4.32-8.2-2.38-17.71,4.33-21.24C2245.82,873.61,2254.76,877.39,2259.07,885.59z"/>
                <g>
				<path class="st16" d="M2247.28,901.55c0.3-0.01,0.61-0.09,0.9-0.25c4.1-2.25,6.07-5.96,5.27-9.94
					c-0.81-4.07-4.28-7.33-8.23-7.75c-1.11-0.12-2.11,0.69-2.23,1.8s0.69,2.11,1.8,2.23c2.17,0.23,4.22,2.22,4.69,4.52
					c0.44,2.21-0.71,4.2-3.25,5.59c-0.98,0.54-1.34,1.77-0.8,2.75C2245.81,901.19,2246.54,901.58,2247.28,901.55z"/>
			</g>
                <g>
				<path class="st16" d="M2301,944.66c-13.34-6.04-15.17-16.85-15.25-17.42c-0.19-1.22,0.65-2.36,1.88-2.55
					c1.22-0.18,2.36,0.65,2.55,1.86c0.1,0.61,2.63,14.39,24.3,17.15c1.22,0.16,2.09,1.28,1.94,2.5c-0.16,1.23-1.28,2.09-2.5,1.94
					C2308.71,947.48,2304.46,946.23,2301,944.66z"/>
			</g>
		</g>
            <path d="M2246.7,876c34.71,10.43,95.6-2.19,107.1-17.6c2.97-23.42-26.08-49.02-49.43-48.12
			C2281.01,811.19,2244.55,843.86,2246.7,876z"/>
            <path class="st12" d="M2256.64,1242.27l182.27-7.79c0,0,8.99-45.49,2.23-63.53c-6.76-18.04-174.23-14.32-174.23-14.32
			L2256.64,1242.27z"/>
            <path class="st10" d="M2203.03,1125.46c-4.94,11.41-24.19,45.38-22.33,72.92c1.92,28.42,21.97,53.17,55.91,52.63
			c0,0,63.97-36.37,50.13-110.85C2286.74,1140.16,2253.25,1127.08,2203.03,1125.46z"/>
            <path class="st10" d="M2231.56,1257.5l160.55,15.14c0,0,55.07-23.24,54.76-42.98c-0.31-19.74-162.09-73.75-162.09-73.75
			C2189.91,1128.25,2158.28,1246.01,2231.56,1257.5z"/>
            <path class="st10" d="M2446.88,1229.67l-3.22,226.47c0,0-40.08,16.89-54.12,0.13c-6.63-76.86-38.19-144.95-2.96-191.81
			C2433.77,1201.7,2446.88,1229.67,2446.88,1229.67z"/>
            <path class="st12" d="M2440.75,1170.42l133.61,183.48c0,0-29.82,39.86-50.64,35.19c-35.92-45.46-108.62-98.76-109.08-155.97
			C2414.01,1156.51,2440.75,1170.42,2440.75,1170.42z"/>
            <path class="st21" d="M2247.73,959.42l41.45,8.04c14.9,27.92,28.98,54.85,29.02,71.65c0.05,22.12-30.3,113.76-30.3,113.76
			c-39.94,5.26-72.48,0.21-97.14-15.79c19.26-54.48-13.63-121.74,22.06-158.5C2221.71,969.4,2235.96,965.33,2247.73,959.42z"/>
            <g>
			<g>
				<g>
					<path class="st15" d="M2444.11,1471.98c0,0,15,10.51,35.13,16.57c11.26,3.39,41.35,11.34,35.08,31.33
						c-0.93,2.98-3.73,6.1-11.85,8.08c-12,2.91-28,4.12-56.69-5.4c-34.42-11.42-40.26-8.05-52.92-13.09
						c-13.13-5.22-5.69-23.42-0.97-39.14l0,0c0.06,4.08,1.23,14.84,24.93,25.99C2423.89,1499.65,2420.09,1467.21,2444.11,1471.98z"
                    />
				</g>
			</g>
		</g>
            <path class="st15" d="M2196.17,997.22c-18.78,31.85-47.01,133.47-41.94,145.84l46.18-8.35c0,0,43.25-97.06,50.82-116.28
			C2264.43,985.16,2226.74,945.16,2196.17,997.22z"/>
            <g>
			<polygon class="st17" points="2497.76,1103.9 2515.31,1053.6 2422.85,1083.22 2482.75,1107.19 			"/>
                <polygon class="st22"
                         points="2495.16,1099.24 2511.12,1054.87 2507.02,1050.87 2426.04,1077.56 			"/>
                <path class="st4" d="M2496.31,1101.25c-2.63-5.8-13.42-14.69-29.02-15.33c-15.6-0.64-67.11-18.22-70.34-20.8
				c-5.49,3.56-105.35,67.31-105.35,67.31l2.79,7.25L2496.31,1101.25z"/>
                <polygon class="st17" points="2289.06,1140.35 2290.77,1144.7 2383.47,1166.38 2497.76,1103.9 2496.05,1099.56 2401.64,1073.52
							"/>
                <polygon class="st14"
                         points="2290.77,1144.7 2385.18,1170.73 2497.76,1103.9 2403.35,1077.87 			"/>
		</g>
            <g>
			<g>
				<g>
					<g>
						<path class="st16" d="M2450.74,1055.18c-8.36,2.24-22.97,13.96-27.25,19.7l5.72,1.81l6.95-2.64
							c7.61-0.37,12.15,5.51,27.26,1.55c7.57-1.98,12.22-2.33,12.38-3.31c0.16-0.98-0.41-6.87-9.49-4.59
							c-6.2,1.55-9.49,2.55-6.82-1.31l25.52-8.35C2481.72,1052.09,2462.58,1052,2450.74,1055.18z"/>
					</g>
				</g>
			</g>
		</g>
            <g>
			<g>
				<g>
					<g>
						<path class="st13" d="M2339.55,1130.36c-6.81,1.22-26.89,3.13-41.42,6.58l4.94-20.13c10.82,0.13,21.53-19.39,42.77-23.46
							c7.24-1.39,10.52-2.64,11.21-1.73c0.68,0.91,3.23,7.2-7.21,9.71c-13.1,3.15-3.04,12.74,22.74-0.52
							c6.46-3.32,19.54-1.51,15.52,3.95C2383.67,1110.8,2370.56,1124.81,2339.55,1130.36z"/>
					</g>
				</g>
			</g>
		</g>
            <path class="st15" d="M2167.37,1097.25c-11.54,4.89-15.74,42.6-12.22,45.23c69.42,26.48,151.54-6.07,151.54-6.07l-1.11-21.12
			C2305.58,1115.28,2235.31,1111.21,2167.37,1097.25z"/>
	</g>
        <g id="c_24_">
		<path class="st20" d="M1395.94,1100.03c50.44-13.09-21.67,114.13-21.67,114.13s-3.02,74.13-23.97,69.5
			c0,0-39.03,15.32-36.37-25.22C1316.33,1221.8,1347.27,1112.66,1395.94,1100.03z"/>
            <path class="st20" d="M1539.5,1101.67l1.09,87c0,0,7.56,87.06,26.1,97.88c13.05,7.61,48,10.21,45.34-30.33
			C1609.63,1219.58,1597.62,1114.84,1539.5,1101.67z"/>

            <rect x="1439.5" y="1089.1" transform="matrix(-1 -1.224647e-16 1.224647e-16 -1 2926.52 2208.8428)"
                  class="st13" width="47.52" height="30.65"/>
            <g>
			<path class="st13" d="M1208.5,1672.83l-12.4,37.63l-35.28-27.49c1.27-1.08-2.66-26.14-2.37-40.46l46.54-1.63
				C1207.28,1655.56,1208.5,1672.83,1208.5,1672.83z"/>
                <g>
				<g>
					<path class="st11" d="M1149.73,1713.47c0,0-12.18-17.62-26.1-17.84c0,0-26.02,3.28-34.44,14.89
						c-2.64,3.65-1.03,10.94,0.43,15.57c0.91,2.89,3.62,5.92,11.51,7.82c11.65,2.81,27.18,3.96,55.02-5.32
						c33.4-11.13,39.07-7.87,51.36-12.78c12.74-5.08,7.47-20.71,2.86-35.97C1210.35,1679.85,1202.17,1699.47,1149.73,1713.47z"/>
				</g>
                    <g>
					<g>
						<path class="st15" d="M1157.44,1673.28c0,0-14.55,10.22-34.07,16.13c-10.93,3.3-40.12,11.06-34.01,30.46
							c0.91,2.9,3.62,5.92,11.51,7.82c11.65,2.81,27.18,3.96,55.02-5.32c33.39-11.13,39.07-7.87,51.36-12.78
							c12.74-5.08,5.49-22.74,0.88-38l0,0c-0.05,3.96-1.17,14.4-24.16,25.26C1177.1,1700.11,1180.74,1668.62,1157.44,1673.28z"/>
					</g>
				</g>
                    <g>
					<path class="st3" d="M1163.47,1696.74c-1.14,0-2.2-0.72-2.56-1.87c-3.06-9.48-13.08-9.49-13.5-9.49
						c-1.48,0.02-2.7-1.17-2.72-2.65c-0.02-1.48,1.15-2.7,2.63-2.73c4.97-0.1,15.27,2.55,18.71,13.21c0.46,1.41-0.32,2.93-1.73,3.38
						C1164.02,1696.7,1163.74,1696.74,1163.47,1696.74z"/>
				</g>
                    <g>
					<path class="st3" d="M1151.35,1702.59c-1.14,0-2.19-0.72-2.56-1.87c-3.06-9.48-13.08-9.49-13.5-9.49
						c-1.48,0.02-2.7-1.17-2.72-2.65c-0.02-1.48,1.15-2.7,2.63-2.73c4.97-0.1,15.27,2.55,18.71,13.21c0.46,1.41-0.32,2.93-1.73,3.38
						C1151.9,1702.54,1151.63,1702.59,1151.35,1702.59z"/>
				</g>
			</g>
                <path class="st11" d="M1352.58,1347.1c-69.27,19.3-171.27,74.85-180.19,86.13c-18.43,23.3-10.14,88.16-16.97,232.84l56.77-1.52
				c12.82-111.49,39.74-154.81,39.43-196.8c0,0,54.37-1.19,132.8-39.98c38.66-19.12,78.78-40.98,63.45-76.09
				C1435.67,1323.71,1418.63,1328.7,1352.58,1347.1z"/>
                <path class="st13" d="M1331.82,1697.41l-33.37,18.93l-16.11-26.62c1.26-1.1,4.43-27.54,4.52-41.87l44.67,3.53
				C1330.22,1665.94,1335.13,1683.17,1331.82,1697.41z"/>
                <path class="st15" d="M1426.54,1349.41c-80.88,10.84-139.8,91.29-146.25,104.15c-13.11,26.16,6.38,78.98-1.59,210.99l59.72-3.93
				c9.1-68.46,23.82-121.94,23.09-172.11c0,0,42.44-31.18,127.55-51.46c46.56-11.1,60.48-18.51,69.02-49.12
				c2.91-10.41,1.68-36.62-3.04-41.92C1534.12,1322.55,1481.97,1341.98,1426.54,1349.41z"/>
                <g>
				<g>
					<path class="st11" d="M1283.82,1728.16c0,0-15.63-14.65-29.28-11.92c0,0-24.74,8.7-30.51,21.83
						c-1.81,4.12,1.3,10.91,3.71,15.13c1.5,2.64,4.79,5.02,12.91,5.21c11.98,0.29,27.4-1.87,52.65-16.82
						c30.29-17.93,36.52-15.95,47.5-23.34c11.37-7.66,2.92-21.82-4.81-35.77C1335.98,1682.49,1332.12,1703.39,1283.82,1728.16z"/>
				</g>
                    <g>
					<g>
						<path class="st15" d="M1282.86,1687.25c0,0-12.06,13.07-29.9,22.97c-9.98,5.54-36.88,19.29-26.81,36.96
							c1.5,2.64,4.79,5.02,12.91,5.21c11.98,0.29,27.4-1.87,52.65-16.82c30.29-17.94,36.52-15.95,47.5-23.34
							c11.37-7.66,0.57-23.39-7.16-37.33l0,0c0.78,3.88,1.9,14.33-18.27,29.8C1307.75,1709.32,1304.66,1677.77,1282.86,1687.25z"/>
					</g>
				</g>
                    <g>
					<path class="st3" d="M1299.03,1708.83c-1.13,0.16-2.28-0.4-2.8-1.48c-4.37-8.95-14.29-7.53-14.71-7.47
						c-1.46,0.23-2.84-0.77-3.07-2.23c-0.23-1.46,0.76-2.84,2.22-3.08c4.91-0.81,15.48,0.35,20.4,10.42c0.65,1.33,0.1,2.95-1.24,3.6
						C1299.56,1708.71,1299.3,1708.79,1299.03,1708.83z"/>
				</g>
                    <g>
					<path class="st3" d="M1287.86,1716.33c-1.13,0.16-2.28-0.41-2.8-1.48c-4.37-8.96-14.29-7.53-14.71-7.47
						c-1.46,0.23-2.84-0.77-3.07-2.24s0.76-2.84,2.22-3.07c4.91-0.81,15.48,0.35,20.4,10.42c0.65,1.34,0.1,2.95-1.24,3.6
						C1288.4,1716.21,1288.13,1716.29,1287.86,1716.33z"/>
				</g>
			</g>
		</g>
            <g id="v_3_">
			<path id="h-5_2_" class="st14" d="M1539.5,1101.67c0,0-31.55-7.23-47.74-4.75c-29.79,25.06-56.84,0-56.84,0
				c-18.16-0.61-38.98,3.12-38.98,3.12c0,49.81-32.78,249.99-32.78,249.99s23.33,28.2,100.08,28.2
				c46.54-0.3,98.53-13.52,98.53-13.52S1539.5,1151.34,1539.5,1101.67z"/>
		</g>
            <g>
			<path class="st15" d="M1504.48,1077.13c25.79,3.06,39.28-29.88,39.28-29.88c15.8-2.61,13.14-18.34,13.14-18.34
				c7.5-2.3,17.48-10.35,14.27-24.65c-2.72-12.11-14.6-11.54-16.13-25.72c-1.23-11.38,6.94-39.28-29.39-41.43
				c0,0-0.9-21.15-22.72-26.21c-26.75-6.19-33.37,9.88-45.09,12.77c-13.1,3.22-41.26-8.82-44.93,21.5c0,0-18.7,0.44-27.29,14.05
				c-8.01,12.68-3.31,28.88,2.08,34.84c0,0-14.99,5.11-18.43,19.32c-2.31,9.52,1.41,21.83,10.89,27.8
				c6.04,3.8,11.77,4.15,11.77,4.15c6.12,1,6.51,17.4,11.91,20.56c8.66,5.09,18.07,8.67,27.63,11.51L1504.48,1077.13z"/>
                <path class="st13" d="M1405.33,1014.15c-2.97,44.48,21.44,82.34,54.53,84.55c33.09,2.21,62.33-32.05,65.3-76.54
				c2.97-44.48-23.49-73.21-56.58-75.43C1435.49,944.52,1408.3,969.67,1405.33,1014.15z"/>
                <path d="M1486.44,1042.18c3.52,0.24,6.56-2.42,6.79-5.94c0.23-3.52-2.43-6.56-5.94-6.79c-3.52-0.24-6.56,2.43-6.79,5.94
				C1480.26,1038.91,1482.92,1041.95,1486.44,1042.18z"/>
                <path d="M1439.13,1040.8c3.52,0.24,6.56-2.42,6.79-5.94c0.24-3.52-2.42-6.56-5.94-6.79c-3.52-0.23-6.56,2.43-6.79,5.94
				C1432.95,1037.52,1435.61,1040.56,1439.13,1040.8z"/>
                <path class="st16" d="M1456.72,1041.26c-6.65,7.7-8.59,10.67-11.23,13.34c3.84,6.66,15.94,7.55,18.94,5.96
				c-8.75-2-11.1-6.97-11.1-6.97L1456.72,1041.26z"/>
                <path class="st13" d="M1514.47,1029.47c-6.18,9.22-5.65,20.42,1.19,25c6.84,4.58,17.39,0.82,23.57-8.41
				c6.18-9.22,5.65-20.42-1.19-25C1531.2,1016.48,1520.65,1020.25,1514.47,1029.47z"/>
                <g>
				<path class="st16" d="M1520.56,1046.96c0.26,0.02,0.54-0.02,0.8-0.11c1.07-0.37,1.63-1.53,1.26-2.6
					c-1.23-3.54-1.07-6.32,0.45-8.25c2.36-2.98,7.49-3.6,11.16-3.23c1.12,0.12,2.12-0.71,2.24-1.83c0.11-1.12-0.71-2.12-1.83-2.24
					c-4.93-0.5-11.4,0.5-14.77,4.77c-1.68,2.13-3.24,5.96-1.11,12.12C1519.05,1046.39,1519.77,1046.91,1520.56,1046.96z"/>
			</g>
                <path class="st15" d="M1546.18,990.48l-70.8-59.36l-80.16,38.91l8.68,57.44c2.54-26.41,18.57-17.56,27.1-25.12
				c8.64-7.67,12.57-19.84,32.32-8.63c0,0,16.42-10.83,24.43,5.05c6.19,12.28,14.97,10.12,23.65,10.93
				c10.25,0.95,7.61,10.88,13.88,10.68L1546.18,990.48z"/>
                <g>
				<path class="st15" d="M1430.21,1024.96c0.66,0,1.31-0.23,1.85-0.69c5.43-4.75,13.32-1.56,13.4-1.53
					c1.43,0.59,3.07-0.08,3.67-1.5s-0.06-3.06-1.49-3.67c-0.45-0.19-11.17-4.62-19.28,2.48c-1.17,1.02-1.29,2.79-0.26,3.96
					C1428.65,1024.63,1429.43,1024.96,1430.21,1024.96z"/>
			</g>
                <g>
				<path class="st15" d="M1498.7,1028.4c0.66,0,1.33-0.23,1.86-0.71c1.16-1.03,1.26-2.8,0.23-3.96
					c-8.13-9.14-19.62-4.36-20.11-4.15c-1.42,0.61-2.08,2.26-1.47,3.69c0.61,1.42,2.25,2.08,3.68,1.48
					c0.37-0.15,8.31-3.36,13.71,2.72C1497.16,1028.08,1497.93,1028.4,1498.7,1028.4z"/>
			</g>
                <g>
				<path class="st16" d="M1458.62,1078.19c10.11,0,18.36-5.6,18.49-5.69c1.06-0.74,1.33-2.19,0.59-3.26
					c-0.74-1.06-2.19-1.33-3.25-0.59c-0.69,0.47-16.48,11.09-29.5-0.4c-0.97-0.86-2.45-0.76-3.3,0.2c-0.85,0.97-0.76,2.45,0.21,3.3
					C1447.33,1076.6,1453.24,1078.19,1458.62,1078.19z"/>
			</g>
		</g>
            <path class="st16" d="M1526.86,1263.97c-16.54-12.52-37.83-31.41-43.81-40.24c0,0,19.14-18.07,24.4-17.54
			c18.15,15.79,119.04,35.76,83.67,79.98C1581.05,1298.78,1551.04,1282.27,1526.86,1263.97z"/>
            <path class="st16" d="M1383.09,1253.47c5.79-18.16,2.47-30.57,8.45-39.39c0,0-16.67-22.37-19.27-17.17
			c-9.93,20.12-81.14,64.09-49,90.36C1335.76,1297.47,1373.81,1282.33,1383.09,1253.47z"/>
            <g>
			<path class="st4"
                  d="M1495.56,1146.31l-8.97-2.13c-33.09,10.53-73.58,2.95-84.87,27.14l0,14.29L1495.56,1146.31z"/>
                <polygon class="st12"
                         points="1501.68,1252.68 1421.78,1277.61 1411.19,1174.05 1498.41,1144.19 			"/>
                <path class="st23"
                      d="M1319.62,1146.31l8.97-2.13c33.09,10.53,61.75,2.95,73.04,27.14l0,14.29L1319.62,1146.31z"/>
                <polygon class="st12"
                         points="1337.09,1252.68 1402.75,1277.61 1392.16,1174.05 1316.76,1144.19 			"/>
                <path class="st10"
                      d="M1402.09,1278.77c6.51,3.96,13.32,3.96,20.43,0l-10.59-106.5c-6.8,2.99-13.61,3-20.43,0L1402.09,1278.77z"
                />
		</g>
            <g>
			<path class="st13" d="M1488.52,1231.06c-2.64-2.27-7.81-10.22,0.35-9.84c-10.6-2.92-13.16-11.35,0.2-12.3
				c-9.65-0.8-15-11.32,1.18-13.16c-9.16-1.31-12.75-10.23-3.68-11.93c9.61-1.8,23.99-5.07,29.44-0.03
				c4.3,3.98,1.68,8.82-2.63,11.11c8.45,3.4,7.48,14.11-2.97,15.47c4.02,2.21,5.53,7.23,3.38,11.29c-2.27,4.47-7.69,6.32-12.21,4.16
				c3.29,2.54,4.53,7.7,0.96,9.41C1497.99,1237.44,1491.24,1233.64,1488.52,1231.06z"/>
		</g>
            <g>
			<path class="st13" d="M1338.62,1213.52c2.64-2.27,7.81-10.22-0.35-9.84c10.6-2.92,13.16-11.35-0.2-12.3
				c9.65-0.8,15-11.32-1.18-13.16c9.16-1.31,12.75-10.23,3.68-11.93c-9.61-1.8-23.99-5.07-29.44-0.03
				c-4.3,3.99-1.68,8.82,2.63,11.11c-8.45,3.4-7.47,14.11,2.97,15.47c-4.02,2.21-5.53,7.23-3.38,11.29
				c2.27,4.47,7.69,6.32,12.21,4.16c-3.29,2.54-4.53,7.7-0.96,9.41C1329.16,1219.9,1335.9,1216.1,1338.62,1213.52z"/>
		</g>
	</g>
        <g>
		<g>
			<g>
				<path class="st1" d="M1738.78,1234.53h-17.83c-2.84,0-5.15-2.3-5.15-5.15s2.3-5.15,5.15-5.15h12.68v-33.48h-12.68
					c-2.84,0-5.15-2.3-5.15-5.15c0-2.84,2.3-5.15,5.15-5.15h17.83c2.84,0,5.15,2.3,5.15,5.15v43.78
					C1743.93,1232.22,1741.63,1234.53,1738.78,1234.53z"/>
			</g>
            <path class="st1" d="M1715.93,1254.79h-56.86c-2.78,0-5.03-2.25-5.03-5.03v-84.55c0-2.78,2.25-5.03,5.03-5.03h56.86
				c2.78,0,5.03,2.25,5.03,5.03v84.55C1720.96,1252.54,1718.7,1254.79,1715.93,1254.79z"/>
		</g>
            <path class="st4" d="M1680.96,1151.18c0,0-21.63-8.77-14.93-24.65c6.69-15.88,31.03-13.79,17.19-36.79
			c16.69,9.2,19.2,29.7,6.23,34.71C1676.48,1129.46,1675.82,1142.17,1680.96,1151.18z"/>
            <path class="st4" d="M1701.28,1151.18c0,0-15.38-6.24-10.62-17.53c4.76-11.29,22.06-9.8,12.22-26.16
			c11.87,6.54,13.65,21.12,4.43,24.68C1698.1,1135.74,1697.63,1144.77,1701.28,1151.18z"/>
	</g>
        <g>
		<path class="st2" d="M2981.78,1388.36c-17.42,18.77-51.42,23.27-51.42,23.27s-1.45-37.41,15.97-56.18
			c17.42-18.77,39.48-26.62,49.27-17.53C3005.39,1347.01,2999.2,1369.59,2981.78,1388.36z"/>
            <path class="st2" d="M2909.62,1394.05c4.66,25.18-12.03,55.14-12.03,55.14s-30.88-21.16-35.54-46.35
			c-4.66-25.18,2.21-47.57,15.35-50C2890.54,1350.42,2904.97,1368.87,2909.62,1394.05z"/>
            <path class="st2" d="M2857.39,1514.04c-1.71,4.11-3.1,6.86-3.46,7.55c-0.04,0.09-0.07,0.15-0.09,0.17l0,0.01c0,0-0.01,0-0.02-0.02
			l-0.11-0.06c-0.34-0.23-1.34-0.92-2.81-2c-7.9-5.83-29.29-23.22-33.47-43.59c-5.13-25.09,1.32-47.61,14.4-50.27
			c13.08-2.68,27.86,15.49,32.99,40.57c2.29,11.23,0.34,23.51-2.54,33.63C2860.75,1505.5,2858.94,1510.33,2857.39,1514.04z"/>
            <path class="st2" d="M2948.32,1473.94c-25.57-1.44-50.73-24.75-50.73-24.75s27.88-24.99,53.45-23.55
			c25.57,1.44,45.69,13.42,44.94,26.76C2995.23,1465.74,2973.89,1475.38,2948.32,1473.94z"/>
            <path class="st2" d="M2904.5,1539.19c-25.58,1.23-53.03-19.33-53.03-19.33s25.12-27.76,50.7-28.99s46.84,8.58,47.48,21.92
			C2950.3,1526.14,2930.08,1537.96,2904.5,1539.19z"/>
            <g>
			<path class="st2" d="M2939.68,1405.32c-0.29,0.24-27.45,24.21-72.53,100.58c-3.3,5.6-6.7,11.48-10.19,17.64l-0.37-0.21
				l-2.75-1.56l0-0.01l-0.02-0.01l-0.11-0.06c-0.34-0.23-1.34-0.92-2.81-2c3.92-6.92,7.71-13.46,11.39-19.66
				c44.93-75.81,71.51-99.12,72.71-100.16L2939.68,1405.32z"/>
		</g>
	</g>
        <g>
		<path class="st2" d="M311.28,1004.08c7.1,24.61-6.58,56.06-6.58,56.06s-32.8-18.05-39.9-42.65c-7.1-24.61-2.45-47.55,10.39-51.26
			C288.03,962.52,304.19,979.47,311.28,1004.08z"/>
            <path class="st2" d="M282.69,1070.23c22.14,8.31,37.9,35.77,37.9,35.77s-31.45,14.35-53.59,6.04
			c-22.14-8.31-36.58-24.4-32.24-35.95C239.08,1064.55,260.54,1061.92,282.69,1070.23z"/>
            <path class="st2" d="M354.82,1175.46c2.64,3.58,4.28,6.19,4.69,6.86c0.05,0.08,0.09,0.14,0.1,0.17l0.01,0.01
			c0,0-0.01,0.01-0.03,0.01l-0.11,0.06c-0.38,0.17-1.48,0.67-3.17,1.38c-9.07,3.76-35,13.12-54.6,6.2
			c-24.14-8.55-40.1-25.68-35.65-38.27c4.45-12.59,27.64-15.88,51.77-7.34c10.8,3.83,20.31,11.83,27.51,19.52
			C349.23,1168.18,352.44,1172.22,354.82,1175.46z"/>
            <path class="st2" d="M375.77,1229.54c4.09,2.86,6.76,5.05,7.43,5.62c0.09,0.06,0.15,0.12,0.17,0.14l0.01,0.01
			c0,0-0.01,0.01-0.02,0.02l-0.09,0.1c-0.34,0.32-1.33,1.24-2.87,2.59c-8.29,7.24-32.51,26.45-55.82,26.1
			c-28.71-0.46-51.8-12.96-51.56-27.93c0.23-14.97,23.7-26.75,52.4-26.31c12.85,0.2,25.82,5.32,36.21,10.92
			C367.23,1223.79,372.08,1226.94,375.77,1229.54z"/>
            <path class="st2" d="M398.34,1288.22c4.51,2.04,7.52,3.68,8.28,4.1c0.1,0.05,0.17,0.09,0.19,0.11l0.01,0c0,0,0,0.01-0.02,0.02
			l-0.07,0.12c-0.27,0.37-1.07,1.46-2.32,3.06c-6.75,8.59-26.8,31.78-49.59,35.74c-28.07,4.86-52.88-3.08-55.41-17.71
			c-2.54-14.64,18.16-30.45,46.22-35.31c12.56-2.17,26.15,0.42,37.31,3.96C388.96,1284.2,394.27,1286.37,398.34,1288.22z"/>
            <path class="st2" d="M367.36,1076.88c-14.42,21.16-47.36,30.7-47.36,30.7s-7.03-36.77,7.39-57.93
			c14.42-21.16,35.06-32.22,46.1-24.7C384.52,1032.46,381.78,1055.71,367.36,1076.88z"/>
            <path class="st2" d="M400.67,1148.07c-12.14,22.55-43.91,35.47-43.91,35.47s-10.83-35.83,1.31-58.39
			c12.14-22.55,31.51-35.7,43.27-29.38C413.1,1102.1,412.8,1125.51,400.67,1148.07z"/>
            <path class="st2" d="M433.17,1214.77c-17.92,18.3-52.03,21.88-52.03,21.88s-0.45-37.43,17.47-55.73
			c17.92-18.29,40.18-25.55,49.73-16.2C457.88,1174.07,451.09,1196.48,433.17,1214.77z"/>
            <g>
			<path class="st2" d="M304.1,1048.89c0.06,0.38,6.58,36,48.77,114.01c3.1,5.71,63.62,128.13,67.1,134.3l-7.11,16.4
				c-3.91-6.93-64.11-143.21-67.52-149.56c-41.78-77.59-48.05-112.39-48.32-113.95L304.1,1048.89z"/>
		</g>
	</g>
</g>
    <g>
</g>
    <g>
</g>
    <g>
</g>
    <g>
</g>
    <g>
</g>
</svg>
