<?xml version="1.0" encoding="utf-8"?>
<!-- Generator: Adobe Illustrator 25.0.0, SVG Export Plug-In . SVG Version: 6.00 Build 0)  -->
<svg version="1.1" id="Layer_1" xmlns="http://www.w3.org/2000/svg" x="0px" y="0px"
     viewBox="0 0 2000 550" style="enable-background:new 0 0 2000 550;" xml:space="preserve">
<style type="text/css">
	.st0{fill:#748DDB;stroke:#748DDB;stroke-width:35;stroke-miterlimit:10;}
	.st1{fill:#FFFFFF;stroke:#748DDB;stroke-width:35;stroke-miterlimit:10;}
	.st2{fill:none;}
	.st3{fill:#748DDB;}
</style>
<g>
	<path class="st0" d="M198.64,85.17c48.31-6.98,89.08-0.75,113.7,4.99c30.91,7.2,53.84,17.45,65.85,23.33
		c-0.12,133.28-0.23,266.56-0.35,399.84c-37.39-14.12-95.9-31.15-169.11-32.36c-66.04-1.1-120.07,11.06-156.43,22.28
		c0-118.23,0-236.46,0-354.69C76.33,129.71,126.82,95.55,198.64,85.17z"/>
	<path class="st1" d="M376.67,108.1c0.21,130.32,0.42,260.64,0.64,390.96c-22.35-15.29-68.75-42.8-135.88-53.83
		c-63.38-10.41-115.15-1.18-142.12,5.39c-0.38-133.39-0.76-266.79-1.15-400.18c22.82-7.5,75.92-21.83,142.12-10.79
		c75.54,12.6,122.75,50.65,139.58,65.63c15.79-14.3,70.15-59.96,156.9-68.33c62.02-5.98,110.56,9.99,132.95,18.88
		C647.1,46.88,598.6,31,536.75,36.96C447.51,45.56,392.11,93.69,376.67,108.1z"/>
</g>
<g>
	<rect x="465.59" y="177.81" class="st2" width="1519.59" height="388.8"/>
	<path class="st3" d="M491.48,421.93V177.88h25.4h25.57V378.6h121.36v21.58v21.75H491.48z"/>
	<path class="st3" d="M695.02,177.88h25.4h25.57v244.04h-25.4h-25.57V177.88z"/>
	<path class="st3" d="M793.63,177.88h24.4h93.8c23.57,0,42,5.45,55.28,16.35c13.28,10.9,19.92,26.04,19.92,45.41
		c0,20.25-7.47,35.64-22.41,46.15c-2.44,1.77-5.15,3.38-8.13,4.81c5.75,2.22,10.85,4.87,15.27,7.97
		c15.61,10.74,23.41,26.4,23.41,46.98c0,24.9-7.72,43.86-23.16,56.86c-15.44,13.01-37.99,19.51-67.65,19.51h-86.33h-24.4V177.88z
		 M842.44,273.51h58.27c12.73,0,22.25-2.38,28.55-7.14c6.31-4.76,9.46-11.95,9.46-21.58c0-8.3-3.32-14.53-9.96-18.68
		s-16.66-6.23-30.05-6.23h-56.28V273.51z M842.44,379.59h61.92c13.28,0,23.24-2.88,29.88-8.63c6.64-5.75,9.96-14.44,9.96-26.06
		c0-10.18-3.4-17.79-10.21-22.83c-6.81-5.04-17.02-7.55-30.63-7.55h-60.93V379.59z"/>
	<path class="st3" d="M1039.17,177.88h25.4h97.62c23.24,0,41.97,6.23,56.2,18.68c14.22,12.45,21.33,28.86,21.33,49.22
		c0,23.47-7.91,40.62-23.74,51.46c-4.21,2.88-8.96,5.31-14.28,7.3c2.99,1.22,5.7,2.55,8.13,3.98c13.95,8.3,21.19,22.25,21.75,41.84
		l1.16,40.01c0.22,7.97,1.05,13.61,2.49,16.93c1.44,3.32,4.21,5.98,8.3,7.97v6.47h-56.31c-1.33-2.54-2.49-7.99-3.49-16.35
		c-1-8.36-1.55-17.35-1.66-26.98l-0.32-22.58c-0.22-10.96-3.46-18.76-9.71-23.41s-16.62-6.97-31.1-6.97h-50.8v96.46h-25.4h-25.57
		V177.88z M1090.14,284.47h59.1c13.17,0,23.05-2.68,29.63-8.05c6.58-5.37,9.88-13.47,9.88-24.32c0-10.73-3.13-18.79-9.38-24.16
		c-6.25-5.37-15.63-8.05-28.14-8.05h-61.09V284.47z"/>
	<path class="st3" d="M1351.94,177.88h29.55h29.55l86.33,244.04h-27.03h-27.03l-16.51-49.64h-92.56l-15.97,49.64h-26.24h-26.41
		L1351.94,177.88z M1348.4,330.29h64.79l-32.42-98.12h0.05L1348.4,330.29z"/>
	<path class="st3" d="M1530.24,177.88h25.4h97.62c23.24,0,41.97,6.23,56.2,18.68c14.22,12.45,21.33,28.86,21.33,49.22
		c0,23.47-7.91,40.62-23.74,51.46c-4.21,2.88-8.96,5.31-14.28,7.3c2.99,1.22,5.7,2.55,8.13,3.98c13.95,8.3,21.19,22.25,21.75,41.84
		l1.16,40.01c0.22,7.97,1.05,13.61,2.49,16.93c1.44,3.32,4.21,5.98,8.3,7.97v6.47h-56.31c-1.33-2.54-2.49-7.99-3.49-16.35
		c-1-8.36-1.55-17.35-1.66-26.98l-0.32-22.58c-0.22-10.96-3.46-18.76-9.71-23.41s-16.62-6.97-31.1-6.97h-50.8v96.46h-25.4h-25.57
		V177.88z M1581.21,284.47h59.1c13.17,0,23.05-2.68,29.63-8.05c6.58-5.37,9.88-13.47,9.88-24.32c0-10.73-3.13-18.79-9.38-24.16
		c-6.25-5.37-15.63-8.05-28.14-8.05h-61.09V284.47z"/>
	<path class="st3" d="M1840.2,330.12l-85.17-152.24h30.26h30.43l50.79,105.75l-0.08,0.16l47.66-105.91h28.88h28.88l-80.68,151.24
		v92.8h-25.4h-25.57V330.12z"/>
</g>
<g>
</g>
<g>
</g>
<g>
</g>
<g>
</g>
<g>
</g>
</svg>
