<?xml version="1.0" encoding="utf-8"?>
<!-- Generator: Adobe Illustrator 25.0.0, SVG Export Plug-In . SVG Version: 6.00 Build 0)  -->
<svg version="1.1" id="Layer_1" xmlns="http://www.w3.org/2000/svg" x="0px" y="0px"
     viewBox="0 0 2900 2000" style="enable-background:new 0 0 2900 2000;" xml:space="preserve">
<style type="text/css">
	.st0{display:none;fill:#FFFFFF;}
	.st1{fill:#F4A640;}
	.st2{fill:#ADCFD8;}
	.st3{fill:#55769F;}
	.st4{fill:#DAEEF7;}
	.st5{fill:#FEB546;}
	.st6{fill:#FF5B7E;}
	.st7{fill:#E03268;}
	.st8{fill:#02CCC0;}
	.st9{fill:#06BFAD;}
	.st10{fill:#07085B;}
	.st11{opacity:0.5;fill:#55769F;}
	.st12{fill:#FFC0BB;}
	.st13{fill:#F99893;}
	.st14{fill:#333333;}
	.st15{fill:#FFFFFF;}
	.st16{opacity:0.6;fill:#FC8D84;}
	.st17{opacity:0.3;fill:#F99893;}
	.st18{fill:#C4DFE8;}
</style>
<rect class="st0" width="2900" height="2000"/>
<g>
	<g>
		<path class="st1" d="M1371,1534.84l-303.44,121.87L691.94,721.41L948.43,618.4c25.93-10.41,55.39,2.16,65.8,28.09L1371,1534.84z"
			/>
		<g>
			
				<rect x="748.76" y="728.27" transform="matrix(0.9846 -0.1746 0.1746 0.9846 -183.5086 199.7504)" class="st2" width="590.07" height="829.64"/>
			
				<rect x="854.17" y="815.73" transform="matrix(0.9846 -0.1746 0.1746 0.9846 -127.7701 184.667)" class="st3" width="263.5" height="5.92"/>
			
				<rect x="796.2" y="800.96" transform="matrix(0.9846 -0.1746 0.1746 0.9846 -125.2316 183.9825)" class="st3" width="374.21" height="5.92"/>
			
				<rect x="769.76" y="876.89" transform="matrix(0.9846 -0.1746 0.1746 0.9846 -138.2809 187.5004)" class="st3" width="454" height="5.92"/>
			
				<rect x="774.73" y="904.91" transform="matrix(0.9846 -0.1746 0.1746 0.9846 -143.0951 188.7977)" class="st3" width="454" height="5.92"/>
			
				<rect x="784.66" y="960.94" transform="matrix(0.9846 -0.1746 0.1746 0.9846 -152.7222 191.3903)" class="st3" width="454" height="5.92"/>
			
				<rect x="789.63" y="988.96" transform="matrix(0.9846 -0.1746 0.1746 0.9846 -157.536 192.6871)" class="st3" width="454" height="5.92"/>
			
				<rect x="794.6" y="1016.97" transform="matrix(0.9846 -0.1746 0.1746 0.9846 -162.35 193.9841)" class="st3" width="454" height="5.92"/>
			
				<rect x="816.44" y="1140.19" transform="matrix(0.9846 -0.1746 0.1746 0.9846 -183.5217 199.6863)" class="st3" width="454" height="5.92"/>
			
				<rect x="821.59" y="1169.24" transform="matrix(0.9846 -0.1746 0.1746 0.9846 -188.5159 201.0342)" class="st3" width="454" height="5.92"/>
			
				<rect x="826.74" y="1198.29" transform="matrix(0.9846 -0.1746 0.1746 0.9846 -193.5057 202.3766)" class="st3" width="454" height="5.92"/>
			
				<rect x="831.89" y="1227.35" transform="matrix(0.9846 -0.1746 0.1746 0.9846 -198.4999 203.7244)" class="st3" width="454" height="5.92"/>
			
				<rect x="837.04" y="1256.4" transform="matrix(0.9846 -0.1746 0.1746 0.9846 -203.4916 205.0692)" class="st3" width="454" height="5.92"/>
			
				<rect x="842.19" y="1285.45" transform="matrix(0.9846 -0.1746 0.1746 0.9846 -208.4856 206.4166)" class="st3" width="454" height="5.92"/>
			
				<rect x="847.34" y="1314.5" transform="matrix(0.9846 -0.1746 0.1746 0.9846 -213.4751 207.7589)" class="st3" width="454" height="5.92"/>
		</g>
		<g>
			
				<rect x="703.38" y="724.17" transform="matrix(0.9671 -0.2545 0.2545 0.9671 -257.0033 291.6072)" class="st4" width="590.07" height="829.64"/>
			
				<rect x="782.45" y="817.45" transform="matrix(0.9671 -0.2545 0.2545 0.9671 -178.6968 259.6876)" class="st3" width="263.5" height="5.92"/>
			
				<rect x="723.28" y="802.94" transform="matrix(0.9671 -0.2545 0.2545 0.9671 -175.1295 258.2365)" class="st3" width="374.21" height="5.92"/>
			
				<rect x="703.01" y="877.52" transform="matrix(0.9671 -0.2545 0.2545 0.9671 -193.4639 265.6876)" class="st3" width="454" height="5.92"/>
			
				<rect x="710.25" y="905.04" transform="matrix(0.9671 -0.2545 0.2545 0.9671 -200.2282 268.4363)" class="st3" width="454" height="5.92"/>
			
				<rect x="724.73" y="960.07" transform="matrix(0.9671 -0.2545 0.2545 0.9671 -213.7555 273.9319)" class="st3" width="454" height="5.91"/>
			
				<rect x="731.97" y="987.58" transform="matrix(0.9671 -0.2545 0.2545 0.9671 -220.5207 276.6822)" class="st3" width="454" height="5.92"/>
			
				<rect x="739.21" y="1015.1" transform="matrix(0.9671 -0.2545 0.2545 0.9671 -227.2851 279.4314)" class="st3" width="454" height="5.92"/>
			
				<rect x="771.06" y="1136.12" transform="matrix(0.9671 -0.2545 0.2545 0.9671 -257.0411 291.528)" class="st3" width="454" height="5.92"/>
			
				<rect x="778.57" y="1164.65" transform="matrix(0.9671 -0.2545 0.2545 0.9671 -264.0535 294.3756)" class="st3" width="454" height="5.92"/>
			
				<rect x="786.08" y="1193.18" transform="matrix(0.9671 -0.2545 0.2545 0.9671 -271.0641 297.2206)" class="st3" width="454" height="5.92"/>
			
				<rect x="793.59" y="1221.72" transform="matrix(0.9671 -0.2545 0.2545 0.9671 -278.0804 300.0743)" class="st3" width="454" height="5.92"/>
			
				<rect x="801.1" y="1250.25" transform="matrix(0.9671 -0.2545 0.2545 0.9671 -285.095 302.9252)" class="st3" width="454" height="5.92"/>
			
				<rect x="808.61" y="1278.78" transform="matrix(0.9671 -0.2545 0.2545 0.9671 -292.1135 305.7813)" class="st3" width="454" height="5.92"/>
			
				<rect x="816.12" y="1307.31" transform="matrix(0.9671 -0.2545 0.2545 0.9671 -299.123 308.6254)" class="st3" width="454" height="5.92"/>
		</g>
		<path class="st5" d="M1255.86,1581.08l-610.9,245.34l-356.3-887.19l513.34-316.67c28.85-17.8,66.78-5.31,79.41,26.15
			L1255.86,1581.08z"/>
	</g>
	<g>
		<path class="st6" d="M447.83,1682.85l-87.15-1.58c-30.25-54.83-52.46-102.51-52.46-102.51c98.43-22.69,181.5-13.37,250.7,13.23
			l38.14,92.64l8.16-71.33c171.52,92.55,242.19,288.49,242.19,288.49s-303.12-32.29-367.38-62.17
			c-24.81-11.54-56.08-53.06-85.11-99.69C418.15,1717.81,447.83,1682.85,447.83,1682.85z"/>
		<path class="st7" d="M308.22,1578.76c0,0,389.17,163.77,539.19,323.03c0,0-303.12-32.29-367.38-62.17
			c-24.81-11.54-56.08-53.06-85.11-99.69c23.23-22.12,52.91-57.08,52.91-57.08l-87.15-1.58
			C330.42,1626.44,308.22,1578.76,308.22,1578.76z"/>
		<path class="st6" d="M320.64,1840.51c52.4-31.91,105.27-48.99,156.43-55.8c14.99,18.64,33.4,40.57,33.4,40.57l1.94-43.71
			c196.3-8.94,358.95,122.58,358.95,122.58c-113.69,71.66-210.67,91.42-290.12,85.01c-4.71-15.29-11.37-38.1-11.37-38.1
			l-14.03,35.11c-38.08-5.95-71.69-17.83-100.71-32.35c7.43-18.21,15.26-39.04,15.26-39.04l-42.31,24.03
			C357.19,1895.48,320.64,1840.51,320.64,1840.51z"/>
		<path class="st7" d="M581.25,1989.17c-4.71-15.29-11.37-38.1-11.37-38.1l-14.03,35.11c-38.08-5.95-71.69-17.83-100.71-32.35
			c7.43-18.21,15.26-39.04,15.26-39.04l-42.31,24.03c-70.9-43.34-107.45-98.32-107.45-98.32c228.71-26.42,550.72,63.65,550.72,63.65
			C757.67,1975.82,660.69,1995.57,581.25,1989.17z"/>
	</g>
	<path class="st8" d="M1466.01,661.36l70.25-51.59c-6.95-62.24-16.34-113.99-16.34-113.99c-93.47,38.29-155.93,93.84-197.09,155.51
		l22.33,97.67l-47.84-53.54c-86.64,174.58-31.25,375.37-31.25,375.37s228.89-201.33,264.12-262.83
		c13.6-23.74,15.17-75.7,11.96-130.53C1510.42,672.78,1466.01,661.36,1466.01,661.36z"/>
	<path class="st9" d="M1519.92,495.78c0,0-223.26,358.37-253.84,575.01c0,0,228.89-201.33,264.12-262.83
		c13.6-23.74,15.17-75.7,11.96-130.53c-31.74-4.65-76.15-16.07-76.15-16.07l70.25-51.59
		C1529.31,547.53,1519.92,495.78,1519.92,495.78z"/>
	<path class="st8" d="M1660.87,716.69c-61.21,4.19-114.24,20.76-159.94,44.73c-1.48,23.88-3.86,52.41-3.86,52.41l-26.81-34.57
		c-165.45,106-222.36,307.29-222.36,307.29c134.2-7.11,224.8-46.95,285.98-98.04c-4.98-15.2-12.71-37.68-12.71-37.68l31.73,20.57
		c27.66-26.84,48.25-55.94,63.57-84.55c-16.58-10.58-35-23.07-35-23.07l48.42-4.8C1662.75,782.68,1660.87,716.69,1660.87,716.69z"/>
	<path class="st9" d="M1533.87,988.51c-4.98-15.2-12.71-37.68-12.71-37.68l31.73,20.57c27.66-26.84,48.25-55.94,63.57-84.55
		c-16.58-10.58-35-23.07-35-23.07l48.42-4.8c32.87-76.32,30.99-142.31,30.99-142.31c-202.01,110.44-412.98,369.86-412.98,369.86
		C1382.09,1079.44,1472.69,1039.6,1533.87,988.51z"/>
	<g>
		<path class="st7" d="M2222.46,971.98h41.78c-6.83-4.67-15.38-7.47-24.69-7.47H1192.99c-54.75,0-99.14,39.35-99.14,87.88v55.82
			c0,48.54,44.39,87.88,99.14,87.88l1034.85-0.31L2222.46,971.98z"/>
		<path class="st5" d="M1181.64,1108.22v-55.82c0-48.54,44.39-87.88,99.14-87.88h-22.47c-54.75,0-99.14,39.35-99.14,87.88v55.82
			c0,48.54,44.39,87.88,99.14,87.88l22.18-0.01C1225.87,1195.95,1181.64,1156.67,1181.64,1108.22z"/>
		<path class="st5" d="M1426.74,1108.22v-55.82c0-48.54,44.39-87.88,99.14-87.88h-22.47c-54.75,0-99.14,39.35-99.14,87.88v55.82
			c0,48.54,44.39,87.88,99.14,87.88l22.18-0.01C1470.97,1195.95,1426.74,1156.67,1426.74,1108.22z"/>
		<path class="st6" d="M1628.31,964.72c-52.36,0-94.81,37.63-94.81,84.05v63.08c0,46.42,42.45,84.04,94.81,84.04h651.5v-14.11h-2.69
			l-165.63-13.9l-33.48-116.42c0,0,64.61-64.33,68.83-65.99c4.21-1.66,130.28-6.69,130.28-6.69l2.69-0.03v-14.03H1628.31z"/>
		<path class="st4" d="M2237.56,1079.89c0-68.07,39.68-101.06,39.68-101.06h-635.59c-48.1,0-87.08,34.56-87.08,77.2v48.56
			c0,42.63,38.99,77.2,87.08,77.2h635.59C2277.24,1181.78,2237.56,1165.6,2237.56,1079.89z"/>
		<path class="st4" d="M1554.56,1056.03v48.56c0,6.38,0.89,12.58,2.54,18.51c21.44-46.49,62.52-91.27,140.73-105.67
			c182.6-33.62,579.4-38.6,579.4-38.6h-635.59C1593.55,978.83,1554.56,1013.39,1554.56,1056.03z"/>
	</g>
	<g>
		<path class="st10" d="M2205.22,1434.88h47.28c-7.74-5.85-17.41-9.35-27.94-9.35H1040.07c-61.97,0-112.21,49.25-112.21,110v69.87
			c0,60.75,50.24,110,112.21,110l1171.25-0.39L2205.22,1434.88z"/>
		<path class="st3" d="M1532.76,1425.79c-59.26,0-107.31,47.1-107.31,105.2v78.96c0,58.1,48.04,105.2,107.31,105.2h737.38v-17.66
			h-3.05l-187.46-17.4l-37.89-145.72c0,0,73.13-80.52,77.9-82.6c4.77-2.08,147.45-8.38,147.45-8.38l3.05-0.03v-17.57H1532.76z"/>
		<path class="st4" d="M2222.31,1569.95c0-85.2,44.91-126.5,44.91-126.5h-719.36c-54.44,0-98.56,43.26-98.56,96.63v60.78
			c0,53.36,44.13,96.63,98.56,96.63h719.36C2267.22,1697.49,2222.31,1677.22,2222.31,1569.95z"/>
		<path class="st4" d="M1449.3,1540.08v60.78c0,7.99,1.01,15.75,2.87,23.17c24.26-58.2,70.76-114.25,159.28-132.27
			c206.67-42.08,655.77-48.31,655.77-48.31h-719.36C1493.43,1443.45,1449.3,1486.71,1449.3,1540.08z"/>
	</g>
	<g>
		<path class="st8" d="M888.82,1202.93h-47.3c7.74-4.64,17.42-7.42,27.95-7.42h1184.96c62,0,112.25,39.08,112.25,87.29v55.44
			c0,48.21-50.26,87.29-112.25,87.29l-1171.71-0.31L888.82,1202.93z"/>
		<path class="st9" d="M1561.55,1195.72c59.29,0,107.35,37.37,107.35,83.47v62.66c0,46.1-48.06,83.47-107.35,83.47H823.88v-14.02
			h3.05l187.53-13.81l37.9-115.63c0,0-73.16-63.89-77.93-65.54c-4.77-1.65-147.51-6.65-147.51-6.65l-3.05-0.03v-13.94H1561.55z"/>
		<path class="st4" d="M871.73,1310.11c0-67.6-44.93-100.37-44.93-100.37h719.64c54.46,0,98.6,34.33,98.6,76.67v48.23
			c0,42.34-44.15,76.67-98.6,76.67H826.8C826.8,1411.31,871.73,1395.23,871.73,1310.11z"/>
		<path class="st4" d="M1645.04,1286.41v48.23c0,6.34-1.01,12.5-2.88,18.39c-24.27-46.18-70.79-90.65-159.34-104.95
			c-206.75-33.39-656.03-38.34-656.03-38.34h719.64C1600.9,1209.73,1645.04,1244.06,1645.04,1286.41z"/>
		<path class="st11" d="M1949.61,1338.24v-55.44c0-48.21-50.26-87.29-112.25-87.29h112.52c62,0,112.25,39.08,112.25,87.29v55.44
			c0,48.21-50.26,87.29-112.25,87.29l-111.03-0.03C1900.15,1424.88,1949.61,1386.06,1949.61,1338.24z"/>
	</g>
	<path class="st5" d="M799.36,1724.29h-50.99c8.34-5.19,18.78-8.29,30.13-8.29h1277.41c66.83,0,121.01,43.66,121.01,97.52v61.95
		c0,53.86-54.18,97.52-121.01,97.52l-1263.12-0.35L799.36,1724.29z"/>
	<path class="st1" d="M1524.58,1716.23c63.91,0,115.73,41.76,115.73,93.26v70.01c0,51.51-51.81,93.26-115.73,93.26H729.36v-15.66
		h3.29l202.16-15.43l40.86-129.19c0,0-78.86-71.39-84.01-73.23c-5.14-1.84-159.02-7.43-159.02-7.43l-3.29-0.03v-15.57H1524.58z"/>
	<path class="st4" d="M780.93,1844.04c0-75.53-48.43-112.15-48.43-112.15h775.79c58.71,0,106.3,38.35,106.3,85.66v53.89
		c0,47.31-47.59,85.67-106.3,85.67H732.5C732.5,1957.1,780.93,1939.14,780.93,1844.04z"/>
	<path class="st10" d="M825.03,1899.96l10.86,24.22c0.9,2,0,4.35-2,5.25l-56.71,25.42c-4.1,1.84-8.07-2.82-5.6-6.57l21.95-34.19
		C793.53,1914.08,810.87,1917.25,825.03,1899.96z"/>
	<path class="st10" d="M897.07,1899.96l10.86,24.22c0.9,2,0,4.35-2,5.25l-56.71,25.42c-4.1,1.84-8.07-2.82-5.6-6.57l21.95-34.19
		C865.57,1914.08,882.92,1917.25,897.07,1899.96z"/>
	<path class="st10" d="M2113.43,1173.73l-10.86,24.22c-0.9,2,0,4.35,2,5.25l56.71,25.42c4.1,1.84,8.07-2.82,5.6-6.57l-21.95-34.19
		C2144.93,1187.85,2127.59,1191.03,2113.43,1173.73z"/>
	<path class="st10" d="M2039.95,1170.85l-10.86,24.22c-0.9,2,0,4.35,2,5.25l56.71,25.42c4.11,1.84,8.07-2.82,5.6-6.57l-21.94-34.19
		C2071.45,1184.97,2054.1,1188.15,2039.95,1170.85z"/>
	<path class="st4" d="M1614.58,1817.55v53.89c0,7.08-1.09,13.96-3.1,20.54c-26.16-51.59-76.31-101.29-171.77-117.26
		c-222.88-37.3-707.21-42.83-707.21-42.83h775.79C1566.99,1731.89,1614.58,1770.24,1614.58,1817.55z"/>
	<path class="st10" d="M1019.56,1232.27l6.03,37.82l12.74-50.42c0,0-17.85-8.66-18.64-5.51
		C1018.9,1217.31,1019.56,1232.27,1019.56,1232.27z"/>
	<polygon class="st12" points="1120.91,1313.67 1126.42,1379.05 1068.73,1376.29 1075.38,1318.4 	"/>
	<path class="st13" d="M1072.22,1345.93l3.16-27.53l45.53-4.73l1.91,22.64C1113.77,1345.33,1097.49,1354.68,1072.22,1345.93z"/>
	<g>
		<path class="st13" d="M1036.84,1269.62c3.47,7.17,1.63,15.24-4.11,18.02c-5.74,2.78-13.21-0.79-16.67-7.97
			c-3.47-7.17-1.63-15.24,4.11-18.02C1025.91,1258.88,1033.37,1262.44,1036.84,1269.62z"/>
		<path class="st12" d="M1028.47,1274.87c-0.3-1.87-0.71-3.72-1.16-5.56c-1.8-7.44-2.27-15.42-1.03-23.73
			c4.01-26.75,25.53-48.08,52.33-51.79c36.1-4.99,67.9,21.74,70.15,57.14c3.71-2.38,8-3.15,11.92-1.69
			c7.51,2.8,10.76,12.67,7.26,22.06c-3.5,9.39-12.42,14.72-19.93,11.93c-1.04-0.39-1.99-0.93-2.87-1.57
			c-1.16,30.32-24.37,55.13-54,56.52c-14.49,0.68-27.97-4.37-38.44-13.22C1038.48,1314.5,1031.29,1292.3,1028.47,1274.87z"/>
		<path class="st13" d="M1073.41,1255.11c-0.12,3.53-0.15,6.98-0.33,10.36c-0.22,3.3-0.58,6.83-1.9,9.16
			c-1.35,1.88-2.41,3.09-2.44,5.4c-0.08,2.34,1.15,4.43,2.69,5.71c3.15,2.65,7.23,2.9,10.61,2.07c-3.45-0.61-6.75-1.79-8.67-4.04
			c-0.89-1.12-1.48-2.37-1.27-3.54c0.15-1.29,0.54-1.56,2.11-3.73c1.1-1.88,1.46-3.79,1.67-5.64c0.17-1.85,0.15-3.65-0.02-5.44
			C1075.49,1261.86,1074.74,1258.4,1073.41,1255.11z"/>
		<path class="st14" d="M1093.86,1259.77c0.14,2.97,2.66,5.26,5.63,5.12s5.26-2.66,5.12-5.63c-0.14-2.97-2.66-5.26-5.63-5.12
			C1096.01,1254.29,1093.72,1256.8,1093.86,1259.77z"/>
		<path class="st14" d="M1047.84,1264.96c0.14,2.97,2.66,5.26,5.63,5.12c2.97-0.14,5.26-2.66,5.12-5.63
			c-0.14-2.97-2.66-5.26-5.63-5.12S1047.7,1261.99,1047.84,1264.96z"/>
		<path class="st13" d="M1102.89,1296.21c-1.41,1.23-2.89,2.37-4.45,3.38c-1.54,1.04-3.13,1.98-4.79,2.78
			c-3.31,1.6-6.82,2.77-10.44,3.21c-3.62,0.46-7.3,0.14-10.84-0.8c-3.53-0.99-6.9-2.62-10.09-4.58c3.46,2.91,6.32,4.36,9.77,5.62
			c3.63,1.21,7.25,1.62,11.33,1.16c3.8-0.49,7.48-1.77,10.77-3.65C1097.44,1301.44,1100.47,1299.08,1102.89,1296.21z"/>
		<path class="st10" d="M1087.1,1247.62c2.74-0.85,5.32-1.49,7.87-1.89c2.55-0.39,5.04-0.46,7.47-0.16
			c2.42,0.32,4.85,0.84,7.19,1.91c1.79,0.56,6.14,3.12,7.27,3.61c-1.33-2.45-3.26-5.07-5.64-6.52c-2.37-1.8-5.34-2.83-8.34-3.21
			c-3.02-0.36-6.1,0.08-8.84,1.18C1091.36,1243.65,1088.86,1245.32,1087.1,1247.62z"/>
		<path class="st10" d="M1063.4,1250.29c-2.17-1.92-4.94-3.07-7.83-3.63c-2.9-0.54-6.01-0.38-8.9,0.56
			c-2.87,0.95-5.59,2.54-7.56,4.77c-2.06,1.89-3.44,4.84-4.27,7.49c1.03-0.72,4.79-4.06,6.43-4.95c2.09-1.5,4.37-2.48,6.68-3.27
			c2.33-0.76,4.79-1.18,7.36-1.29C1057.89,1249.86,1060.55,1249.99,1063.4,1250.29z"/>
	</g>
	<path class="st9" d="M1089.14,1620.36c0,0,12.03,81.62-66.83,95.84c-78.86,14.22-176.98,9.98-176.98,9.98l-13.65,187.48l-41.17,2.1
		c0,0-106-260.49,40.72-301.21l131.86,0.65l54.29-3.88c0,0,54.94-13.57,55.59-10.99
		C1073.63,1602.91,1087.85,1621.65,1089.14,1620.36z"/>
	<path class="st8" d="M1161.61,1620.79c0,0,12.03,81.62-66.83,95.84c-78.86,14.22-176.98,9.98-176.98,9.98l-13.65,187.48l-41.17,2.1
		c0,0-106-260.49,40.72-301.21l131.86,0.65l54.29-3.88c0,0,54.94-13.57,55.59-10.99C1146.1,1603.34,1160.32,1622.08,1161.61,1620.79
		z"/>
	<path class="st6" d="M1062.28,1352.98c0,0-54.3,6.89-68.09,18.1c-13.79,11.2-80.15,175.81-80.15,175.81l55.16,64.64l117.21,0.86
		c0,0,87.91,47.4,143.06,2.59c55.16-44.82,26.72-200.81-5.17-234.42s-88.77-32.75-88.77-32.75S1083.83,1384,1062.28,1352.98z"/>
	<path class="st15" d="M1167.43,1434.85c-1.94,8.97-3.13,18.08-3.98,27.21c-0.47,4.57-0.67,9.15-0.93,13.74
		c-0.14,4.59-0.24,9.18-0.18,13.78c0.18,9.19,0.68,18.41,2.26,27.51c1.54,9.06,3.79,18.16,8,26.35c-2.83-8.74-4.24-17.72-5.26-26.72
		c-1-9.01-1.35-18.1-1.46-27.18c-0.19-9.09,0.03-18.19,0.32-27.3C1166.52,1453.12,1166.94,1444.01,1167.43,1434.85z"/>
	<path class="st15" d="M1004.97,1428.82c-2.48,13.35-5.11,26.65-7.78,39.93c-2.73,13.27-5.55,26.51-8.76,39.64
		c-3.17,13.14-6.7,26.2-10.97,39c-2.14,6.4-4.53,12.71-7.32,18.84c-2.76,6.14-6.03,12.09-10.42,17.28
		c4.99-4.66,8.66-10.56,11.97-16.51c3.21-6.03,5.98-12.29,8.37-18.68c2.44-6.37,4.53-12.86,6.52-19.38
		c1.91-6.54,3.66-13.12,5.3-19.72c1.56-6.62,3.05-13.26,4.39-19.92c1.29-6.67,2.57-13.35,3.64-20.06
		C1002.12,1455.84,1003.85,1442.36,1004.97,1428.82z"/>
	<path class="st12" d="M977.69,1574.27c0.34-2.73,21.06-5.77,28.67-6.17c5.77-0.3,44.01-1.58,57.01-2.16l-0.96,3.35l0.2,14.77
		l2.14,9.79c-11.41,0.72-39.31,1.81-45.12,2.96c-7.76,1.53-21.22,7.38-21.22,7.38s-5.6-1.27,1.52-4.34
		c5.71-2.47,9.72-6.28,11.42-8.18c0.98-1.09-0.08-3.04-0.79-2.85c-19.37,5.08-21.36,5.92-21.36,5.92s-22.76-0.13-0.13-5.24
		c13.57-3.07,18.43-4.85,19.64-6.37c0.51-0.65-0.4-2.85-1.23-2.9c-11.75-0.73-32.85,3.44-27.07,0.71
		c4.71-2.23,19.55-4.67,25.33-5.59c0.35-0.06,0.93-2.21-0.65-2.34C993.88,1572.06,977.37,1576.81,977.69,1574.27z"/>
	<path class="st15" d="M1180.68,1541.18c-4.77,1.16-9.47,2.49-14.25,3.49c-4.75,1.13-9.57,1.96-14.35,2.96
		c-9.61,1.75-19.25,3.28-28.91,4.63c-9.68,1.27-19.37,2.44-29.08,3.38c-9.68,0.96-19.52,1.78-29.1,2.32l-1.29,0.07l-0.28,1.12
		c-0.82,3.25-1.36,6.42-1.77,9.67c-0.41,3.24-0.58,6.5-0.57,9.76c0.03,3.27,0.31,6.54,0.85,9.77c0.6,3.23,1.55,6.39,2.84,9.42
		l0.11,0.26l0.21,0.14l10.65,7.14c3.55,2.38,7.11,4.75,10.7,7.06c-3.34-2.67-6.71-5.3-10.09-7.91l-10.15-7.83l0.32,0.4
		c-1.07-2.93-1.82-5.96-2.23-9.06c-0.38-3.1-0.55-6.24-0.46-9.38c0.1-3.14,0.41-6.27,0.85-9.38c0.46-3.1,1.07-6.24,1.88-9.18
		l-1.57,1.19c5.06-0.13,9.86-0.46,14.78-0.82c4.89-0.36,9.79-0.75,14.67-1.26c9.76-1.01,19.5-2.22,29.2-3.77
		c9.69-1.56,19.33-3.46,28.89-5.71c4.76-1.22,9.52-2.39,14.21-3.87C1171.44,1544.47,1176.07,1542.82,1180.68,1541.18z"/>
	<path class="st10" d="M732.5,1464.58h212.01l60.11,146.73h102.13c2.86,0,5.17,2.32,5.17,5.17l0,0c0,2.86-2.32,5.17-5.17,5.17
		H802.95L732.5,1464.58z"/>
	<path class="st4" d="M837.63,1548.31c1.25,6.25,6.7,10.43,12.17,9.34c5.47-1.1,8.89-7.05,7.64-13.31
		c-1.25-6.25-6.7-10.44-12.17-9.34C839.8,1536.1,836.37,1542.06,837.63,1548.31z"/>
	<path class="st10" d="M1018.4,1196.49c0,0-18.1,0.58,0.89-14.72c19-15.31,69.99-33.25,102.68-15.99c0,0,6.54-13.9,15.99-10.58
		c9.45,3.32-6.14,12.88-6.14,12.88s12.07-0.39,15.75,5.53c2.72,4.38-4.67,4.57-8.71,4.37c6.87,1.17,33.2,17.8,19.99,70.9
		c-4.7-1.03-31.47-39.85-31.47-39.85s-61.22,34.01-55.17,6.97c0,0-63.43,39.58-54.43,6.89
		C1017.79,1222.88,993.26,1224.68,1018.4,1196.49z"/>
	<path class="st10" d="M1158.9,1249.2c0,0-5.07-1.78-10.52,2.54c-5.45,4.33-4.85,19.53-4.85,19.53s-26.02,16.78-23.28-54.23
		c2.92-75.55,21.71,6.06,21.71,6.06L1158.9,1249.2z"/>
	<g>
		
			<rect x="1975.83" y="1894.4" transform="matrix(-1 -1.224647e-16 1.224647e-16 -1 4489.8438 3818.6533)" class="st4" width="538.18" height="29.84"/>
		<path class="st4" d="M2499,1663.48l8.16,37.53c3.13,14.4-6.05,28.59-20.47,31.64l-480.63,101.43
			c-14.74,3.11-29.12-6.65-31.67-21.51l-4.22-24.65c-1.92-11.21,3.5-22.39,13.49-27.82l143.95-78.29c3.05-1.66,6.39-2.7,9.84-3.07
			l329.72-35.62l2.37-0.32C2483.24,1640.97,2496.06,1649.97,2499,1663.48z"/>
		<path class="st7" d="M2012.89,1775.03c0,0-68.64,49.99-18.65,132.43l-2.98,21.26l-88.04,5.97l-80.58-16.42l-14.92-134.3
			l193.24-57.45L2012.89,1775.03z"/>
		<path class="st6" d="M1811.56,1972.99h747.34c7.07,0,12.81-5.74,12.81-12.81v-39.92c0-7.07-5.73-12.81-12.81-12.81h-747.34
			c-7.07,0-12.81,5.73-12.81,12.81v39.92C1798.76,1967.26,1804.49,1972.99,1811.56,1972.99z"/>
		<path class="st6" d="M2554.45,1654.86l-549.32,129.53c-4.39,1.04-8.98,0.9-13.32-0.35c-21.62-6.21-94.9-21.69-156.56,30.95
			c-14.56,12.42-37.04,5.82-42.28-12.58l-9.83-34.56c-3.18-11.2,1.41-23.14,11.28-29.32c79.75-49.91,428.91-258.92,658.77-243.02
			c21.67,1.5,41.21,13.58,52.25,32.29l59.89,101.49C2571.25,1639.32,2565.76,1652.19,2554.45,1654.86z"/>
		<circle class="st6" cx="1907.19" cy="1854.96" r="32.83"/>
	</g>
	<path class="st6" d="M1973.67,386.62c0,0,61.8-10.42,82.54,58.62l-25.59,38.31c0,0-53.68-20.62-53.89-22.64
		C1976.51,458.89,1973.67,386.62,1973.67,386.62z"/>
	<path class="st6" d="M1874.2,417.72c0,0-18.02,27.11-27.22,37.86c-23.13,27.04-26.11,18.56-40.49,41.81
		c-15.52,25.1,0.18,40.82,9.11,48.06c8.92,7.24-6.01,34,10.62,49c21.77,19.64,41.9,1.12,56.87,12.12
		c14.97,11,18.25,27.31,53.74,24.23c35.49-3.08,35.15-119.13,35.15-119.13s-29.05-61.52-30.2-62.03
		C1940.62,449.13,1874.2,417.72,1874.2,417.72z"/>
	<path class="st6" d="M2056.21,445.24c0,0,2.12,21.29,9.16,33.56c17.72,30.86,27.26,20.75,37.08,46.27
		c10.59,27.54-7.75,40.08-17.86,45.53c-10.11,5.46-0.4,34.52-19.52,46.18c-25.03,15.26-41.38-6.67-58.13,1.36
		c-16.75,8.03-23,23.45-57.3,13.84c-34.31-9.61-12.45-123.58-12.45-123.58s39.96-55.07,41.18-55.35
		C1979.59,452.78,2056.21,445.24,2056.21,445.24z"/>
	<path class="st12" d="M1966.54,582.66c0,0-59.23-10.9-86.47-9.98c-27.24,0.92,16.51,71.74,16.51,71.74l44.49,0.99
		c0,0,27.27-30.46,25.48-34c-1.79-3.54,0.08-26.78,0.08-26.78L1966.54,582.66z"/>
	<g>
		<path class="st12" d="M1913.72,526.14l-15.62,47.42c0,0,13.6,28.12,55.26,15.99c0,0-4.75-9.82,1.62-30.05
			C1961.49,538.84,1913.72,526.14,1913.72,526.14z"/>
		<path class="st16" d="M1913.72,526.14l-7.33,22.15c4.37,16.19,18.54,27.22,45.28,30.64c-0.01-4.81,0.74-11.25,3.31-19.42
			C1961.49,538.84,1913.72,526.14,1913.72,526.14z"/>
		<g>
			<path class="st13" d="M2009.02,491.42c-3.38,7.7-1.13,16.14,5.03,18.84c6.16,2.7,13.89-1.35,17.28-9.05
				c3.38-7.7,1.13-16.14-5.03-18.84C2020.14,479.67,2012.41,483.72,2009.02,491.42z"/>
			<path class="st12" d="M2010.75,526.39c4-9.92,6.16-20.5,7.31-29.75c0.25-1.98,0.61-3.95,1-5.91c1.61-7.92,1.8-16.35,0.17-25.07
				c-5.27-28.06-28.79-49.72-57.2-52.59c-38.26-3.86-70.77,25.55-71.76,62.98c-4.01-2.37-8.56-3.01-12.63-1.32
				c-7.81,3.24-10.86,13.78-6.8,23.55c4.05,9.76,13.67,15.05,21.48,11.81c1.08-0.45,2.07-1.05,2.96-1.76
				c2.4,31.93,27.83,57.2,59.14,57.52C1977.91,566.07,2001.04,551.82,2010.75,526.39z"/>
			<path class="st13" d="M1969.9,477.53c-1.23,3.53-1.88,7.21-2.08,10.96c-0.1,1.88-0.06,3.78,0.2,5.72
				c0.3,1.93,0.74,3.92,1.97,5.84c1.42,1.83,2.17,2.43,2.38,3.89c0.26,1.26-0.33,2.62-1.24,3.84c-1.97,2.46-5.43,3.81-9.05,4.55
				c3.6,0.71,7.87,0.26,11.05-2.64c1.56-1.4,2.76-3.63,2.58-6.06c-0.18-2.52-1.31-3.64-2.78-5.55c-0.77-1.16-1.24-2.79-1.61-4.44
				c-0.41-1.66-0.52-3.43-0.74-5.2C1970.26,484.88,1970.12,481.25,1969.9,477.53z"/>
			<path class="st14" d="M1948.51,483.25c-0.03,3.14-2.6,5.65-5.74,5.62c-3.14-0.03-5.65-2.6-5.62-5.74
				c0.03-3.14,2.6-5.65,5.74-5.62C1946.03,477.54,1948.54,480.11,1948.51,483.25z"/>
			<path class="st14" d="M1997.25,486.94c-0.03,3.14-2.6,5.65-5.74,5.62c-3.13-0.03-5.65-2.6-5.62-5.74
				c0.03-3.14,2.6-5.65,5.74-5.62C1994.76,481.23,1997.28,483.8,1997.25,486.94z"/>
			<path class="st17" d="M1947.51,526.43c0,0,8.12-2.91,15.77,2.1c0,0,8.26-5.17,14.77-0.23c0,0-3.02,12.3-16.59,11.47
				C1947.88,538.94,1947.51,526.43,1947.51,526.43z"/>
			<path class="st13" d="M1940.4,522.02c1.54,1.24,3.13,2.39,4.82,3.39c1.66,1.03,3.38,1.96,5.16,2.74
				c3.55,1.56,7.3,2.66,11.14,2.98c3.83,0.34,7.7-0.13,11.4-1.26c3.69-1.18,7.17-3.03,10.46-5.22c-1.47,1.33-3.04,2.54-4.72,3.62
				c-1.68,1.08-3.5,1.93-5.36,2.69c-1.88,0.7-3.85,1.22-5.85,1.5c-2,0.26-4.04,0.31-6.06,0.16c-4.03-0.38-7.96-1.58-11.5-3.44
				C1946.35,527.33,1943.07,524.96,1940.4,522.02z"/>
			<path class="st6" d="M1955.16,470.17c-2.92-0.79-5.67-1.37-8.37-1.69c-2.7-0.32-5.34-0.29-7.89,0.12
				c-2.54,0.44-5.08,1.08-7.51,2.29c-1.86,0.65-6.36,3.53-7.53,4.09c1.3-2.62,3.24-5.47,5.7-7.09c2.43-1.99,5.52-3.19,8.67-3.71
				c3.17-0.5,6.44-0.15,9.37,0.9C1950.53,466.15,1953.22,467.81,1955.16,470.17z"/>
			<path class="st6" d="M1980.27,472.07c2.22-2.11,5.09-3.43,8.12-4.14c3.04-0.69,6.33-0.63,9.41,0.25
				c3.06,0.89,5.99,2.46,8.15,4.73c2.25,1.91,3.82,4.96,4.79,7.73c-1.11-0.71-5.21-4.1-6.97-4.98c-2.26-1.5-4.71-2.44-7.17-3.19
				c-2.49-0.71-5.1-1.06-7.82-1.08C1986.06,471.4,1983.26,471.64,1980.27,472.07z"/>
		</g>
	</g>
	<path class="st1" d="M1863.5,872.41c0,0-17.47,82.21,61.79,101.73c79.26,19.52,179.29,21.5,179.29,21.5l1.85,191.49l41.72,4.78
		c0,0,124.5-258.04-22.07-308.86l-134.11-7.81l-54.95-7.43c0,0-54.99-17.33-55.81-14.74C1880.4,855.66,1864.74,873.81,1863.5,872.41
		z"/>
	<path class="st5" d="M1789.8,868.2c0,0-17.47,82.21,61.79,101.73c79.26,19.52,179.29,21.5,179.29,21.5l1.85,191.49l41.72,4.78
		c0,0,124.5-258.04-22.07-308.86l-134.11-7.81l-54.95-7.43c0,0-54.99-17.33-55.81-14.74C1806.69,851.45,1791.03,869.59,1789.8,868.2
		z"/>
	<path class="st4" d="M2054.85,996.92c-2.29-0.41-4.57-0.8-6.82-1.33c-2.26-0.52-4.48-1.13-6.69-1.79
		c-1.11-0.35-2.22-0.72-3.31-1.12c1.14-0.24,2.25-0.57,3.36-0.96c2.18-0.77,4.21-1.88,6.12-3.13c1.84-1.36,3.6-2.83,5.12-4.51
		c1.54-1.67,2.85-3.51,4.01-5.43l-2.27,2.46c-0.82,0.76-1.57,1.57-2.42,2.28c-1.62,1.5-3.42,2.77-5.28,3.91
		c-1.87,1.13-3.84,2.04-5.88,2.76c-2.02,0.68-4.21,1.18-6.23,1.26l-3.71,0.13l3.29,1.53c2.23,1.04,4.46,1.72,6.74,2.36
		c2.27,0.64,4.58,1.08,6.89,1.48c2.32,0.37,4.64,0.7,6.97,0.87c2.33,0.17,4.67,0.29,7,0.28
		C2059.45,997.62,2057.14,997.33,2054.85,996.92z"/>
	<path class="st12" d="M2033.85,698.07c0,0,5.4,134.32,20.5,155.35l-83.07-18.88V688.36L2033.85,698.07z"/>
	<path class="st8" d="M1998.46,716.41c0,0-11.56,33.81-13.66,51.76c-5.22,44.59,0.45,76.05,9.68,101.43
		c12.95,35.6-92.78,22.66-94.94,21.58c-2.16-1.08-92.78-36.14-92.78-36.14l-17.26-50.17v-88.47l4.85-40.46L1998.46,716.41z"/>
	<path class="st12" d="M1745.26,675.95l66.53,22.65c0,0-11.51,106.45-7.91,121.55c3.07,12.91,51.32,38.58,81.89,52.95
		c4.92,2.31,10.34,3.3,15.76,2.86c17.41-1.43,48.28-4.13,53.13-4.46c7.61-0.52,28.54,0.01,29.21,2.68
		c0.62,2.48-16.34-0.25-27.35,2.02c-1.55,0.32-0.72,2.39-0.36,2.4c5.84,0.22,20.87,0.86,25.81,2.51c6.07,2.02-15.38,0.42-26.96,2.55
		c-0.81,0.15-1.46,2.45-0.87,3.03c1.38,1.37,6.42,2.55,20.26,3.97c23.08,2.36,0.5,5.22,0.5,5.22s-2.08-0.59-21.92-3.31
		c-0.73-0.1-1.54,1.96-0.44,2.92c1.91,1.68,6.35,4.99,12.32,6.75c7.43,2.19,2.02,4.13,2.02,4.13s-14.06-4.19-21.95-4.78
		c-5.9-0.44-33.73,1.82-45.15,2.48l-0.87-1.96c-15.47-0.45-138.9-3.65-150.78-80.16C1735.91,743.2,1745.26,675.95,1745.26,675.95z"
		/>
	<g>
		<path class="st10" d="M2228.84,752.18h-212.01l-60.11,146.73H1854.6c-2.86,0-5.17,2.32-5.17,5.17l0,0c0,2.86,2.31,5.17,5.17,5.17
			h303.79L2228.84,752.18z"/>
		<path class="st4" d="M2123.72,835.91c-1.25,6.25-6.7,10.44-12.17,9.34c-5.47-1.09-8.89-7.05-7.64-13.31
			c1.25-6.25,6.7-10.44,12.17-9.34C2121.55,823.7,2124.97,829.66,2123.72,835.91z"/>
	</g>
	<path class="st8" d="M1966.54,582.66c0,0-40.27,47-86.47-9.98c0,0-50.48-4.11-87.7,22.32c-37.22,26.43-59.51,85.8-59.51,85.8
		s67.43,33.98,84.15,35.6h187.18c0,0,28.59-2.16,56.1-16.18C2060.29,700.23,2055.54,605.86,1966.54,582.66z"/>
	<path class="st10" d="M1841.62,662.85c-1.74,5.83-3.3,11.7-4.85,17.58c-2.9,11.55-5.57,22.55-7.53,34.36
		c-3.65,0.17-7.76-0.36-11.37-0.88c-19.44-3.46-32.21-8.9-49.52-15.99c-25.93-11.81-22.43-10.67-35.5-17.12
		c15.18,9.6,23.36,13.93,34.42,19.46c15.16,7.03,29.65,13.53,50.05,17.13c8.92,1.22,11.48,0.95,14.87,0.57
		c1.32-8.67,2.82-17.54,6.96-36.96l3.85-17.79l3.97-17.79C1845.05,651.19,1843.35,657.02,1841.62,662.85z"/>
	<path class="st10" d="M1989.29,631.77c2.64,6.9,5.04,13.83,7.18,20.82c2.1,7,3.96,14.05,5.2,21.19c1.17,6.07,1.98,14.08,1.71,21.56
		c-0.27,7.21-10.95,41.11-14.09,47.82c4.43-5.95,16.06-40.14,16.84-47.6c0.9-7.49,0.28-15.05-0.98-22.4
		c-1.41-7.41-3.28-14.31-6.08-21.47C1996.41,644.77,1993.25,638.03,1989.29,631.77z"/>
	<path class="st6" d="M1890.27,476.05c0,0,69.16-16.68,102.2-63.68c0,0,0.57-42.79-62.91-33.09
		C1867.86,388.72,1853.42,448.75,1890.27,476.05z"/>
	<path class="st18" d="M2576.03,1999.58H421.63c-6.37,0-11.53-5.16-11.53-11.53v-5.3c0-6.37,5.16-11.53,11.53-11.53h2154.39
		c6.37,0,11.53,5.16,11.53,11.53v5.3C2587.55,1994.42,2582.39,1999.58,2576.03,1999.58z"/>
	<polygon class="st1" points="396.9,1037.18 812.82,799.29 869.03,910.64 443.45,1135.79 	"/>
	<path class="st8" d="M1180.68,359.56c0,0-3.28,32.35-28.81,34.59c25.53,2.24,28.81,34.59,28.81,34.59s3.28-32.35,28.81-34.59
		C1183.96,391.9,1180.68,359.56,1180.68,359.56z"/>
	<path class="st5" d="M739.64,111.06c0,0-4.37,43.09-38.37,46.07c34,2.98,38.37,46.07,38.37,46.07s4.37-43.09,38.37-46.07
		C744.01,154.15,739.64,111.06,739.64,111.06z"/>
	<path class="st6" d="M561.51,496.43c0,0-2.93,28.93-25.77,30.93c22.83,2,25.77,30.93,25.77,30.93s2.93-28.93,25.77-30.93
		C564.44,525.36,561.51,496.43,561.51,496.43z"/>
	<path class="st6" d="M2507.77,1089.73c0,0-4.37,43.09-38.37,46.07c34,2.98,38.37,46.07,38.37,46.07s4.37-43.09,38.37-46.07
		C2512.14,1132.81,2507.77,1089.73,2507.77,1089.73z"/>
	<path class="st8" d="M147.07,807.36c0,0-4.37,43.09-38.37,46.07c34,2.98,38.37,46.07,38.37,46.07s4.37-43.09,38.37-46.07
		C151.44,850.44,147.07,807.36,147.07,807.36z"/>
	<path class="st8" d="M2636.97,753.22c0,0-4.37,43.09-38.37,46.07c34,2.98,38.37,46.07,38.37,46.07s4.37-43.09,38.37-46.07
		C2641.34,796.31,2636.97,753.22,2636.97,753.22z"/>
	<path class="st6" d="M1614.58,84.56c0,0-4.37,43.09-38.37,46.07c34,2.98,38.37,46.07,38.37,46.07s4.37-43.09,38.37-46.07
		C1618.95,127.64,1614.58,84.56,1614.58,84.56z"/>
	<path class="st5" d="M2343,415.3c0,0-2.38,27.21-20.86,29.09c18.48,1.88,20.86,29.09,20.86,29.09s2.38-27.21,20.85-29.09
		C2345.37,442.5,2343,415.3,2343,415.3z"/>
</g>
<g>
</g>
<g>
</g>
<g>
</g>
<g>
</g>
<g>
</g>
<g>
</g>
<g>
</g>
<g>
</g>
<g>
</g>
<g>
</g>
<g>
</g>
</svg>
